#N canvas 0 22 491 606 10;
#X obj 113 71 inlet~;
#X obj 223 71 inlet~;
#N canvas 459 248 450 300 altered.level 0;
#X obj 72 73 inlet~;
#X obj 192 78 inlet~;
#X obj 68 186 outlet~;
#X obj 168 186 outlet~;
#X obj 258 185 outlet;
#X obj 110 136 env~ 1024 256;
#X connect 0 0 2 0;
#X connect 0 0 5 0;
#X connect 1 0 3 0;
#X connect 5 0 4 0;
#X restore 157 125 pd altered.level;
#N canvas 0 22 450 300 reverence.level 0;
#X obj 107 55 inlet~;
#X obj 177 55 inlet~;
#X obj 257 55 inlet;
#X obj 106 141 outlet~;
#X obj 196 141 outlet;
#X obj 266 141 outlet;
#X obj 186 95 env~ 1024 256;
#X connect 0 0 3 0;
#X connect 1 0 6 0;
#X connect 2 0 5 0;
#X connect 6 0 4 0;
#X restore 158 169 pd reverence.level;
#X obj 229 205 -;
#X obj 230 237 + 100;
#X obj 231 268 dbtorms;
#X obj 324 261 samplerate~;
#X obj 324 283 / 1000;
#X obj 324 338 /;
#X obj 333 233 loadbang;
#X obj 242 363 pack f f;
#X obj 238 396 vline~;
#X obj 191 426 *~;
#X obj 185 468 outlet~;
#X obj 323 313 swap 256;
#X connect 0 0 2 0;
#X connect 1 0 2 1;
#X connect 2 0 3 0;
#X connect 2 1 3 1;
#X connect 2 2 3 2;
#X connect 3 0 13 0;
#X connect 3 1 4 0;
#X connect 3 2 4 1;
#X connect 4 0 5 0;
#X connect 5 0 6 0;
#X connect 6 0 11 0;
#X connect 7 0 8 0;
#X connect 8 0 15 0;
#X connect 9 0 11 1;
#X connect 10 0 7 0;
#X connect 11 0 12 0;
#X connect 12 0 13 1;
#X connect 13 0 14 0;
#X connect 15 0 9 0;
#X connect 15 1 9 1;
