#N canvas 757 113 570 451 10;
#X obj 77 45 inlet~;
#N canvas 0 22 450 300 ffdelaywrite 0;
#X obj 126 87 inlet~;
#X obj 127 135 delwrite~ \$0-ffdelay \$1;
#X obj 126 187 outlet~;
#X connect 0 0 1 0;
#X restore 117 140 pd ffdelaywrite;
#N canvas 0 22 450 300 ffdelayread 0;
#X obj 109 100 inlet~;
#X obj 110 205 outlet~;
#X obj 199 100 inlet~;
#X obj 110 162 vd~ \$0-ffdelay;
#X connect 2 0 3 0;
#X connect 3 0 1 0;
#X restore 117 170 pd ffdelayread;
#X obj 77 226 +~;
#X obj 289 45 inlet~ gain;
#X obj 369 45 inlet~ ff;
#X obj 438 45 inlet~ fb;
#X obj 77 123 *~;
#X obj 117 198 *~;
#N canvas 295 48 450 300 fbdelaywrite 0;
#X obj 102 93 inlet~;
#X obj 226 39 block~ 1;
#X obj 172 225 delwrite~ \$0-fbdelay \$1;
#X obj 201 149 vd~ \$0-fbdelay;
#X obj 202 93 inlet~;
#X obj 143 188 +~;
#X obj 199 174 *~;
#X obj 140 254 outlet~;
#X obj 282 93 inlet~;
#X connect 0 0 5 0;
#X connect 3 0 6 0;
#X connect 4 0 3 0;
#X connect 5 0 2 0;
#X connect 5 0 7 0;
#X connect 6 0 5 1;
#X connect 8 0 6 1;
#X restore 113 321 pd fbdelaywrite;
#X obj 190 45 inlet~ deltime;
#X obj 76 392 outlet~;
#X text 363 350 .mmb;
#X connect 0 0 1 0;
#X connect 0 0 7 0;
#X connect 1 0 2 0;
#X connect 2 0 8 0;
#X connect 3 0 9 0;
#X connect 4 0 7 1;
#X connect 5 0 8 1;
#X connect 6 0 9 2;
#X connect 7 0 3 0;
#X connect 8 0 3 1;
#X connect 9 0 11 0;
#X connect 10 0 2 1;
#X connect 10 0 9 1;
