#N canvas 0 22 857 528 10;
#X obj 140 48 inlet;
#X obj 197 144 list split 2;
#X msg 266 172 \$1 0;
#X obj 211 245 unpack f f;
#X obj 140 89 route bang;
#X obj 211 356 pack f f;
#X obj 211 399 outlet;
#X text 624 385 .mmb;
#X text 298 171 convert real to complex;
#X obj 256 309 * -1;
#X obj 174 213 list;
#X connect 0 0 4 0;
#X connect 1 0 3 0;
#X connect 1 0 10 1;
#X connect 1 2 2 0;
#X connect 2 0 3 0;
#X connect 2 0 10 1;
#X connect 3 0 5 0;
#X connect 3 1 9 0;
#X connect 4 0 10 0;
#X connect 4 1 1 0;
#X connect 5 0 6 0;
#X connect 9 0 5 1;
#X connect 10 0 3 0;
