#N canvas 494 44 618 387 10;
#X obj 142 65 inlet~;
#X obj 193 65 inlet~;
#X obj 342 65 inlet~;
#X obj 393 65 inlet~;
#X obj 250 312 outlet~;
#X obj 301 312 outlet~;
#X text 430 284 .mmb;
#X obj 200 178 *~;
#X obj 240 178 *~;
#X obj 218 212 -~;
#X obj 340 178 *~;
#X obj 380 178 *~;
#X obj 358 212 +~;
#X connect 0 0 7 0;
#X connect 0 0 10 0;
#X connect 1 0 8 0;
#X connect 1 0 11 0;
#X connect 2 0 7 1;
#X connect 2 0 11 1;
#X connect 3 0 8 1;
#X connect 3 0 10 1;
#X connect 7 0 9 0;
#X connect 8 0 9 1;
#X connect 9 0 4 0;
#X connect 10 0 12 0;
#X connect 11 0 12 1;
#X connect 12 0 5 0;
