#N canvas 0 22 937 652 10;
#X obj 140 48 inlet;
#X obj 197 144 list split 2;
#X msg 266 164 \$1 0;
#X obj 487 48 inlet;
#X obj 487 74 list split 2;
#X msg 556 102 \$1 0;
#X text 588 101 convert real to complex;
#X obj 140 89 route bang;
#X obj 336 499 outlet;
#X text 624 445 .mmb;
#X obj 336 462 pack f f;
#X obj 592 142 loadbang;
#X obj 592 170 list append \$1 \$2;
#X obj 501 215 unpack f f;
#X obj 211 215 t l l;
#X obj 176 188 list;
#X obj 381 422 /;
#X obj 336 422 /;
#X obj 501 244 t f f f;
#X obj 558 244 t f f f;
#X obj 578 328 *;
#X obj 523 328 *;
#X obj 548 362 +;
#X obj 389 352 *;
#X obj 429 352 *;
#X obj 405 379 -;
#X obj 299 352 *;
#X obj 339 352 *;
#X obj 315 379 +;
#X obj 320 266 unpack f f;
#X obj 203 245 unpack f f;
#X msg 312 237 \$2 \$1;
#X connect 0 0 7 0;
#X connect 1 0 14 0;
#X connect 1 0 15 1;
#X connect 1 2 2 0;
#X connect 2 0 14 0;
#X connect 2 0 15 1;
#X connect 3 0 4 0;
#X connect 4 0 13 0;
#X connect 4 2 5 0;
#X connect 5 0 13 0;
#X connect 7 0 15 0;
#X connect 7 1 1 0;
#X connect 10 0 8 0;
#X connect 11 0 12 0;
#X connect 12 0 13 0;
#X connect 13 0 18 0;
#X connect 13 1 19 0;
#X connect 14 0 30 0;
#X connect 14 1 31 0;
#X connect 15 0 14 0;
#X connect 16 0 10 1;
#X connect 17 0 10 0;
#X connect 18 0 23 1;
#X connect 18 0 26 1;
#X connect 18 1 21 0;
#X connect 18 2 21 1;
#X connect 19 0 24 1;
#X connect 19 0 27 1;
#X connect 19 1 20 0;
#X connect 19 2 20 1;
#X connect 20 0 22 1;
#X connect 21 0 22 0;
#X connect 22 0 16 1;
#X connect 22 0 17 1;
#X connect 23 0 25 0;
#X connect 24 0 25 1;
#X connect 25 0 16 0;
#X connect 26 0 28 0;
#X connect 27 0 28 1;
#X connect 28 0 17 0;
#X connect 29 0 23 0;
#X connect 29 1 24 0;
#X connect 30 0 26 0;
#X connect 30 1 27 0;
#X connect 31 0 29 0;
