#N canvas 247 22 618 387 10;
#X obj 142 65 inlet~;
#X obj 193 65 inlet~;
#X obj 342 65 inlet~;
#X obj 393 65 inlet~;
#X obj 250 332 outlet~;
#X obj 301 332 outlet~;
#X text 430 284 .mmb;
#X obj 250 286 /~;
#X obj 301 286 /~;
#X obj 394 184 *~;
#X obj 434 184 *~;
#X obj 405 223 +~;
#X obj 165 182 *~;
#X obj 205 182 *~;
#X obj 180 212 +~;
#X obj 285 182 *~;
#X obj 325 182 *~;
#X obj 300 212 -~;
#X connect 0 0 12 0;
#X connect 0 0 16 0;
#X connect 1 0 13 0;
#X connect 1 0 15 0;
#X connect 2 0 9 0;
#X connect 2 0 9 1;
#X connect 2 0 12 1;
#X connect 2 0 15 1;
#X connect 3 0 10 0;
#X connect 3 0 10 1;
#X connect 3 0 13 1;
#X connect 3 0 16 1;
#X connect 7 0 4 0;
#X connect 8 0 5 0;
#X connect 9 0 11 0;
#X connect 10 0 11 1;
#X connect 11 0 8 1;
#X connect 11 0 7 1;
#X connect 12 0 14 0;
#X connect 13 0 14 1;
#X connect 14 0 7 0;
#X connect 15 0 17 0;
#X connect 16 0 17 1;
#X connect 17 0 8 0;
