#N canvas 0 22 857 528 10;
#X obj 140 48 inlet;
#X obj 197 144 list split 2;
#X msg 266 167 \$1 0;
#X obj 487 48 inlet;
#X obj 487 94 list split 2;
#X msg 556 122 \$1 0;
#X text 588 121 convert real to complex;
#X obj 211 215 unpack f f;
#X obj 501 215 unpack f f;
#X obj 140 89 route bang;
#X obj 336 356 pack f f;
#X obj 336 399 outlet;
#X text 624 385 .mmb;
#X obj 318 304 -;
#X obj 418 304 -;
#X obj 593 154 loadbang;
#X obj 592 177 list append \$1 \$2;
#X obj 167 190 list;
#X connect 0 0 9 0;
#X connect 1 0 7 0;
#X connect 1 0 17 1;
#X connect 1 2 2 0;
#X connect 2 0 7 0;
#X connect 2 0 17 1;
#X connect 3 0 4 0;
#X connect 4 0 8 0;
#X connect 4 2 5 0;
#X connect 5 0 8 0;
#X connect 7 0 13 0;
#X connect 7 1 14 0;
#X connect 8 0 13 1;
#X connect 8 1 14 1;
#X connect 9 0 17 0;
#X connect 9 1 1 0;
#X connect 10 0 11 0;
#X connect 13 0 10 0;
#X connect 14 0 10 1;
#X connect 15 0 16 0;
#X connect 16 0 8 0;
#X connect 17 0 7 0;
