#N canvas 15 22 1167 797 10;
#X declare -lib mrpeach;
#X msg 196 155 calibrate wiimote;
#X msg 220 179 calibrate nunchuk acc;
#X msg 233 205 calibrate nunchuk joystick;
#N canvas 0 22 725 590 to.mknob 0;
#X obj 133 303 moonlib/mknob 60 -1 0 1 0 0 empty empty empty -2 -6
0 8 -262144 -1 -1 0 1;
#X obj 145 40 inlet;
#X obj 239 126 r \$0-pi;
#X obj 239 153 * 2;
#X obj 141 222 wrap;
#X obj 143 145 * -1;
#X obj 142 177 expr $f1/$f2+.75;
#X obj 145 82 speedlim 100;
#X obj 145 107 t f f;
#X obj 233 308 outlet;
#X connect 1 0 7 0;
#X connect 2 0 3 0;
#X connect 3 0 6 1;
#X connect 4 0 0 0;
#X connect 5 0 6 0;
#X connect 6 0 4 0;
#X connect 7 0 8 0;
#X connect 8 0 5 0;
#X connect 8 1 9 0;
#X coords 0 -1 1 1 66 66 2 130 300;
#X restore 563 538 pd to.mknob;
#N canvas 0 22 450 300 init 0;
#X obj 152 59 loadbang;
#X msg 152 89 1;
#X obj 152 122 atan;
#X obj 152 150 * 4;
#X obj 152 180 s \$0-pi;
#X connect 0 0 1 0;
#X connect 1 0 2 0;
#X connect 2 0 3 0;
#X connect 3 0 4 0;
#X restore 970 36 pd init;
#X floatatom 563 633 10 0 0 0 - - -;
#X text 538 498 Direction of A button;
#X text 587 518 up;
#X text 581 605 down;
#X text 535 562 left;
#X text 630 561 right;
#N canvas 0 22 725 590 to.mknob 0;
#X obj 133 303 moonlib/mknob 60 -1 0 1 0 0 empty empty empty -2 -6
0 8 -262144 -1 -1 0 1;
#X obj 145 40 inlet;
#X obj 239 126 r \$0-pi;
#X obj 239 153 * 2;
#X obj 141 222 wrap;
#X obj 143 145 * -1;
#X obj 142 177 expr $f1/$f2+.75;
#X obj 145 82 speedlim 100;
#X obj 145 107 t f f;
#X obj 233 308 outlet;
#X connect 1 0 7 0;
#X connect 2 0 3 0;
#X connect 3 0 6 1;
#X connect 4 0 0 0;
#X connect 5 0 6 0;
#X connect 6 0 4 0;
#X connect 7 0 8 0;
#X connect 8 0 5 0;
#X connect 8 1 9 0;
#X coords 0 -1 1 1 66 66 2 130 300;
#X restore 411 538 pd to.mknob;
#X floatatom 411 633 10 0 0 0 - - -;
#X text 435 518 up;
#X text 429 605 down;
#X text 383 498 Direction of IR sensor;
#X text 478 561 forward;
#X text 360 561 backward;
#X obj 563 658 rad2deg;
#X floatatom 563 683 10 0 0 0 - - -;
#X obj 411 658 rad2deg;
#X floatatom 411 683 10 0 0 0 - - -;
#X obj 471 315 route pitch roll xyz;
#X text 484 297 Accelerometer Data;
#X text 967 320 Buttons;
#N canvas 0 22 1037 599 buttons 0;
#X obj 235 234 tgl 15 0 empty empty ^ 5 7 0 10 -262144 -1 -1 0 1;
#X obj 255 254 tgl 15 0 empty empty > 5 7 0 10 -262144 -1 -1 0 1;
#X obj 215 254 tgl 15 0 empty empty < 5 7 0 10 -262144 -1 -1 0 1;
#X obj 235 274 tgl 15 0 empty empty v 5 7 0 10 -262144 -1 -1 0 1;
#X obj 236 311 tgl 15 0 empty empty A 5 8 0 10 -262144 -1 -1 0 1;
#X obj 262 311 tgl 15 0 empty empty B 5 8 0 10 -262144 -1 -1 0 1;
#X obj 236 361 tgl 15 0 empty empty Home -4 22 0 10 -262144 -1 -1 0
1;
#X obj 216 361 tgl 15 0 empty empty - 5 8 0 10 -262144 -1 -1 0 1;
#X obj 256 361 tgl 15 0 empty empty + 5 7 0 10 -262144 -1 -1 0 1;
#X obj 192 90 route up down left right A B minus home plus one two
;
#X obj 236 441 tgl 15 0 empty empty 1 5 8 0 10 -262144 -1 -1 0 1;
#X obj 236 471 tgl 15 0 empty empty 2 5 8 0 10 -262144 -1 -1 0 1;
#X obj 192 48 inlet;
#X connect 9 0 0 0;
#X connect 9 1 3 0;
#X connect 9 2 2 0;
#X connect 9 3 1 0;
#X connect 9 4 4 0;
#X connect 9 5 5 0;
#X connect 9 6 7 0;
#X connect 9 7 6 0;
#X connect 9 8 8 0;
#X connect 9 9 10 0;
#X connect 9 10 11 0;
#X connect 12 0 9 0;
#X coords 0 -1 1 1 86 320 1 200 200;
#X restore 948 352 pd buttons;
#X text 951 334 (see inside);
#N canvas 370 22 880 608 xyz 0;
#X obj 106 25 inlet;
#X obj 106 93 unpack f f f;
#X obj 77 394 list prepend;
#X obj 111 458 t l l;
#X obj 77 424 list split 1;
#X obj 111 491 tabset \$0-acc.x;
#N canvas 0 22 450 300 (subpatch) 0;
#X array \$0-acc.x 100 float 0;
#X coords 0 5 99 -5 150 100 1;
#X restore 555 185 graph;
#N canvas 0 22 450 300 (subpatch) 0;
#X array \$0-acc.y 100 float 0;
#X coords 0 5 99 -5 150 100 1;
#X restore 555 305 graph;
#N canvas 0 22 450 300 (subpatch) 0;
#X array \$0-acc.z 100 float 0;
#X coords 0 5 99 -5 150 100 1;
#X restore 555 425 graph;
#X floatatom 607 168 5 0 0 0 - - -;
#X floatatom 607 288 5 0 0 0 - - -;
#X floatatom 607 408 5 0 0 0 - - -;
#X obj 187 394 list prepend;
#X obj 221 458 t l l;
#X obj 187 424 list split 1;
#X obj 317 394 list prepend;
#X obj 351 458 t l l;
#X obj 317 424 list split 1;
#X text 201 92 x y z are given as a list;
#X obj 221 491 tabset \$0-acc.y;
#X obj 351 491 tabset \$0-acc.z;
#X obj 411 37 loadbang;
#X obj 409 74 tabdump \$0-acc.x;
#X obj 106 57 speedlim 100;
#X text 669 185 right;
#X text 673 269 left;
#X text 684 508 up;
#X text 675 424 down;
#X text 658 387 forward;
#X text 651 306 backward;
#X connect 0 0 23 0;
#X connect 1 0 2 0;
#X connect 1 0 9 0;
#X connect 1 1 12 0;
#X connect 1 1 10 0;
#X connect 1 2 15 0;
#X connect 1 2 11 0;
#X connect 2 0 4 0;
#X connect 3 0 5 0;
#X connect 3 1 2 1;
#X connect 4 1 3 0;
#X connect 12 0 14 0;
#X connect 13 0 19 0;
#X connect 13 1 12 1;
#X connect 14 1 13 0;
#X connect 15 0 17 0;
#X connect 16 0 20 0;
#X connect 16 1 15 1;
#X connect 17 1 16 0;
#X connect 21 0 22 0;
#X connect 22 0 15 1;
#X connect 22 0 12 1;
#X connect 22 0 2 1;
#X connect 23 0 1 0;
#X coords 0 -1 1 1 160 380 1 550 150;
#X restore 717 367 pd xyz;
#X text 272 270 <-- nunchuk stuff in here;
#N canvas 32 22 872 624 nunchuk 0;
#X obj 193 65 route nunchuk;
#N canvas 0 22 725 590 to.mknob 0;
#X obj 133 303 moonlib/mknob 60 -1 0 1 0 0 empty empty empty -2 -6
0 8 -262144 -1 -1 0 1;
#X obj 145 40 inlet;
#X obj 239 126 r \$0-pi;
#X obj 239 153 * 2;
#X obj 141 222 wrap;
#X obj 143 145 * -1;
#X obj 142 177 expr $f1/$f2+.75;
#X obj 145 82 speedlim 100;
#X obj 145 107 t f f;
#X obj 233 308 outlet;
#X connect 1 0 7 0;
#X connect 2 0 3 0;
#X connect 3 0 6 1;
#X connect 4 0 0 0;
#X connect 5 0 6 0;
#X connect 6 0 4 0;
#X connect 7 0 8 0;
#X connect 8 0 5 0;
#X connect 8 1 9 0;
#X coords 0 -1 1 1 66 66 2 130 300;
#X restore 536 287 pd to.mknob;
#X floatatom 536 382 10 0 0 0 - - -;
#X text 560 267 up;
#X text 554 354 down;
#X text 508 311 left;
#X text 603 310 right;
#N canvas 0 22 725 590 to.mknob 0;
#X obj 133 303 moonlib/mknob 60 -1 0 1 0 0 empty empty empty -2 -6
0 8 -262144 -1 -1 0 1;
#X obj 145 40 inlet;
#X obj 239 126 r \$0-pi;
#X obj 239 153 * 2;
#X obj 141 222 wrap;
#X obj 143 145 * -1;
#X obj 142 177 expr $f1/$f2+.75;
#X obj 145 82 speedlim 100;
#X obj 145 107 t f f;
#X obj 233 308 outlet;
#X connect 1 0 7 0;
#X connect 2 0 3 0;
#X connect 3 0 6 1;
#X connect 4 0 0 0;
#X connect 5 0 6 0;
#X connect 6 0 4 0;
#X connect 7 0 8 0;
#X connect 8 0 5 0;
#X connect 8 1 9 0;
#X coords 0 -1 1 1 66 66 2 130 300;
#X restore 384 287 pd to.mknob;
#X floatatom 384 382 10 0 0 0 - - -;
#X text 408 267 up;
#X text 402 354 down;
#X text 451 310 forward;
#X text 333 310 backward;
#X text 350 249 Direction of C button;
#X text 511 247 Direction of joystick;
#X obj 193 15 inlet;
#X obj 117 351 grid grid1 150 0 200 150 0 200 1 1 1 2 2 191.219 429.125
;
#X obj 186 177 unpack f f;
#X floatatom 160 204 10 0 0 0 - - -;
#X obj 160 227 + 1;
#X obj 160 250 * 100;
#X floatatom 250 204 10 0 0 0 - - -;
#X obj 250 227 + 1;
#X obj 250 250 * 100;
#X obj 160 276 pack f f;
#X msg 186 306 values \$1 \$2;
#X obj 108 151 tgl 15 0 empty empty C 5 8 0 10 -262144 -1 -1 0 1;
#X obj 108 181 tgl 15 0 empty empty Z 5 8 0 10 -262144 -1 -1 0 1;
#X text 287 62 <-- all nunchuk messages start with "nunchuk";
#X text 146 203 x;
#X text 237 203 y;
#X obj 193 93 route C Z joystick pitch roll xyz;
#N canvas 370 22 880 608 xyz 0;
#X obj 106 25 inlet;
#X obj 106 93 unpack f f f;
#X obj 77 394 list prepend;
#X obj 111 458 t l l;
#X obj 77 424 list split 1;
#N canvas 0 22 450 300 (subpatch) 0;
#X array \$0-n.acc.x 100 float 0;
#X coords 0 5 99 -5 150 100 1;
#X restore 555 185 graph;
#N canvas 0 22 450 300 (subpatch) 0;
#X array \$0-n.acc.y 100 float 0;
#X coords 0 5 99 -5 150 100 1;
#X restore 555 305 graph;
#N canvas 0 22 450 300 (subpatch) 0;
#X array \$0-n.acc.z 100 float 0;
#X coords 0 5 99 -5 150 100 1;
#X restore 555 425 graph;
#X floatatom 627 168 5 0 0 0 - - -;
#X floatatom 627 288 5 0 0 0 - - -;
#X floatatom 627 408 5 0 0 0 - - -;
#X obj 187 394 list prepend;
#X obj 221 458 t l l;
#X obj 187 424 list split 1;
#X obj 317 394 list prepend;
#X obj 351 458 t l l;
#X obj 317 424 list split 1;
#X text 201 92 x y z are given as a list;
#X obj 411 37 loadbang;
#X obj 106 57 speedlim 100;
#X obj 111 491 tabset \$0-n.acc.x;
#X obj 221 491 tabset \$0-n.acc.y;
#X obj 351 491 tabset \$0-n.acc.z;
#X obj 409 74 tabdump \$0-n.acc.x;
#X text 669 185 right;
#X text 673 269 left;
#X text 684 508 up;
#X text 675 424 down;
#X text 658 387 forward;
#X text 651 306 backward;
#X connect 0 0 19 0;
#X connect 1 0 2 0;
#X connect 1 0 8 0;
#X connect 1 1 11 0;
#X connect 1 1 9 0;
#X connect 1 2 14 0;
#X connect 1 2 10 0;
#X connect 2 0 4 0;
#X connect 3 0 20 0;
#X connect 3 1 2 1;
#X connect 4 1 3 0;
#X connect 11 0 13 0;
#X connect 12 0 21 0;
#X connect 12 1 11 1;
#X connect 13 1 12 0;
#X connect 14 0 16 0;
#X connect 15 0 22 0;
#X connect 15 1 14 1;
#X connect 16 1 15 0;
#X connect 18 0 23 0;
#X connect 19 0 1 0;
#X connect 23 0 14 1;
#X connect 23 0 11 1;
#X connect 23 0 2 1;
#X coords 0 -1 1 1 160 380 1 550 150;
#X restore 659 174 pd xyz;
#X obj 186 154 speedlim 50;
#X connect 0 0 31 0;
#X connect 1 0 2 0;
#X connect 7 0 8 0;
#X connect 15 0 0 0;
#X connect 17 0 18 0;
#X connect 17 1 21 0;
#X connect 18 0 19 0;
#X connect 19 0 20 0;
#X connect 20 0 24 0;
#X connect 21 0 22 0;
#X connect 22 0 23 0;
#X connect 23 0 24 1;
#X connect 24 0 25 0;
#X connect 25 0 16 0;
#X connect 31 0 26 0;
#X connect 31 1 27 0;
#X connect 31 2 33 0;
#X connect 31 3 7 0;
#X connect 31 4 1 0;
#X connect 31 5 32 0;
#X connect 33 0 17 0;
#X restore 201 270 pd nunchuk;
#X floatatom 193 362 5 0 0 0 - - -;
#X obj 124 363 tgl 15 0 empty empty empty 17 7 0 10 -262144 -1 -1 0
1;
#X obj 55 398 unpack f f f f f f f f f f f f;
#X floatatom 55 424 5 0 0 0 - - -;
#X floatatom 71 445 5 0 0 0 - - -;
#X floatatom 87 424 5 0 0 0 - - -;
#X floatatom 103 445 5 0 0 0 - - -;
#X floatatom 119 424 5 0 0 0 - - -;
#X floatatom 135 445 5 0 0 0 - - -;
#X floatatom 151 424 5 0 0 0 - - -;
#X floatatom 167 445 5 0 0 0 - - -;
#X floatatom 183 424 5 0 0 0 - - -;
#X floatatom 199 445 5 0 0 0 - - -;
#X floatatom 215 424 5 0 0 0 - - -;
#X floatatom 231 445 5 0 0 0 - - -;
#X text 240 631 angles are given in radians;
#X obj 55 235 darwiinremoteOSC.mmb 5600;
#X text 228 362 I don't think this works;
#X obj 55 311 route irdata connected batterylevel;
#X obj 25 12 cnv 15 400 35 empty empty darwiinremoteOSC.mmb 20 12 0
14 -4160 -203904 0;
#X obj 25 48 cnv 15 400 85 empty empty empty 20 12 0 14 -203904 -66577
0;
#X text 978 710 .mmb;
#X text 45 48 This abstraction is basically a wrapper for DarwiinRemote
OSC. It takes the OSC messages and converts them to conventional Pd
messages. It also allows you to calibrate the accelerometers and Nunchuk
joystick. The accelerometer data itself is converted to (I think) more
reasonable ranges.;
#X text 478 75 [darwiinremoteOSC.mmb portnumber];
#X text 506 95 arg1 <required>: the portnumber specified in DarwiinRemote
OSC preferences.;
#X text 313 155 calibrate the accelerometers for the Wiimote;
#X text 358 178 calibrate the accelerometers for the Nunchuk;
#X text 399 204 calibrate the joystick for the Nunchuk;
#X text 642 165 [darwiinremoteOSC.mmb] will walk you through the calibrations
using a series of popup diaologs.;
#X connect 0 0 46 0;
#X connect 1 0 46 0;
#X connect 2 0 46 0;
#X connect 3 0 5 0;
#X connect 5 0 18 0;
#X connect 11 0 12 0;
#X connect 12 0 20 0;
#X connect 18 0 19 0;
#X connect 20 0 21 0;
#X connect 22 0 11 0;
#X connect 22 1 3 0;
#X connect 22 2 27 0;
#X connect 22 3 25 0;
#X connect 32 0 33 0;
#X connect 32 1 34 0;
#X connect 32 2 35 0;
#X connect 32 3 36 0;
#X connect 32 4 37 0;
#X connect 32 5 38 0;
#X connect 32 6 39 0;
#X connect 32 7 40 0;
#X connect 32 8 41 0;
#X connect 32 9 42 0;
#X connect 32 10 43 0;
#X connect 32 11 44 0;
#X connect 46 0 29 0;
#X connect 46 0 48 0;
#X connect 48 0 32 0;
#X connect 48 1 31 0;
#X connect 48 2 30 0;
#X connect 48 3 22 0;
