#N canvas 621 64 819 665 10;
#X text 403 402 DC offset filter;
#X obj 115 46 inlet~;
#N canvas 0 22 524 502 ma1 0;
#X obj 87 39 inlet~;
#N canvas 0 22 450 300 delwrite 0;
#X obj 130 62 inlet~;
#X obj 135 187 outlet~;
#X obj 155 118 delwrite~ \$0-ma1 100;
#X connect 0 0 2 0;
#X restore 126 154 pd delwrite;
#X obj 247 39 inlet;
#N canvas 0 22 450 300 delread 0;
#X obj 115 73 inlet~;
#X obj 205 73 inlet;
#X obj 132 140 delread~ \$0-ma1;
#X obj 129 192 outlet~;
#X connect 1 0 2 0;
#X connect 2 0 3 0;
#X restore 126 196 pd delread;
#X obj 87 241 -~;
#X obj 87 280 rpole~ 1;
#X obj 87 352 /~ 32;
#X obj 114 320 r \$0-ma.size;
#X obj 87 394 outlet~;
#X msg 245 231 clear;
#X obj 245 200 r \$0-clear.filters;
#X connect 0 0 1 0;
#X connect 0 0 4 0;
#X connect 1 0 3 0;
#X connect 2 0 3 1;
#X connect 3 0 4 1;
#X connect 4 0 5 0;
#X connect 5 0 6 0;
#X connect 6 0 8 0;
#X connect 7 0 6 1;
#X connect 9 0 5 0;
#X connect 10 0 9 0;
#X restore 115 275 pd ma1;
#X obj 318 163 samplerate~;
#X obj 318 190 * 0.001;
#X obj 245 228 / 44.1;
#X obj 322 251 s \$0-ma.size;
#N canvas 0 22 456 410 ma2 0;
#X obj 87 39 inlet~;
#N canvas 0 22 450 300 delwrite 0;
#X obj 130 62 inlet~;
#X obj 135 187 outlet~;
#X obj 155 118 delwrite~ \$0-ma2 50;
#X connect 0 0 2 0;
#X restore 126 94 pd delwrite;
#X obj 247 39 inlet;
#N canvas 0 22 450 300 delread 0;
#X obj 115 73 inlet~;
#X obj 205 73 inlet;
#X obj 129 192 outlet~;
#X obj 132 140 delread~ \$0-ma2;
#X connect 1 0 3 0;
#X connect 3 0 2 0;
#X restore 126 136 pd delread;
#X obj 87 181 -~;
#X obj 87 220 rpole~ 1;
#X obj 87 292 /~ 32;
#X obj 114 260 r \$0-ma.size;
#X obj 87 334 outlet~;
#X msg 255 181 clear;
#X obj 255 150 r \$0-clear.filters;
#X connect 0 0 1 0;
#X connect 0 0 4 0;
#X connect 1 0 3 0;
#X connect 2 0 3 1;
#X connect 3 0 4 1;
#X connect 4 0 5 0;
#X connect 5 0 6 0;
#X connect 6 0 8 0;
#X connect 7 0 6 1;
#X connect 9 0 5 0;
#X connect 10 0 9 0;
#X restore 115 305 pd ma2;
#N canvas 0 22 456 410 ma4 0;
#X obj 87 39 inlet~;
#N canvas 0 22 450 300 delwrite 0;
#X obj 130 62 inlet~;
#X obj 135 187 outlet~;
#X obj 155 118 delwrite~ \$0-ma4 50;
#X connect 0 0 2 0;
#X restore 126 94 pd delwrite;
#X obj 247 39 inlet;
#N canvas 0 22 450 300 delread 0;
#X obj 115 73 inlet~;
#X obj 205 73 inlet;
#X obj 129 192 outlet~;
#X obj 132 140 delread~ \$0-ma4;
#X connect 1 0 3 0;
#X connect 3 0 2 0;
#X restore 126 136 pd delread;
#X obj 87 181 -~;
#X obj 87 220 rpole~ 1;
#X obj 87 292 /~ 32;
#X obj 114 260 r \$0-ma.size;
#X obj 87 334 outlet~;
#X msg 255 181 clear;
#X obj 255 150 r \$0-clear.filters;
#X connect 0 0 1 0;
#X connect 0 0 4 0;
#X connect 1 0 3 0;
#X connect 2 0 3 1;
#X connect 3 0 4 1;
#X connect 4 0 5 0;
#X connect 5 0 6 0;
#X connect 6 0 8 0;
#X connect 7 0 6 1;
#X connect 9 0 5 0;
#X connect 10 0 9 0;
#X restore 115 365 pd ma4;
#N canvas 0 22 456 410 ma3 0;
#X obj 87 39 inlet~;
#N canvas 0 22 450 300 delwrite 0;
#X obj 130 62 inlet~;
#X obj 135 187 outlet~;
#X obj 155 118 delwrite~ \$0-ma3 50;
#X connect 0 0 2 0;
#X restore 126 94 pd delwrite;
#X obj 247 39 inlet;
#N canvas 0 22 450 300 delread 0;
#X obj 115 73 inlet~;
#X obj 205 73 inlet;
#X obj 129 192 outlet~;
#X obj 132 140 delread~ \$0-ma3;
#X connect 1 0 3 0;
#X connect 3 0 2 0;
#X restore 126 136 pd delread;
#X obj 87 181 -~;
#X obj 87 220 rpole~ 1;
#X obj 87 292 /~ 32;
#X obj 114 260 r \$0-ma.size;
#X obj 87 334 outlet~;
#X msg 255 181 clear;
#X obj 255 150 r \$0-clear.filters;
#X connect 0 0 1 0;
#X connect 0 0 4 0;
#X connect 1 0 3 0;
#X connect 2 0 3 1;
#X connect 3 0 4 1;
#X connect 4 0 5 0;
#X connect 5 0 6 0;
#X connect 6 0 8 0;
#X connect 7 0 6 1;
#X connect 9 0 5 0;
#X connect 10 0 9 0;
#X restore 115 335 pd ma3;
#N canvas 0 22 702 442 sum 0;
#X obj 288 56 inlet~;
#X obj 158 90 r \$0-ma.size;
#X obj 158 184 / 44.1;
#X obj 191 154 r \$0-samps.per.ms;
#X obj 158 223 delread~ \$0-ma1;
#X text 18 136 group delay is 2D-2;
#X obj 162 292 -~;
#X obj 162 332 outlet~;
#X obj 158 121 * 2;
#X obj 158 154 - 2;
#X floatatom 93 197 5 0 0 0 - - -;
#X floatatom 100 118 5 0 0 0 - - -;
#X floatatom 93 268 5 0 0 0 - - -;
#X connect 0 0 6 1;
#X connect 1 0 8 0;
#X connect 1 0 11 0;
#X connect 2 0 4 0;
#X connect 2 0 12 0;
#X connect 3 0 2 1;
#X connect 4 0 6 0;
#X connect 6 0 7 0;
#X connect 8 0 9 0;
#X connect 9 0 2 0;
#X connect 9 0 10 0;
#X restore 115 400 pd sum;
#X obj 331 220 s \$0-samps.per.ms;
#X obj 258 88 t b b;
#X obj 255 36 loadbang;
#X msg 274 63 bang;
#X obj 115 431 outlet~;
#N canvas 261 22 567 561 arguments 0;
#X obj 94 133 sel 0;
#X obj 94 106 f \$1;
#X obj 94 55 inlet;
#X msg 94 157 256;
#X obj 94 383 + 0.5;
#X obj 94 409 i;
#X obj 94 473 outlet;
#X obj 94 305 + 2;
#X obj 94 333 / 2;
#X floatatom 141 444 5 0 0 0 - - -;
#X obj 183 152 samplerate~;
#X obj 183 177 * 0.1;
#X obj 94 77 t b b;
#X obj 180 203 - 2;
#X obj 94 269 clip 4 4408;
#X floatatom 206 239 5 0 0 0 - - -;
#X floatatom 149 310 5 0 0 0 - - -;
#X connect 0 0 3 0;
#X connect 0 1 14 0;
#X connect 1 0 0 0;
#X connect 2 0 12 0;
#X connect 3 0 14 0;
#X connect 4 0 5 0;
#X connect 5 0 6 0;
#X connect 5 0 9 0;
#X connect 7 0 8 0;
#X connect 8 0 4 0;
#X connect 10 0 11 0;
#X connect 11 0 13 0;
#X connect 12 0 1 0;
#X connect 12 1 10 0;
#X connect 13 0 14 2;
#X connect 13 0 15 0;
#X connect 14 0 7 0;
#X connect 14 0 16 0;
#X restore 234 157 pd arguments;
#X text 447 417 .mmb;
#X obj 445 46 inlet;
#X obj 445 77 route clear;
#N canvas 0 22 602 489 clear.delays 0;
#X obj 127 44 inlet~;
#X obj 127 183 *~;
#X obj 174 148 vline~;
#X msg 174 121 1;
#X obj 174 89 loadbang;
#X obj 127 260 outlet~;
#X obj 289 81 r \$0-clear.delays;
#X connect 0 0 1 0;
#X connect 1 0 5 0;
#X connect 2 0 1 1;
#X connect 3 0 2 0;
#X connect 4 0 3 0;
#X connect 6 0 2 0;
#X restore 115 181 pd clear.delays;
#N canvas 718 22 450 300 clear 0;
#X obj 110 38 inlet;
#X obj 224 187 s \$0-clear.delays;
#X msg 224 121 0;
#X obj 67 90 delay 251;
#X obj 78 188 s \$0-clear.filters;
#X obj 113 118 delay 1;
#X msg 131 144 1;
#X connect 0 0 2 0;
#X connect 0 0 3 0;
#X connect 2 0 1 0;
#X connect 3 0 4 0;
#X connect 3 0 5 0;
#X connect 5 0 6 0;
#X connect 6 0 1 0;
#X restore 454 112 pd clear;
#X connect 1 0 20 0;
#X connect 2 0 7 0;
#X connect 3 0 4 0;
#X connect 4 0 5 1;
#X connect 4 0 11 0;
#X connect 5 0 2 1;
#X connect 5 0 7 1;
#X connect 5 0 9 1;
#X connect 5 0 8 1;
#X connect 7 0 9 0;
#X connect 8 0 10 0;
#X connect 9 0 8 0;
#X connect 10 0 15 0;
#X connect 12 0 16 0;
#X connect 12 1 3 0;
#X connect 13 0 12 0;
#X connect 14 0 12 0;
#X connect 16 0 5 0;
#X connect 16 0 6 0;
#X connect 18 0 19 0;
#X connect 19 0 21 0;
#X connect 20 0 2 0;
