#N canvas 282 22 945 598 10;
#X obj 25 12 cnv 15 400 35 empty empty distortion.mmb~ 20 12 0 14 -4160
-203904 0;
#X obj 25 48 cnv 15 400 40 empty empty empty 20 12 0 14 -203904 -66577
0;
#X text 767 509 .mmb;
#X text 487 69 no arguments;
#X msg 446 352 gain \$1;
#X text 498 352 output gain in raw amplitude. (default: 1);
#X floatatom 446 330 5 0 0 0 - - -;
#X floatatom 462 380 5 0 0 0 - - -;
#X msg 462 406 interp \$1;
#X text 529 405 interpolation time in ms when parameters are updated.
(default: 10);
#X floatatom 405 211 5 0 0 0 - - -;
#X msg 405 237 tone \$1;
#X floatatom 382 152 5 0 0 0 - - -;
#X msg 382 178 distortion \$1;
#X text 471 178 distortion amount \, range of 0-100. (default: 0);
#X text 468 49 [distortion.mmb~];
#X obj 209 523 dac~;
#X obj 200 342 readsf~;
#X text 187 166 ...or load in a soundfile;
#X obj 200 212 openpanel;
#X obj 200 186 bng 15 250 50 0 empty empty empty 17 7 0 10 -262144
-1 -1;
#X text 45 48 Distortion based on the Boss DS-1 pedal.;
#X obj 446 306 dbtorms;
#X floatatom 446 263 5 0 0 0 - - -;
#X obj 446 284 + 100;
#N canvas 386 22 942 656 I.am.Ironman 0;
#N canvas 390 22 687 391 stupidstring 0;
#X obj 175 230 *~ 0.2;
#N canvas 0 22 1005 565 ks1 0;
#X obj 579 78 block~ 1;
#X obj 260 406 delwrite~ \$0-string 100;
#X obj 320 283 vd~ \$0-string;
#X obj 170 43 inlet;
#X obj 222 248 noise~;
#X obj 158 275 vline~;
#X obj 207 303 *~;
#X obj 325 455 outlet~;
#X obj 318 312 rzero~ -1;
#X obj 316 340 *~ 0.5;
#X obj 230 99 mtof;
#X obj 245 138 expr 1/$f1*1000;
#X obj 241 163 t f f;
#X floatatom 303 201 5 0 0 0 - - -;
#X floatatom 258 69 5 0 0 0 - - -;
#X msg 158 247 1 \, 0 13;
#X connect 2 0 8 0;
#X connect 3 0 10 0;
#X connect 4 0 6 1;
#X connect 5 0 6 0;
#X connect 6 0 1 0;
#X connect 8 0 9 0;
#X connect 9 0 7 0;
#X connect 9 0 1 0;
#X connect 10 0 11 0;
#X connect 11 0 12 0;
#X connect 12 0 15 0;
#X connect 12 1 2 0;
#X connect 12 1 13 0;
#X connect 14 0 10 0;
#X connect 15 0 5 0;
#X restore 112 159 pd ks1;
#X obj 175 298 outlet~;
#X obj 151 76 inlet;
#N canvas 0 22 1005 565 ks2 0;
#X obj 579 78 block~ 1;
#X obj 170 43 inlet;
#X obj 222 248 noise~;
#X obj 158 275 vline~;
#X obj 207 303 *~;
#X obj 325 455 outlet~;
#X obj 318 312 rzero~ -1;
#X obj 316 340 *~ 0.5;
#X obj 230 99 mtof;
#X obj 245 138 expr 1/$f1*1000;
#X obj 241 163 t f f;
#X obj 320 283 vd~ \$0-string2;
#X obj 260 406 delwrite~ \$0-string2 100;
#X msg 158 247 1 \, 0 13;
#X connect 1 0 8 0;
#X connect 2 0 4 1;
#X connect 3 0 4 0;
#X connect 4 0 12 0;
#X connect 6 0 7 0;
#X connect 7 0 5 0;
#X connect 7 0 12 0;
#X connect 8 0 9 0;
#X connect 9 0 10 0;
#X connect 10 0 13 0;
#X connect 10 1 11 0;
#X connect 11 0 6 0;
#X connect 13 0 3 0;
#X restore 212 159 pd ks2;
#X obj 218 130 + 0.03;
#X text 275 163 two karplus-strong synths \, one detuned to simulate
string beating;
#X connect 0 0 2 0;
#X connect 1 0 0 0;
#X connect 3 0 1 0;
#X connect 3 0 5 0;
#X connect 4 0 0 0;
#X connect 5 0 4 0;
#X restore 224 370 pd stupidstring;
#N canvas 390 22 687 391 stupidstring 0;
#X obj 175 230 *~ 0.2;
#N canvas 0 22 1005 565 ks1 0;
#X obj 579 78 block~ 1;
#X obj 170 43 inlet;
#X obj 222 248 noise~;
#X obj 158 275 vline~;
#X obj 207 303 *~;
#X obj 325 455 outlet~;
#X obj 318 312 rzero~ -1;
#X obj 316 340 *~ 0.5;
#X obj 230 99 mtof;
#X obj 245 138 expr 1/$f1*1000;
#X obj 241 163 t f f;
#X floatatom 303 201 5 0 0 0 - - -;
#X floatatom 258 69 5 0 0 0 - - -;
#X msg 158 247 1 \, 0 13;
#X obj 320 283 vd~ \$0-string3;
#X obj 260 406 delwrite~ \$0-string3 100;
#X connect 1 0 8 0;
#X connect 2 0 4 1;
#X connect 3 0 4 0;
#X connect 4 0 15 0;
#X connect 6 0 7 0;
#X connect 7 0 5 0;
#X connect 7 0 15 0;
#X connect 8 0 9 0;
#X connect 9 0 10 0;
#X connect 10 0 13 0;
#X connect 10 1 11 0;
#X connect 10 1 14 0;
#X connect 12 0 8 0;
#X connect 13 0 3 0;
#X connect 14 0 6 0;
#X restore 112 159 pd ks1;
#X obj 175 298 outlet~;
#X obj 151 76 inlet;
#N canvas 0 22 1005 565 ks2 0;
#X obj 579 78 block~ 1;
#X obj 170 43 inlet;
#X obj 222 248 noise~;
#X obj 158 275 vline~;
#X obj 207 303 *~;
#X obj 325 455 outlet~;
#X obj 318 312 rzero~ -1;
#X obj 316 340 *~ 0.5;
#X obj 230 99 mtof;
#X obj 245 138 expr 1/$f1*1000;
#X obj 241 163 t f f;
#X msg 158 247 1 \, 0 13;
#X obj 320 283 vd~ \$0-string4;
#X obj 260 406 delwrite~ \$0-string4 100;
#X connect 1 0 8 0;
#X connect 2 0 4 1;
#X connect 3 0 4 0;
#X connect 4 0 13 0;
#X connect 6 0 7 0;
#X connect 7 0 5 0;
#X connect 7 0 13 0;
#X connect 8 0 9 0;
#X connect 9 0 10 0;
#X connect 10 0 11 0;
#X connect 10 1 12 0;
#X connect 11 0 3 0;
#X connect 12 0 6 0;
#X restore 212 159 pd ks2;
#X obj 218 130 + 0.03;
#X text 275 163 two karplus-strong synths \, one detuned to simulate
string beating;
#X connect 0 0 2 0;
#X connect 1 0 0 0;
#X connect 3 0 1 0;
#X connect 3 0 5 0;
#X connect 4 0 0 0;
#X connect 5 0 4 0;
#X restore 364 370 pd stupidstring;
#X obj 188 211 qlist;
#X obj 224 439 *~ 1;
#X msg 224 124 rewind \, bang;
#X obj 301 419 noise~;
#X text 365 443 electric guitars are noisy;
#X obj 301 443 *~ 0.0003;
#X obj 262 253 r pitches;
#X obj 262 281 unpack f f;
#X obj 136 27 inlet;
#X obj 136 52 sel 0 1;
#X msg 132 162 rewind;
#X msg 316 54 clear \, add 0 pitches 45 52 \, add 1000 pitches 48 55
\, add 1000 pitches 48 55 \, add 500 pitches 50 57 \, add 500 pitches
50 57 \, add 1000 pitches 53 60 \, add 250 pitches 52 59 \, add 250
pitches 53 60 \, add 250 pitches 52 59 \, add 250 pitches 53 60 \,
add 250 pitches 52 59 \, add 250 pitches 48 55 \, add 500 pitches 48
55 \, add 500 pitches 50 57 \, add 500 pitches 50 57 \, add 1000 \,
tempo 1.07;
#X obj 316 29 loadbang;
#X obj 224 471 +~;
#X obj 204 502 *~;
#X obj 212 539 outlet~;
#X msg 75 308 0 100;
#X obj 75 334 vline~;
#X obj 130 136 delay 100;
#X obj 190 74 t b b;
#X msg 139 112 stop;
#X msg 129 309 1 1;
#X obj 364 327 - 0.02;
#X connect 0 0 3 0;
#X connect 1 0 3 0;
#X connect 2 1 4 0;
#X connect 3 0 15 0;
#X connect 4 0 2 0;
#X connect 5 0 7 0;
#X connect 7 0 15 1;
#X connect 8 0 9 0;
#X connect 9 0 0 0;
#X connect 9 1 24 0;
#X connect 10 0 11 0;
#X connect 11 0 20 0;
#X connect 11 0 18 0;
#X connect 11 1 21 0;
#X connect 12 0 2 0;
#X connect 13 0 2 0;
#X connect 14 0 13 0;
#X connect 15 0 16 1;
#X connect 16 0 17 0;
#X connect 18 0 19 0;
#X connect 19 0 16 0;
#X connect 20 0 12 0;
#X connect 21 0 4 0;
#X connect 21 0 23 0;
#X connect 21 1 22 0;
#X connect 22 0 20 0;
#X connect 23 0 19 0;
#X connect 24 0 1 0;
#X restore 63 175 pd I.am.Ironman;
#X obj 309 520 env~;
#X floatatom 309 544 5 0 0 0 - - -;
#X obj 63 140 tgl 15 0 empty empty empty 17 7 0 10 -262144 -1 -1 0
1;
#X text 90 137 play string synth...;
#X obj 200 254 symbol;
#X msg 200 283 open \$1 \, 1;
#X msg 152 285 stop;
#X msg 150 226 bang;
#X text 457 237 tone control \, range of 0-100. (default: 30);
#X obj 211 467 distortion.mmb~;
#X connect 4 0 35 1;
#X connect 6 0 4 0;
#X connect 7 0 8 0;
#X connect 8 0 35 1;
#X connect 10 0 11 0;
#X connect 11 0 35 1;
#X connect 12 0 13 0;
#X connect 13 0 35 1;
#X connect 17 0 35 0;
#X connect 17 1 30 0;
#X connect 19 0 30 0;
#X connect 20 0 19 0;
#X connect 22 0 6 0;
#X connect 23 0 24 0;
#X connect 24 0 22 0;
#X connect 25 0 35 0;
#X connect 26 0 27 0;
#X connect 28 0 25 0;
#X connect 30 0 31 0;
#X connect 31 0 17 0;
#X connect 32 0 17 0;
#X connect 33 0 30 0;
#X connect 35 0 16 0;
#X connect 35 0 16 1;
#X connect 35 0 26 0;
