#N canvas 0 22 952 543 10;
#X obj 25 12 cnv 15 400 35 empty empty env.mmb~ 20 12 0 14 -4160 -203904
0;
#X obj 25 48 cnv 15 400 70 empty empty empty 20 12 0 14 -203904 -66577
0;
#X obj 210 144 noise~;
#X floatatom 210 270 5 0 0 0 - - -;
#X floatatom 309 268 5 0 0 0 - - -;
#X text 182 270 rms;
#X text 344 268 peak;
#X obj 210 301 rmstodb;
#X obj 309 299 rmstodb;
#X obj 210 326 - 100;
#X obj 309 324 - 100;
#X obj 261 377 vu 15 120 empty empty -1 -8 0 10 -66577 -1 1 0;
#X text 45 48 This basically combines [env~] and [peakenv~] into one
object \, making it easier for use with things like [vu].;
#X floatatom 337 138 5 0 0 0 - - -;
#X msg 337 161 interval \$1;
#X floatatom 374 194 5 0 0 0 - - -;
#X msg 374 214 peakdecay \$1;
#X obj 210 238 env.mmb~ 150 1000;
#X text 487 35 [env.mmb~ interval peakdecay];
#X text 506 53 arg1 <optional>: amount of time in ms between consecutive
output values. (default: 150);
#X text 507 84 arg2 <optional>: amount of time for the peak level to
decay to 0 (default: 0);
#X text 372 138 amount of time in ms to output new values (default:
150);
#X text 410 193 amount of time for the peak level to decay to 0 (default:
0);
#X text 715 444 .mmb;
#N canvas 506 22 679 372 randamp 0;
#X obj 106 38 inlet~;
#X obj 173 97 noise~;
#X obj 174 140 samphold~;
#X obj 239 97 phasor~ 5;
#X obj 121 181 *~;
#X obj 117 224 outlet~;
#X connect 0 0 4 0;
#X connect 1 0 2 0;
#X connect 2 0 4 1;
#X connect 3 0 2 1;
#X connect 4 0 5 0;
#X restore 210 188 pd randamp;
#X connect 2 0 24 0;
#X connect 3 0 7 0;
#X connect 4 0 8 0;
#X connect 7 0 9 0;
#X connect 8 0 10 0;
#X connect 9 0 11 0;
#X connect 10 0 11 1;
#X connect 13 0 14 0;
#X connect 14 0 17 1;
#X connect 15 0 16 0;
#X connect 16 0 17 1;
#X connect 17 0 3 0;
#X connect 17 1 4 0;
#X connect 24 0 17 0;
