#N canvas 574 22 754 538 10;
#X obj 122 101 inlet~;
#X obj 96 389 f;
#X obj 405 20 loadbang;
#X obj 263 179 r pd;
#X obj 263 200 route dsp;
#X obj 219 339 t b b;
#X text 386 449 .mmb;
#X obj 96 492 outlet;
#X obj 188 492 outlet;
#X obj 442 101 inlet;
#X obj 442 222 route interval peakdecay;
#X obj 505 138 sel 0;
#X msg 483 183 interval \$1;
#X msg 563 183 peakdecay \$1;
#X obj 405 47 t b b;
#X obj 188 389 peakamp~;
#X obj 111 291 env~ 1024;
#X obj 96 439 dbtorms;
#X obj 509 68 list append \$1 \$2;
#X obj 304 294 metro 150;
#X obj 509 90 unpack f f;
#X obj 505 117 max 0;
#X obj 585 117 max 0;
#X obj 188 292 peakenv~ 0;
#X connect 0 0 16 0;
#X connect 0 0 23 0;
#X connect 1 0 17 0;
#X connect 2 0 14 0;
#X connect 3 0 4 0;
#X connect 4 0 19 0;
#X connect 5 0 1 0;
#X connect 5 1 15 0;
#X connect 9 0 10 0;
#X connect 10 0 19 1;
#X connect 10 1 23 1;
#X connect 11 1 12 0;
#X connect 12 0 10 0;
#X connect 13 0 10 0;
#X connect 14 0 19 0;
#X connect 14 1 18 0;
#X connect 15 0 8 0;
#X connect 16 0 1 1;
#X connect 17 0 7 0;
#X connect 18 0 20 0;
#X connect 19 0 5 0;
#X connect 20 0 21 0;
#X connect 20 1 22 0;
#X connect 21 0 11 0;
#X connect 22 0 13 0;
#X connect 23 0 15 0;
