#N canvas 547 22 849 557 10;
#X obj 106 81 inlet~ frequency;
#X obj 210 81 inlet~ Q/BW/slope;
#X obj 320 81 inlet~ gain;
#N canvas 588 88 883 540 lowpass 0;
#X obj 88 68 inlet~;
#X obj 88 384 outlet~;
#X obj 157 69 receive~ \$0-frequency;
#X obj 528 74 receive~ \$0-q;
#X obj 676 141 switch~;
#X obj 676 71 r \$0-filter.type;
#X obj 676 104 == 0;
#X obj 90 218 /~ 2;
#X obj 399 166 expr~ sin($v1)/(2*$v2);
#X text 538 166 alpha;
#X obj 399 224 +~ 1;
#X obj 479 230 sig~ 1;
#X obj 479 256 -~;
#X obj 324 255 *~ -2;
#X obj 157 119 expr~ cos($v1);
#X obj 142 159 sig~ 1;
#X obj 142 185 -~;
#X obj 90 247 throw~ \$0-b0;
#X obj 175 247 throw~ \$0-b1;
#X obj 113 273 throw~ \$0-b2;
#X obj 324 278 throw~ \$0-a1;
#X obj 399 250 throw~ \$0-a0;
#X obj 479 283 throw~ \$0-a2;
#X obj 528 110 max~ 0.01;
#X connect 2 0 8 0;
#X connect 2 0 14 0;
#X connect 3 0 23 0;
#X connect 5 0 6 0;
#X connect 6 0 4 0;
#X connect 7 0 17 0;
#X connect 7 0 19 0;
#X connect 8 0 10 0;
#X connect 8 0 12 1;
#X connect 10 0 21 0;
#X connect 11 0 12 0;
#X connect 12 0 22 0;
#X connect 13 0 20 0;
#X connect 14 0 16 1;
#X connect 14 0 13 0;
#X connect 15 0 16 0;
#X connect 16 0 7 0;
#X connect 16 0 18 0;
#X connect 23 0 8 1;
#X restore 111 173 pd lowpass;
#X obj 590 81 inlet;
#N canvas 0 22 667 569 messages 0;
#X obj 97 63 inlet;
#X msg 96 314 0;
#X msg 130 315 1;
#X msg 165 315 2;
#X msg 202 314 3;
#X msg 238 315 4;
#X msg 275 315 5;
#X msg 313 316 6;
#X msg 353 315 7;
#X msg 389 316 8;
#X obj 180 390 s \$0-filter.type;
#X obj 211 57 loadbang;
#X msg 200 204 lowpass;
#X obj 257 104 samplerate~;
#X obj 257 127 s \$0-sample.rate;
#X obj 97 260 route lowpass highpass resonant bandpass notch peaking
lowshelf highshelf allpass;
#X obj 122 108 list append \$1;
#X msg 122 151 \$1;
#X obj 210 81 t b b b;
#X connect 0 0 15 0;
#X connect 1 0 10 0;
#X connect 2 0 10 0;
#X connect 3 0 10 0;
#X connect 4 0 10 0;
#X connect 5 0 10 0;
#X connect 6 0 10 0;
#X connect 7 0 10 0;
#X connect 8 0 10 0;
#X connect 9 0 10 0;
#X connect 11 0 18 0;
#X connect 12 0 15 0;
#X connect 13 0 14 0;
#X connect 15 0 1 0;
#X connect 15 1 2 0;
#X connect 15 2 3 0;
#X connect 15 3 4 0;
#X connect 15 4 5 0;
#X connect 15 5 6 0;
#X connect 15 6 7 0;
#X connect 15 7 8 0;
#X connect 15 8 9 0;
#X connect 16 0 17 0;
#X connect 17 0 15 0;
#X connect 18 0 16 0;
#X connect 18 1 12 0;
#X connect 18 2 13 0;
#X restore 590 116 pd messages;
#X text 442 23 based on The Audio EQ Cookbook by Robert Bristow-Johnson
;
#N canvas 0 22 749 338 unpack.coeff 0;
#X obj 58 58 inlet~;
#X obj 92 231 /~;
#X obj 522 102 catch~ \$0-a0;
#X obj 92 279 outlet~;
#X obj 172 231 /~;
#X obj 172 279 outlet~;
#X obj 252 102 catch~ \$0-b0;
#X obj 252 231 /~;
#X obj 252 279 outlet~;
#X obj 332 231 /~;
#X obj 332 279 outlet~;
#X obj 412 231 /~;
#X obj 412 279 outlet~;
#X obj 92 102 catch~ \$0-a1;
#X obj 172 102 catch~ \$0-a2;
#X obj 332 102 catch~ \$0-b1;
#X obj 412 102 catch~ \$0-b2;
#X obj 92 165 *~ -1;
#X obj 172 166 *~ -1;
#X connect 1 0 3 0;
#X connect 2 0 1 1;
#X connect 2 0 4 1;
#X connect 2 0 7 1;
#X connect 2 0 9 1;
#X connect 2 0 11 1;
#X connect 4 0 5 0;
#X connect 6 0 7 0;
#X connect 7 0 8 0;
#X connect 9 0 10 0;
#X connect 11 0 12 0;
#X connect 13 0 17 0;
#X connect 14 0 18 0;
#X connect 15 0 9 0;
#X connect 16 0 11 0;
#X connect 17 0 1 0;
#X connect 18 0 4 0;
#X restore 111 473 pd unpack.coeff;
#N canvas 743 89 561 411 pack.input 0;
#X obj 88 67 inlet~;
#X obj 178 67 inlet~;
#X obj 278 67 inlet~;
#X obj 178 221 send~ \$0-q;
#X obj 88 194 send~ \$0-frequency;
#X obj 278 246 send~ \$0-gain;
#X obj 151 306 outlet~;
#X text 196 278 a little order forcing for patching cleanliness;
#X obj 214 104 r \$0-sample.rate;
#X obj 88 134 expr~ 6.28319*$v1/$f2;
#X text 226 135 radian frequency;
#X connect 0 0 9 0;
#X connect 1 0 3 0;
#X connect 2 0 5 0;
#X connect 8 0 9 1;
#X connect 9 0 4 0;
#X restore 111 143 pd pack.input;
#X obj 111 513 outlet~ a1;
#X obj 181 513 outlet~ a2;
#X obj 251 513 outlet~ b0;
#X obj 321 513 outlet~ b1;
#X obj 391 513 outlet~ b2;
#N canvas 651 23 883 540 highpass 0;
#X obj 88 68 inlet~;
#X obj 88 384 outlet~;
#X obj 157 69 receive~ \$0-frequency;
#X obj 528 74 receive~ \$0-q;
#X obj 676 141 switch~;
#X obj 676 71 r \$0-filter.type;
#X obj 90 218 /~ 2;
#X obj 399 166 expr~ sin($v1)/(2*$v2);
#X text 538 166 alpha;
#X obj 399 224 +~ 1;
#X obj 479 230 sig~ 1;
#X obj 479 256 -~;
#X obj 324 255 *~ -2;
#X obj 157 119 expr~ cos($v1);
#X obj 90 247 throw~ \$0-b0;
#X obj 175 247 throw~ \$0-b1;
#X obj 113 273 throw~ \$0-b2;
#X obj 324 278 throw~ \$0-a1;
#X obj 399 250 throw~ \$0-a0;
#X obj 479 283 throw~ \$0-a2;
#X obj 528 110 max~ 0.01;
#X obj 142 184 +~ 1;
#X obj 175 216 *~ -1;
#X obj 676 103 == 1;
#X connect 2 0 7 0;
#X connect 2 0 13 0;
#X connect 3 0 20 0;
#X connect 5 0 23 0;
#X connect 6 0 14 0;
#X connect 6 0 16 0;
#X connect 7 0 9 0;
#X connect 7 0 11 1;
#X connect 9 0 18 0;
#X connect 10 0 11 0;
#X connect 11 0 19 0;
#X connect 12 0 17 0;
#X connect 13 0 12 0;
#X connect 13 0 21 0;
#X connect 20 0 7 1;
#X connect 21 0 6 0;
#X connect 21 0 22 0;
#X connect 22 0 15 0;
#X connect 23 0 4 0;
#X restore 111 203 pd highpass;
#N canvas 557 156 883 540 notch 0;
#X obj 88 68 inlet~;
#X obj 88 384 outlet~;
#X obj 157 69 receive~ \$0-frequency;
#X obj 528 74 receive~ \$0-q;
#X obj 676 141 switch~;
#X obj 676 71 r \$0-filter.type;
#X text 626 167 alpha;
#X obj 399 224 +~ 1;
#X obj 479 230 sig~ 1;
#X obj 479 256 -~;
#X obj 90 247 throw~ \$0-b0;
#X obj 197 290 throw~ \$0-b1;
#X obj 113 303 throw~ \$0-b2;
#X obj 314 298 throw~ \$0-a1;
#X obj 399 250 throw~ \$0-a0;
#X obj 479 283 throw~ \$0-a2;
#X obj 528 110 max~ 0.01;
#X obj 399 120 expr~ sin($v1);
#X obj 242 218 expr~ -2*cos($v1);
#X text 556 49 q = bandwidth;
#X obj 399 166 expr~ $v1*sinh(log(2)/2*$v3*$v2/$v1);
#X obj 676 103 == 4;
#X obj 90 214 sig~ 1;
#X connect 2 0 17 0;
#X connect 2 0 18 0;
#X connect 2 0 20 1;
#X connect 3 0 16 0;
#X connect 5 0 21 0;
#X connect 7 0 14 0;
#X connect 8 0 9 0;
#X connect 9 0 15 0;
#X connect 16 0 20 2;
#X connect 17 0 20 0;
#X connect 18 0 13 0;
#X connect 18 0 11 0;
#X connect 20 0 7 0;
#X connect 20 0 9 1;
#X connect 21 0 4 0;
#X connect 22 0 10 0;
#X connect 22 0 12 0;
#X restore 111 293 pd notch;
#N canvas 318 129 924 502 peaking 0;
#X obj 88 68 inlet~;
#X obj 88 384 outlet~;
#X obj 157 69 receive~ \$0-frequency;
#X obj 528 74 receive~ \$0-q;
#X obj 781 142 switch~;
#X obj 781 72 r \$0-filter.type;
#X text 477 149 alpha;
#X obj 489 278 +~ 1;
#X obj 579 317 sig~ 1;
#X obj 579 343 -~;
#X obj 356 304 throw~ \$0-b0;
#X obj 124 258 throw~ \$0-b1;
#X obj 416 376 throw~ \$0-b2;
#X obj 241 266 throw~ \$0-a1;
#X obj 489 304 throw~ \$0-a0;
#X obj 579 370 throw~ \$0-a2;
#X obj 528 110 max~ 0.01;
#X obj 169 207 expr~ -2*cos($v1);
#X obj 416 328 sig~ 1;
#X obj 781 104 == 5;
#X obj 627 114 receive~ \$0-gain;
#X obj 399 166 expr~ sin($v1)/(2*$v2);
#X obj 627 141 expr~ pow(10 \, $v1/40);
#X obj 393 236 *~;
#X obj 521 243 /~;
#X obj 416 350 -~;
#X obj 357 277 +~ 1;
#X connect 2 0 17 0;
#X connect 2 0 21 0;
#X connect 3 0 16 0;
#X connect 5 0 19 0;
#X connect 7 0 14 0;
#X connect 8 0 9 0;
#X connect 9 0 15 0;
#X connect 16 0 21 1;
#X connect 17 0 13 0;
#X connect 17 0 11 0;
#X connect 18 0 25 0;
#X connect 19 0 4 0;
#X connect 20 0 22 0;
#X connect 21 0 23 0;
#X connect 21 0 24 0;
#X connect 22 0 23 1;
#X connect 22 0 24 1;
#X connect 23 0 25 1;
#X connect 23 0 26 0;
#X connect 24 0 9 1;
#X connect 24 0 7 0;
#X connect 25 0 12 0;
#X connect 26 0 10 0;
#X restore 111 323 pd peaking;
#N canvas 423 22 1001 501 highshelf 0;
#X obj 88 68 inlet~;
#X obj 88 384 outlet~;
#X obj 157 69 receive~ \$0-frequency;
#X obj 528 74 receive~ \$0-q;
#X obj 896 124 switch~;
#X obj 896 54 r \$0-filter.type;
#X text 315 153 alpha;
#X obj 202 311 throw~ \$0-b0;
#X obj 295 310 throw~ \$0-b1;
#X obj 393 312 throw~ \$0-b2;
#X obj 596 310 throw~ \$0-a1;
#X obj 489 304 throw~ \$0-a0;
#X obj 697 307 throw~ \$0-a2;
#X obj 627 114 receive~ \$0-gain;
#X obj 627 141 expr~ pow(10 \, $v1/40);
#X obj 896 86 == 7;
#X obj 169 165 expr~ cos($v1);
#X obj 286 169 expr~ sin($v1) * sqrt(($v3*$v3 + 1)*(1/$v2 - 1) + 2*$v3)
;
#X obj 186 233 expr~ $v3*(($v3+1) + ($v3-1)*$v1 + $v2) \; -2*$v3*(($v3-1)
+ ($v3+1)*$v1) \; $v3*(($v3+1) + ($v3-1)*$v1 - $v2);
#X obj 499 232 expr~ ($v3+1) - ($v3-1)*$v1 + $v2 \; 2*(($v3-1) - ($v3+1)*$v1)
\; ($v3+1) - ($v3-1)*$v1 - $v2 \;;
#X obj 528 110 clip~ 0.001 1;
#X connect 2 0 16 0;
#X connect 2 0 17 0;
#X connect 3 0 20 0;
#X connect 5 0 15 0;
#X connect 13 0 14 0;
#X connect 14 0 17 2;
#X connect 14 0 18 2;
#X connect 14 0 19 2;
#X connect 15 0 4 0;
#X connect 16 0 18 0;
#X connect 16 0 19 0;
#X connect 17 0 18 1;
#X connect 17 0 19 1;
#X connect 18 0 7 0;
#X connect 18 1 8 0;
#X connect 18 2 9 0;
#X connect 19 0 11 0;
#X connect 19 1 10 0;
#X connect 19 2 12 0;
#X connect 20 0 17 1;
#X restore 111 383 pd highshelf;
#N canvas 423 22 1001 501 lowshelf 0;
#X obj 88 68 inlet~;
#X obj 88 384 outlet~;
#X obj 157 69 receive~ \$0-frequency;
#X obj 528 74 receive~ \$0-q;
#X obj 896 124 switch~;
#X obj 896 54 r \$0-filter.type;
#X text 315 153 alpha;
#X obj 202 311 throw~ \$0-b0;
#X obj 295 310 throw~ \$0-b1;
#X obj 393 312 throw~ \$0-b2;
#X obj 596 310 throw~ \$0-a1;
#X obj 489 304 throw~ \$0-a0;
#X obj 697 307 throw~ \$0-a2;
#X obj 627 114 receive~ \$0-gain;
#X obj 627 141 expr~ pow(10 \, $v1/40);
#X obj 169 165 expr~ cos($v1);
#X obj 286 169 expr~ sin($v1) * sqrt(($v3*$v3 + 1)*(1/$v2 - 1) + 2*$v3)
;
#X obj 186 233 expr~ $v3*(($v3+1) - ($v3-1)*$v1 + $v2) \; 2*$v3*(($v3-1)
- ($v3+1)*$v1) \; $v3*(($v3+1) - ($v3-1)*$v1 - $v2);
#X obj 896 86 == 6;
#X obj 499 232 expr~ ($v3+1) + ($v3-1)*$v1 + $v2 \; -2*(($v3-1) + ($v3+1)*$v1)
\; ($v3+1) + ($v3-1)*$v1 - $v2 \;;
#X text 532 418 there's a bit of redundancy here;
#X obj 528 110 clip~ 0.001 1;
#X connect 2 0 15 0;
#X connect 2 0 16 0;
#X connect 3 0 21 0;
#X connect 5 0 18 0;
#X connect 13 0 14 0;
#X connect 14 0 16 2;
#X connect 14 0 17 2;
#X connect 14 0 19 2;
#X connect 15 0 17 0;
#X connect 15 0 19 0;
#X connect 16 0 17 1;
#X connect 16 0 19 1;
#X connect 17 0 7 0;
#X connect 17 1 8 0;
#X connect 17 2 9 0;
#X connect 18 0 4 0;
#X connect 19 0 11 0;
#X connect 19 1 10 0;
#X connect 19 2 12 0;
#X connect 21 0 16 1;
#X restore 111 353 pd lowshelf;
#N canvas 557 156 883 540 allpass 0;
#X obj 88 68 inlet~;
#X obj 88 384 outlet~;
#X obj 157 69 receive~ \$0-frequency;
#X obj 528 74 receive~ \$0-q;
#X obj 676 141 switch~;
#X obj 676 71 r \$0-filter.type;
#X text 626 167 alpha;
#X obj 399 224 +~ 1;
#X obj 479 230 sig~ 1;
#X obj 479 256 -~;
#X obj 453 314 throw~ \$0-b0;
#X obj 197 290 throw~ \$0-b1;
#X obj 358 283 throw~ \$0-b2;
#X obj 241 255 throw~ \$0-a1;
#X obj 399 250 throw~ \$0-a0;
#X obj 479 283 throw~ \$0-a2;
#X obj 528 110 max~ 0.01;
#X obj 399 120 expr~ sin($v1);
#X obj 242 218 expr~ -2*cos($v1);
#X text 556 49 q = bandwidth;
#X obj 399 166 expr~ $v1*sinh(log(2)/2*$v3*$v2/$v1);
#X obj 676 103 == 8;
#X connect 2 0 17 0;
#X connect 2 0 18 0;
#X connect 2 0 20 1;
#X connect 3 0 16 0;
#X connect 5 0 21 0;
#X connect 7 0 14 0;
#X connect 7 0 12 0;
#X connect 8 0 9 0;
#X connect 9 0 15 0;
#X connect 9 0 10 0;
#X connect 16 0 20 2;
#X connect 17 0 20 0;
#X connect 18 0 13 0;
#X connect 18 0 11 0;
#X connect 20 0 7 0;
#X connect 20 0 9 1;
#X connect 21 0 4 0;
#X restore 111 413 pd allpass;
#N canvas 22 45 883 540 resonant 0;
#X obj 88 68 inlet~;
#X obj 88 384 outlet~;
#X obj 157 69 receive~ \$0-frequency;
#X obj 528 74 receive~ \$0-q;
#X obj 676 141 switch~;
#X obj 676 71 r \$0-filter.type;
#X text 626 167 alpha;
#X obj 399 224 +~ 1;
#X obj 479 230 sig~ 1;
#X obj 479 256 -~;
#X obj 90 247 throw~ \$0-b0;
#X obj 175 247 throw~ \$0-b1;
#X obj 113 303 throw~ \$0-b2;
#X obj 314 298 throw~ \$0-a1;
#X obj 399 250 throw~ \$0-a0;
#X obj 479 283 throw~ \$0-a2;
#X obj 528 110 max~ 0.01;
#X obj 157 119 expr~ sin($v1);
#X obj 113 278 *~ -1;
#X obj 175 216 sig~ 0;
#X obj 314 275 expr~ -2*cos($v1);
#X text 556 49 q = bandwidth;
#X obj 676 104 == 2;
#X text 373 381 constant skirt gain \, peak gain = q;
#X obj 399 166 expr~ $v1/(2*$v2);
#X obj 90 218 *~;
#X connect 2 0 17 0;
#X connect 2 0 20 0;
#X connect 3 0 16 0;
#X connect 5 0 22 0;
#X connect 7 0 14 0;
#X connect 8 0 9 0;
#X connect 9 0 15 0;
#X connect 16 0 24 1;
#X connect 16 0 25 0;
#X connect 17 0 24 0;
#X connect 18 0 12 0;
#X connect 19 0 11 0;
#X connect 20 0 13 0;
#X connect 22 0 4 0;
#X connect 24 0 7 0;
#X connect 24 0 9 1;
#X connect 24 0 25 1;
#X connect 25 0 10 0;
#X connect 25 0 18 0;
#X restore 111 233 pd resonant;
#N canvas 0 40 883 540 bandpass 0;
#X obj 88 68 inlet~;
#X obj 88 384 outlet~;
#X obj 157 69 receive~ \$0-frequency;
#X obj 528 74 receive~ \$0-q;
#X obj 676 141 switch~;
#X obj 676 71 r \$0-filter.type;
#X text 626 167 alpha;
#X obj 399 224 +~ 1;
#X obj 479 230 sig~ 1;
#X obj 479 256 -~;
#X obj 90 247 throw~ \$0-b0;
#X obj 197 290 throw~ \$0-b1;
#X obj 113 303 throw~ \$0-b2;
#X obj 314 298 throw~ \$0-a1;
#X obj 399 250 throw~ \$0-a0;
#X obj 479 283 throw~ \$0-a2;
#X obj 528 110 max~ 0.01;
#X obj 157 119 expr~ sin($v1);
#X obj 113 278 *~ -1;
#X obj 197 259 sig~ 0;
#X obj 314 275 expr~ -2*cos($v1);
#X text 556 49 q = bandwidth;
#X text 427 421 constant 0 dB peak gain;
#X obj 676 103 == 3;
#X obj 399 166 expr~ $v1/(2*$v2);
#X connect 2 0 17 0;
#X connect 2 0 20 0;
#X connect 3 0 16 0;
#X connect 5 0 23 0;
#X connect 7 0 14 0;
#X connect 8 0 9 0;
#X connect 9 0 15 0;
#X connect 16 0 24 1;
#X connect 17 0 24 0;
#X connect 18 0 12 0;
#X connect 19 0 11 0;
#X connect 20 0 13 0;
#X connect 23 0 4 0;
#X connect 24 0 7 0;
#X connect 24 0 9 1;
#X connect 24 0 10 0;
#X connect 24 0 18 0;
#X restore 111 263 pd bandpass;
#X connect 0 0 8 0;
#X connect 1 0 8 1;
#X connect 2 0 8 2;
#X connect 3 0 14 0;
#X connect 4 0 5 0;
#X connect 7 0 9 0;
#X connect 7 1 10 0;
#X connect 7 2 11 0;
#X connect 7 3 12 0;
#X connect 7 4 13 0;
#X connect 8 0 3 0;
#X connect 14 0 20 0;
#X connect 15 0 16 0;
#X connect 16 0 18 0;
#X connect 17 0 19 0;
#X connect 18 0 17 0;
#X connect 19 0 7 0;
#X connect 20 0 21 0;
#X connect 21 0 15 0;
