#N canvas 65 26 1375 803 10;
#X obj 21 21 cnv 15 650 190 \$0-bg.gui \$0-bg.gui.r eq7.mmb~ 160 12
0 18 -141546 -200127 0;
#X obj 116 171 hsl 70 12 0 127 0 0 \$0-hp.freq.gui \$0-hp.freq.gui.r
freq 2 6 0 10 -87718 -200127 -200127 692 1;
#X obj 116 183 hsl 70 12 0 127 0 0 \$0-hp.res.gui \$0-hp.res.gui.r
res 2 6 0 10 -87718 -200127 -200127 0 1;
#X obj 196 171 hsl 70 12 0 127 0 0 \$0-ls.freq.gui \$0-ls.freq.gui.r
freq 2 6 0 10 -87718 -200127 -200127 1608 1;
#X obj 196 183 hsl 70 12 0 127 0 0 \$0-ls.slope.gui \$0-ls.slope.gui.r
slope 2 6 0 10 -87718 -200127 -200127 5308 1;
#X obj 196 195 hsl 70 12 0 127 0 0 \$0-ls.gain.gui \$0-ls.gain.gui.r
gain 2 6 0 10 -87718 -200127 -200127 3450 1;
#X obj 276 171 hsl 70 12 0 127 0 0 \$0-p1.freq.gui \$0-p1.freq.gui.r
freq 2 6 0 10 -87718 -200127 -200127 2523 1;
#X obj 276 183 hsl 70 12 0 127 0 0 \$0-p1.q.gui \$0-p1.q.gui.r q 2
6 0 10 -87718 -200127 -200127 2992 1;
#X obj 276 195 hsl 70 12 0 127 0 0 \$0-p1.gain.gui \$0-p1.gain.gui.r
gain 2 6 0 10 -87718 -200127 -200127 3450 1;
#X obj 356 171 hsl 70 12 0 127 0 0 \$0-p2.freq.gui \$0-p2.freq.gui.r
freq 2 6 0 10 -87718 -200127 -200127 3551 1;
#X obj 356 183 hsl 70 12 0 127 0 0 \$0-p2.q.gui \$0-p2.q.gui.r q 2
6 0 10 -87718 -200127 -200127 2992 1;
#X obj 356 195 hsl 70 12 0 127 0 0 \$0-p2.gain.gui \$0-p2.gain.gui.r
gain 2 6 0 10 -87718 -200127 -200127 3450 1;
#X obj 436 171 hsl 70 12 0 127 0 0 \$0-p3.freq.gui \$0-p3.freq.gui.r
freq 2 6 0 10 -87718 -200127 -200127 4313 1;
#X obj 436 183 hsl 70 12 0 127 0 0 \$0-p3.q.gui \$0-p3.q.gui.r q 2
6 0 10 -87718 -200127 -200127 2992 1;
#X obj 436 195 hsl 70 12 0 127 0 0 \$0-p3.gain.gui \$0-p3.gain.gui.r
gain 2 6 0 10 -87718 -200127 -200127 3450 1;
#X obj 516 171 hsl 70 12 0 127 0 0 \$0-hs.freq.gui \$0-hs.freq.gui.r
freq 2 6 0 10 -87718 -200127 -200127 5515 1;
#X obj 516 183 hsl 70 12 0 127 0 0 \$0-hs.slope.gui \$0-hs.slope.gui.r
slope 2 6 0 10 -87718 -200127 -200127 5308 1;
#X obj 516 195 hsl 70 12 0 127 0 0 \$0-hs.gain.gui \$0-hs.gain.gui.r
gain 2 6 0 10 -87718 -200127 -200127 3450 1;
#X obj 596 171 hsl 70 12 0 127 0 0 \$0-lp.freq.gui \$0-lp.freq.gui.r
freq 2 6 0 10 -87718 -200127 -200127 6208 1;
#X obj 596 183 hsl 70 12 0 127 0 0 \$0-lp.res.gui \$0-lp.res.gui.r
res 2 6 0 10 -87718 -200127 -200127 0 1;
#X obj 806 110 inlet~;
#X obj 806 326 eq7.mmb~;
#N canvas 736 22 541 588 gui 1;
#N canvas 498 22 728 664 highpass 0;
#X obj 278 90 trigger f f;
#X obj 278 147 / 127;
#X obj 278 249 + 20;
#X obj 278 432 - 20;
#X obj 278 509 * 127;
#X obj 278 543 change;
#X msg 278 572 set \$1;
#X msg 341 502 set \$1;
#X obj 278 43 r \$0-hp.freq.gui;
#X obj 278 600 s \$0-hp.freq.gui.r;
#X obj 68 316 s \$0-hp.active;
#X obj 68 367 r \$0-hp.active;
#X obj 68 43 r \$0-hp.active.gui;
#X obj 278 316 s \$0-hp.freq;
#X obj 278 367 r \$0-hp.freq;
#X obj 68 600 s \$0-hp.active.gui.r;
#X obj 488 90 trigger f f;
#X obj 488 167 / 127;
#X obj 488 489 * 127;
#X obj 488 543 change;
#X msg 488 572 set \$1;
#X msg 551 502 set \$1;
#X obj 488 43 r \$0-hp.res.gui;
#X obj 488 198 * 33;
#X obj 488 316 s \$0-hp.res;
#X obj 488 367 r \$0-hp.res;
#X obj 488 458 / 33;
#X obj 488 600 s \$0-hp.res.gui.r;
#X obj 488 263 dbtorms;
#X obj 488 395 rmstodb;
#X obj 488 229 + 97;
#X obj 488 422 - 97;
#X obj 278 198 * 136;
#X obj 305 171 r \$0-midi.range;
#X obj 299 227 r \$0-midi.min;
#X obj 278 478 / 136;
#X obj 305 457 r \$0-midi.range;
#X obj 299 411 r \$0-midi.min;
#X obj 278 271 mtof;
#X obj 278 390 ftom;
#X obj 68 95 f 0;
#X obj 94 95 + 1;
#X obj 120 95 % 2;
#X obj 68 68 t b;
#N canvas 0 22 453 366 color 0;
#X obj 108 57 inlet;
#X obj 108 99 sel 0 1;
#X obj 129 147 r \$0-button.colors.off;
#X obj 173 180 r \$0-button.colors.on;
#X obj 108 177 list;
#X msg 108 258 color \$1 \$1 \$2;
#X obj 152 205 list;
#X obj 108 285 outlet;
#X connect 0 0 1 0;
#X connect 1 0 4 0;
#X connect 1 1 6 0;
#X connect 2 0 4 1;
#X connect 3 0 6 1;
#X connect 4 0 5 0;
#X connect 5 0 7 0;
#X connect 6 0 5 0;
#X restore 68 571 pd color;
#X obj 95 68 r \$0-hp.active;
#X obj 312 343 save.me.mmb hpfreq \$0;
#X obj 100 342 save.me.mmb hpactive \$0;
#X obj 522 343 save.me.mmb hpres \$0;
#X connect 0 0 1 0;
#X connect 0 1 7 0;
#X connect 1 0 32 0;
#X connect 2 0 38 0;
#X connect 3 0 35 0;
#X connect 4 0 5 0;
#X connect 5 0 6 0;
#X connect 6 0 9 0;
#X connect 7 0 5 0;
#X connect 8 0 0 0;
#X connect 11 0 44 0;
#X connect 11 0 47 0;
#X connect 12 0 43 0;
#X connect 14 0 39 0;
#X connect 14 0 46 0;
#X connect 16 0 17 0;
#X connect 16 1 21 0;
#X connect 17 0 23 0;
#X connect 18 0 19 0;
#X connect 19 0 20 0;
#X connect 20 0 27 0;
#X connect 21 0 19 0;
#X connect 22 0 16 0;
#X connect 23 0 30 0;
#X connect 25 0 29 0;
#X connect 25 0 48 0;
#X connect 26 0 18 0;
#X connect 28 0 24 0;
#X connect 29 0 31 0;
#X connect 30 0 28 0;
#X connect 31 0 26 0;
#X connect 32 0 2 0;
#X connect 33 0 32 1;
#X connect 34 0 2 1;
#X connect 35 0 4 0;
#X connect 36 0 35 1;
#X connect 37 0 3 1;
#X connect 38 0 13 0;
#X connect 39 0 3 0;
#X connect 40 0 41 0;
#X connect 41 0 42 0;
#X connect 42 0 40 1;
#X connect 42 0 10 0;
#X connect 43 0 40 0;
#X connect 44 0 15 0;
#X connect 45 0 40 1;
#X connect 46 0 13 0;
#X connect 47 0 10 0;
#X connect 48 0 24 0;
#X restore 92 48 pd highpass;
#N canvas 418 22 867 649 lowshelf 0;
#X obj 488 90 trigger f f;
#X obj 488 167 / 127;
#X obj 488 489 * 127;
#X obj 488 543 change;
#X msg 488 572 set \$1;
#X msg 551 502 set \$1;
#X obj 488 43 r \$0-ls.slope.gui;
#X obj 488 208 * 26;
#X obj 488 268 dbtorms;
#X obj 488 458 / 26;
#X obj 488 399 rmstodb;
#X obj 488 316 s \$0-ls.slope;
#X obj 488 367 r \$0-ls.slope;
#X obj 488 600 s \$0-ls.slope.gui.r;
#X obj 688 90 trigger f f;
#X obj 688 187 / 127;
#X obj 688 489 * 127;
#X obj 688 543 change;
#X msg 688 572 set \$1;
#X msg 751 502 set \$1;
#X obj 688 43 r \$0-ls.gain.gui;
#X obj 688 228 * 60;
#X obj 688 316 s \$0-ls.gain;
#X obj 688 367 r \$0-ls.gain;
#X obj 688 458 / 60;
#X obj 688 600 s \$0-ls.gain.gui.r;
#X obj 488 239 + 80;
#X obj 488 432 - 80;
#X obj 688 259 - 30;
#X obj 688 432 + 30;
#X obj 278 90 trigger f f;
#X obj 278 147 / 127;
#X obj 278 249 + 20;
#X obj 278 432 - 20;
#X obj 278 509 * 127;
#X obj 278 543 change;
#X msg 278 572 set \$1;
#X msg 341 502 set \$1;
#X obj 278 198 * 136;
#X obj 305 171 r \$0-midi.range;
#X obj 299 227 r \$0-midi.min;
#X obj 278 478 / 136;
#X obj 305 457 r \$0-midi.range;
#X obj 299 411 r \$0-midi.min;
#X obj 278 271 mtof;
#X obj 278 390 ftom;
#X obj 278 43 r \$0-ls.freq.gui;
#X obj 278 316 s \$0-ls.freq;
#X obj 278 367 r \$0-ls.freq;
#X obj 278 600 s \$0-ls.freq.gui.r;
#X obj 68 95 f 0;
#X obj 94 95 + 1;
#X obj 120 95 % 2;
#X obj 68 68 t b;
#N canvas 0 22 453 366 color 0;
#X obj 108 57 inlet;
#X obj 108 99 sel 0 1;
#X obj 129 147 r \$0-button.colors.off;
#X obj 173 180 r \$0-button.colors.on;
#X obj 108 177 list;
#X msg 108 258 color \$1 \$1 \$2;
#X obj 152 205 list;
#X obj 108 285 outlet;
#X connect 0 0 1 0;
#X connect 1 0 4 0;
#X connect 1 1 6 0;
#X connect 2 0 4 1;
#X connect 3 0 6 1;
#X connect 4 0 5 0;
#X connect 5 0 7 0;
#X connect 6 0 5 0;
#X restore 68 571 pd color;
#X obj 68 43 r \$0-ls.active.gui;
#X obj 95 68 r \$0-ls.active;
#X obj 68 316 s \$0-ls.active;
#X obj 68 367 r \$0-ls.active;
#X obj 68 600 s \$0-ls.active.gui.r;
#X obj 108 343 save.me.mmb lsactive \$0;
#X obj 312 343 save.me.mmb lsfreq \$0;
#X obj 522 343 save.me.mmb lsres \$0;
#X obj 712 343 save.me.mmb lsgain \$0;
#X connect 0 0 1 0;
#X connect 0 1 5 0;
#X connect 1 0 7 0;
#X connect 2 0 3 0;
#X connect 3 0 4 0;
#X connect 4 0 13 0;
#X connect 5 0 3 0;
#X connect 6 0 0 0;
#X connect 7 0 26 0;
#X connect 8 0 11 0;
#X connect 9 0 2 0;
#X connect 10 0 27 0;
#X connect 12 0 10 0;
#X connect 12 0 62 0;
#X connect 14 0 15 0;
#X connect 14 1 19 0;
#X connect 15 0 21 0;
#X connect 16 0 17 0;
#X connect 17 0 18 0;
#X connect 18 0 25 0;
#X connect 19 0 17 0;
#X connect 20 0 14 0;
#X connect 21 0 28 0;
#X connect 23 0 29 0;
#X connect 23 0 63 0;
#X connect 24 0 16 0;
#X connect 26 0 8 0;
#X connect 27 0 9 0;
#X connect 28 0 22 0;
#X connect 29 0 24 0;
#X connect 30 0 31 0;
#X connect 30 1 37 0;
#X connect 31 0 38 0;
#X connect 32 0 44 0;
#X connect 33 0 41 0;
#X connect 34 0 35 0;
#X connect 35 0 36 0;
#X connect 36 0 49 0;
#X connect 37 0 35 0;
#X connect 38 0 32 0;
#X connect 39 0 38 1;
#X connect 40 0 32 1;
#X connect 41 0 34 0;
#X connect 42 0 41 1;
#X connect 43 0 33 1;
#X connect 44 0 47 0;
#X connect 45 0 33 0;
#X connect 46 0 30 0;
#X connect 48 0 45 0;
#X connect 48 0 61 0;
#X connect 50 0 51 0;
#X connect 51 0 52 0;
#X connect 52 0 50 1;
#X connect 52 0 57 0;
#X connect 53 0 50 0;
#X connect 54 0 59 0;
#X connect 55 0 53 0;
#X connect 56 0 50 1;
#X connect 58 0 54 0;
#X connect 58 0 60 0;
#X connect 60 0 57 0;
#X connect 61 0 47 0;
#X connect 62 0 11 0;
#X connect 63 0 22 0;
#X restore 92 78 pd lowshelf;
#N canvas 276 22 902 656 peak1 0;
#X obj 488 90 trigger f f;
#X obj 488 187 / 127;
#X obj 488 489 * 127;
#X obj 488 543 change;
#X msg 488 572 set \$1;
#X msg 551 502 set \$1;
#X obj 488 288 dbtorms;
#X obj 488 399 rmstodb;
#X obj 688 90 trigger f f;
#X obj 688 187 / 127;
#X obj 688 489 * 127;
#X obj 688 543 change;
#X msg 688 572 set \$1;
#X msg 751 502 set \$1;
#X obj 688 228 * 60;
#X obj 688 458 / 60;
#X obj 488 228 * 60;
#X obj 488 259 + 80;
#X obj 488 43 r \$0-p1.q.gui;
#X obj 488 316 s \$0-p1.q;
#X obj 488 367 r \$0-p1.q;
#X obj 488 600 s \$0-p1.q.gui.r;
#X obj 488 432 - 80;
#X obj 488 458 / 60;
#X obj 688 43 r \$0-p1.gain.gui;
#X obj 688 316 s \$0-p1.gain;
#X obj 688 367 r \$0-p1.gain;
#X obj 688 600 s \$0-p1.gain.gui.r;
#X obj 688 259 - 30;
#X obj 688 430 + 30;
#X obj 278 90 trigger f f;
#X obj 278 167 / 127;
#X obj 278 269 + 20;
#X obj 278 432 - 20;
#X obj 278 509 * 127;
#X obj 278 543 change;
#X msg 278 572 set \$1;
#X msg 341 502 set \$1;
#X obj 278 218 * 136;
#X obj 305 191 r \$0-midi.range;
#X obj 299 247 r \$0-midi.min;
#X obj 278 478 / 136;
#X obj 305 457 r \$0-midi.range;
#X obj 299 411 r \$0-midi.min;
#X obj 278 291 mtof;
#X obj 278 390 ftom;
#X obj 278 43 r \$0-p1.freq.gui;
#X obj 278 316 s \$0-p1.freq;
#X obj 278 367 r \$0-p1.freq;
#X obj 278 600 s \$0-p1.freq.gui.r;
#X obj 68 95 f 0;
#X obj 94 95 + 1;
#X obj 120 95 % 2;
#X obj 68 68 t b;
#N canvas 0 22 453 366 color 0;
#X obj 108 57 inlet;
#X obj 108 99 sel 0 1;
#X obj 129 147 r \$0-button.colors.off;
#X obj 173 180 r \$0-button.colors.on;
#X obj 108 177 list;
#X msg 108 258 color \$1 \$1 \$2;
#X obj 152 205 list;
#X obj 108 285 outlet;
#X connect 0 0 1 0;
#X connect 1 0 4 0;
#X connect 1 1 6 0;
#X connect 2 0 4 1;
#X connect 3 0 6 1;
#X connect 4 0 5 0;
#X connect 5 0 7 0;
#X connect 6 0 5 0;
#X restore 68 571 pd color;
#X obj 68 43 r \$0-p1.active.gui;
#X obj 95 68 r \$0-p1.active;
#X obj 68 316 s \$0-p1.active;
#X obj 68 367 r \$0-p1.active;
#X obj 68 600 s \$0-p1.active.gui.r;
#X obj 108 343 save.me.mmb pk1active \$0;
#X obj 312 343 save.me.mmb pk1freq \$0;
#X obj 522 343 save.me.mmb pk1res \$0;
#X obj 712 343 save.me.mmb pk1gain \$0;
#X connect 0 0 1 0;
#X connect 0 1 5 0;
#X connect 1 0 16 0;
#X connect 2 0 3 0;
#X connect 3 0 4 0;
#X connect 4 0 21 0;
#X connect 5 0 3 0;
#X connect 6 0 19 0;
#X connect 7 0 22 0;
#X connect 8 0 9 0;
#X connect 8 1 13 0;
#X connect 9 0 14 0;
#X connect 10 0 11 0;
#X connect 11 0 12 0;
#X connect 12 0 27 0;
#X connect 13 0 11 0;
#X connect 14 0 28 0;
#X connect 15 0 10 0;
#X connect 16 0 17 0;
#X connect 17 0 6 0;
#X connect 18 0 0 0;
#X connect 20 0 7 0;
#X connect 20 0 62 0;
#X connect 22 0 23 0;
#X connect 23 0 2 0;
#X connect 24 0 8 0;
#X connect 26 0 29 0;
#X connect 26 0 63 0;
#X connect 28 0 25 0;
#X connect 29 0 15 0;
#X connect 30 0 31 0;
#X connect 30 1 37 0;
#X connect 31 0 38 0;
#X connect 32 0 44 0;
#X connect 33 0 41 0;
#X connect 34 0 35 0;
#X connect 35 0 36 0;
#X connect 36 0 49 0;
#X connect 37 0 35 0;
#X connect 38 0 32 0;
#X connect 39 0 38 1;
#X connect 40 0 32 1;
#X connect 41 0 34 0;
#X connect 42 0 41 1;
#X connect 43 0 33 1;
#X connect 44 0 47 0;
#X connect 45 0 33 0;
#X connect 46 0 30 0;
#X connect 48 0 45 0;
#X connect 48 0 61 0;
#X connect 50 0 51 0;
#X connect 51 0 52 0;
#X connect 52 0 50 1;
#X connect 52 0 57 0;
#X connect 53 0 50 0;
#X connect 54 0 59 0;
#X connect 55 0 53 0;
#X connect 56 0 50 1;
#X connect 58 0 54 0;
#X connect 58 0 60 0;
#X connect 60 0 57 0;
#X connect 61 0 47 0;
#X connect 62 0 19 0;
#X connect 63 0 25 0;
#X restore 92 108 pd peak1;
#N canvas 276 22 902 656 peak2 0;
#X obj 488 90 trigger f f;
#X obj 488 187 / 127;
#X obj 488 489 * 127;
#X obj 488 543 change;
#X msg 488 572 set \$1;
#X msg 551 502 set \$1;
#X obj 488 288 dbtorms;
#X obj 488 399 rmstodb;
#X obj 688 90 trigger f f;
#X obj 688 187 / 127;
#X obj 688 489 * 127;
#X obj 688 543 change;
#X msg 688 572 set \$1;
#X msg 751 502 set \$1;
#X obj 688 228 * 60;
#X obj 688 458 / 60;
#X obj 488 228 * 60;
#X obj 488 259 + 80;
#X obj 488 432 - 80;
#X obj 488 458 / 60;
#X obj 488 43 r \$0-p2.q.gui;
#X obj 488 316 s \$0-p2.q;
#X obj 488 367 r \$0-p2.q;
#X obj 488 600 s \$0-p2.q.gui.r;
#X obj 688 43 r \$0-p2.gain.gui;
#X obj 688 316 s \$0-p2.gain;
#X obj 688 367 r \$0-p2.gain;
#X obj 688 600 s \$0-p2.gain.gui.r;
#X obj 688 259 - 30;
#X obj 688 432 + 30;
#X obj 278 90 trigger f f;
#X obj 278 167 / 127;
#X obj 278 269 + 20;
#X obj 278 432 - 20;
#X obj 278 509 * 127;
#X obj 278 543 change;
#X msg 278 572 set \$1;
#X msg 341 502 set \$1;
#X obj 278 218 * 136;
#X obj 305 191 r \$0-midi.range;
#X obj 299 247 r \$0-midi.min;
#X obj 278 478 / 136;
#X obj 305 457 r \$0-midi.range;
#X obj 299 411 r \$0-midi.min;
#X obj 278 291 mtof;
#X obj 278 390 ftom;
#X obj 278 43 r \$0-p2.freq.gui;
#X obj 278 316 s \$0-p2.freq;
#X obj 278 600 s \$0-p2.freq.gui.r;
#X obj 278 367 r \$0-p2.freq;
#X obj 68 95 f 0;
#X obj 94 95 + 1;
#X obj 120 95 % 2;
#X obj 68 68 t b;
#N canvas 0 22 453 366 color 0;
#X obj 108 57 inlet;
#X obj 108 99 sel 0 1;
#X obj 129 147 r \$0-button.colors.off;
#X obj 173 180 r \$0-button.colors.on;
#X obj 108 177 list;
#X msg 108 258 color \$1 \$1 \$2;
#X obj 152 205 list;
#X obj 108 285 outlet;
#X connect 0 0 1 0;
#X connect 1 0 4 0;
#X connect 1 1 6 0;
#X connect 2 0 4 1;
#X connect 3 0 6 1;
#X connect 4 0 5 0;
#X connect 5 0 7 0;
#X connect 6 0 5 0;
#X restore 68 571 pd color;
#X obj 68 43 r \$0-p2.active.gui;
#X obj 95 68 r \$0-p2.active;
#X obj 68 316 s \$0-p2.active;
#X obj 68 367 r \$0-p2.active;
#X obj 68 600 s \$0-p2.active.gui.r;
#X obj 108 343 save.me.mmb pk2active \$0;
#X obj 312 343 save.me.mmb pk2freq \$0;
#X obj 522 343 save.me.mmb pk2res \$0;
#X obj 712 343 save.me.mmb pk2gain \$0;
#X connect 0 0 1 0;
#X connect 0 1 5 0;
#X connect 1 0 16 0;
#X connect 2 0 3 0;
#X connect 3 0 4 0;
#X connect 4 0 23 0;
#X connect 5 0 3 0;
#X connect 6 0 21 0;
#X connect 7 0 18 0;
#X connect 8 0 9 0;
#X connect 8 1 13 0;
#X connect 9 0 14 0;
#X connect 10 0 11 0;
#X connect 11 0 12 0;
#X connect 12 0 27 0;
#X connect 13 0 11 0;
#X connect 14 0 28 0;
#X connect 15 0 10 0;
#X connect 16 0 17 0;
#X connect 17 0 6 0;
#X connect 18 0 19 0;
#X connect 19 0 2 0;
#X connect 20 0 0 0;
#X connect 22 0 7 0;
#X connect 22 0 62 0;
#X connect 24 0 8 0;
#X connect 26 0 29 0;
#X connect 26 0 63 0;
#X connect 28 0 25 0;
#X connect 29 0 15 0;
#X connect 30 0 31 0;
#X connect 30 1 37 0;
#X connect 31 0 38 0;
#X connect 32 0 44 0;
#X connect 33 0 41 0;
#X connect 34 0 35 0;
#X connect 35 0 36 0;
#X connect 36 0 48 0;
#X connect 37 0 35 0;
#X connect 38 0 32 0;
#X connect 39 0 38 1;
#X connect 40 0 32 1;
#X connect 41 0 34 0;
#X connect 42 0 41 1;
#X connect 43 0 33 1;
#X connect 44 0 47 0;
#X connect 45 0 33 0;
#X connect 46 0 30 0;
#X connect 49 0 45 0;
#X connect 49 0 61 0;
#X connect 50 0 51 0;
#X connect 51 0 52 0;
#X connect 52 0 50 1;
#X connect 52 0 57 0;
#X connect 53 0 50 0;
#X connect 54 0 59 0;
#X connect 55 0 53 0;
#X connect 56 0 50 1;
#X connect 58 0 54 0;
#X connect 58 0 60 0;
#X connect 60 0 57 0;
#X connect 61 0 47 0;
#X connect 62 0 21 0;
#X connect 63 0 25 0;
#X restore 92 138 pd peak2;
#N canvas 276 22 902 656 peak3 0;
#X obj 488 90 trigger f f;
#X obj 488 187 / 127;
#X obj 488 489 * 127;
#X obj 488 543 change;
#X msg 488 572 set \$1;
#X msg 551 502 set \$1;
#X obj 488 288 dbtorms;
#X obj 488 399 rmstodb;
#X obj 688 90 trigger f f;
#X obj 688 187 / 127;
#X obj 688 489 * 127;
#X obj 688 543 change;
#X msg 688 572 set \$1;
#X msg 751 502 set \$1;
#X obj 688 228 * 60;
#X obj 688 458 / 60;
#X obj 488 228 * 60;
#X obj 488 259 + 80;
#X obj 488 432 - 80;
#X obj 488 458 / 60;
#X obj 488 43 r \$0-p3.q.gui;
#X obj 488 316 s \$0-p3.q;
#X obj 488 367 r \$0-p3.q;
#X obj 488 600 s \$0-p3.q.gui.r;
#X obj 688 43 r \$0-p3.gain.gui;
#X obj 688 316 s \$0-p3.gain;
#X obj 688 367 r \$0-p3.gain;
#X obj 688 600 s \$0-p3.gain.gui.r;
#X obj 688 259 - 30;
#X obj 688 432 + 30;
#X obj 278 90 trigger f f;
#X obj 278 167 / 127;
#X obj 278 269 + 20;
#X obj 278 432 - 20;
#X obj 278 509 * 127;
#X obj 278 543 change;
#X msg 278 572 set \$1;
#X msg 341 502 set \$1;
#X obj 278 218 * 136;
#X obj 305 191 r \$0-midi.range;
#X obj 299 247 r \$0-midi.min;
#X obj 278 478 / 136;
#X obj 305 457 r \$0-midi.range;
#X obj 299 411 r \$0-midi.min;
#X obj 278 291 mtof;
#X obj 278 390 ftom;
#X obj 278 43 r \$0-p3.freq.gui;
#X obj 278 316 s \$0-p3.freq;
#X obj 278 367 r \$0-p3.freq;
#X obj 278 600 s \$0-p3.freq.gui.r;
#X obj 68 95 f 0;
#X obj 94 95 + 1;
#X obj 120 95 % 2;
#X obj 68 68 t b;
#N canvas 0 22 453 366 color 0;
#X obj 108 57 inlet;
#X obj 108 99 sel 0 1;
#X obj 129 147 r \$0-button.colors.off;
#X obj 173 180 r \$0-button.colors.on;
#X obj 108 177 list;
#X msg 108 258 color \$1 \$1 \$2;
#X obj 152 205 list;
#X obj 108 285 outlet;
#X connect 0 0 1 0;
#X connect 1 0 4 0;
#X connect 1 1 6 0;
#X connect 2 0 4 1;
#X connect 3 0 6 1;
#X connect 4 0 5 0;
#X connect 5 0 7 0;
#X connect 6 0 5 0;
#X restore 68 571 pd color;
#X obj 68 43 r \$0-p3.active.gui;
#X obj 95 68 r \$0-p3.active;
#X obj 68 316 s \$0-p3.active;
#X obj 68 367 r \$0-p3.active;
#X obj 68 600 s \$0-p3.active.gui.r;
#X obj 108 343 save.me.mmb pk3active \$0;
#X obj 312 343 save.me.mmb pk3freq \$0;
#X obj 522 343 save.me.mmb pk3res \$0;
#X obj 712 343 save.me.mmb pk3gain \$0;
#X connect 0 0 1 0;
#X connect 0 1 5 0;
#X connect 1 0 16 0;
#X connect 2 0 3 0;
#X connect 3 0 4 0;
#X connect 4 0 23 0;
#X connect 5 0 3 0;
#X connect 6 0 21 0;
#X connect 7 0 18 0;
#X connect 8 0 9 0;
#X connect 8 1 13 0;
#X connect 9 0 14 0;
#X connect 10 0 11 0;
#X connect 11 0 12 0;
#X connect 12 0 27 0;
#X connect 13 0 11 0;
#X connect 14 0 28 0;
#X connect 15 0 10 0;
#X connect 16 0 17 0;
#X connect 17 0 6 0;
#X connect 18 0 19 0;
#X connect 19 0 2 0;
#X connect 20 0 0 0;
#X connect 22 0 7 0;
#X connect 22 0 62 0;
#X connect 24 0 8 0;
#X connect 26 0 29 0;
#X connect 26 0 63 0;
#X connect 28 0 25 0;
#X connect 29 0 15 0;
#X connect 30 0 31 0;
#X connect 30 1 37 0;
#X connect 31 0 38 0;
#X connect 32 0 44 0;
#X connect 33 0 41 0;
#X connect 34 0 35 0;
#X connect 35 0 36 0;
#X connect 36 0 49 0;
#X connect 37 0 35 0;
#X connect 38 0 32 0;
#X connect 39 0 38 1;
#X connect 40 0 32 1;
#X connect 41 0 34 0;
#X connect 42 0 41 1;
#X connect 43 0 33 1;
#X connect 44 0 47 0;
#X connect 45 0 33 0;
#X connect 46 0 30 0;
#X connect 48 0 45 0;
#X connect 48 0 61 0;
#X connect 50 0 51 0;
#X connect 51 0 52 0;
#X connect 52 0 50 1;
#X connect 52 0 57 0;
#X connect 53 0 50 0;
#X connect 54 0 59 0;
#X connect 55 0 53 0;
#X connect 56 0 50 1;
#X connect 58 0 54 0;
#X connect 58 0 60 0;
#X connect 60 0 57 0;
#X connect 61 0 47 0;
#X connect 62 0 21 0;
#X connect 63 0 25 0;
#X restore 92 168 pd peak3;
#N canvas 418 22 867 649 highshelf 0;
#X obj 488 90 trigger f f;
#X obj 488 187 / 127;
#X obj 488 489 * 127;
#X obj 488 543 change;
#X msg 488 572 set \$1;
#X msg 551 502 set \$1;
#X obj 488 228 * 26;
#X obj 488 288 dbtorms;
#X obj 488 458 / 26;
#X obj 488 399 rmstodb;
#X obj 688 90 trigger f f;
#X obj 688 187 / 127;
#X obj 688 489 * 127;
#X obj 688 543 change;
#X msg 688 572 set \$1;
#X msg 751 502 set \$1;
#X obj 688 228 * 60;
#X obj 688 458 / 60;
#X obj 488 259 + 80;
#X obj 488 432 - 80;
#X obj 488 43 r \$0-hs.slope.gui;
#X obj 488 316 s \$0-hs.slope;
#X obj 488 367 r \$0-hs.slope;
#X obj 488 600 s \$0-hs.slope.gui.r;
#X obj 688 43 r \$0-hs.gain.gui;
#X obj 688 316 s \$0-hs.gain;
#X obj 688 367 r \$0-hs.gain;
#X obj 688 600 s \$0-hs.gain.gui.r;
#X obj 688 259 - 30;
#X obj 688 432 + 30;
#X obj 278 90 trigger f f;
#X obj 278 167 / 127;
#X obj 278 269 + 20;
#X obj 278 432 - 20;
#X obj 278 509 * 127;
#X obj 278 543 change;
#X msg 278 572 set \$1;
#X msg 341 502 set \$1;
#X obj 278 218 * 136;
#X obj 305 191 r \$0-midi.range;
#X obj 299 247 r \$0-midi.min;
#X obj 278 478 / 136;
#X obj 305 457 r \$0-midi.range;
#X obj 299 411 r \$0-midi.min;
#X obj 278 291 mtof;
#X obj 278 390 ftom;
#X obj 278 43 r \$0-hs.freq.gui;
#X obj 278 316 s \$0-hs.freq;
#X obj 278 367 r \$0-hs.freq;
#X obj 278 600 s \$0-hs.freq.gui.r;
#X obj 68 95 f 0;
#X obj 94 95 + 1;
#X obj 120 95 % 2;
#X obj 68 68 t b;
#N canvas 0 22 453 366 color 0;
#X obj 108 57 inlet;
#X obj 108 99 sel 0 1;
#X obj 129 147 r \$0-button.colors.off;
#X obj 173 180 r \$0-button.colors.on;
#X obj 108 177 list;
#X msg 108 258 color \$1 \$1 \$2;
#X obj 152 205 list;
#X obj 108 285 outlet;
#X connect 0 0 1 0;
#X connect 1 0 4 0;
#X connect 1 1 6 0;
#X connect 2 0 4 1;
#X connect 3 0 6 1;
#X connect 4 0 5 0;
#X connect 5 0 7 0;
#X connect 6 0 5 0;
#X restore 68 571 pd color;
#X obj 68 43 r \$0-hs.active.gui;
#X obj 95 68 r \$0-hs.active;
#X obj 68 316 s \$0-hs.active;
#X obj 68 367 r \$0-hs.active;
#X obj 68 600 s \$0-hs.active.gui.r;
#X obj 108 343 save.me.mmb hsactive \$0;
#X obj 312 343 save.me.mmb hsfreq \$0;
#X obj 522 343 save.me.mmb hsres \$0;
#X obj 712 343 save.me.mmb hsgain \$0;
#X connect 0 0 1 0;
#X connect 0 1 5 0;
#X connect 1 0 6 0;
#X connect 2 0 3 0;
#X connect 3 0 4 0;
#X connect 4 0 23 0;
#X connect 5 0 3 0;
#X connect 6 0 18 0;
#X connect 7 0 21 0;
#X connect 8 0 2 0;
#X connect 9 0 19 0;
#X connect 10 0 11 0;
#X connect 10 1 15 0;
#X connect 11 0 16 0;
#X connect 12 0 13 0;
#X connect 13 0 14 0;
#X connect 14 0 27 0;
#X connect 15 0 13 0;
#X connect 16 0 28 0;
#X connect 17 0 12 0;
#X connect 18 0 7 0;
#X connect 19 0 8 0;
#X connect 20 0 0 0;
#X connect 22 0 9 0;
#X connect 22 0 62 0;
#X connect 24 0 10 0;
#X connect 26 0 29 0;
#X connect 26 0 63 0;
#X connect 28 0 25 0;
#X connect 29 0 17 0;
#X connect 30 0 31 0;
#X connect 30 1 37 0;
#X connect 31 0 38 0;
#X connect 32 0 44 0;
#X connect 33 0 41 0;
#X connect 34 0 35 0;
#X connect 35 0 36 0;
#X connect 36 0 49 0;
#X connect 37 0 35 0;
#X connect 38 0 32 0;
#X connect 39 0 38 1;
#X connect 40 0 32 1;
#X connect 41 0 34 0;
#X connect 42 0 41 1;
#X connect 43 0 33 1;
#X connect 44 0 47 0;
#X connect 45 0 33 0;
#X connect 46 0 30 0;
#X connect 48 0 45 0;
#X connect 48 0 61 0;
#X connect 50 0 51 0;
#X connect 51 0 52 0;
#X connect 52 0 50 1;
#X connect 52 0 57 0;
#X connect 53 0 50 0;
#X connect 54 0 59 0;
#X connect 55 0 53 0;
#X connect 56 0 50 1;
#X connect 58 0 54 0;
#X connect 58 0 60 0;
#X connect 60 0 57 0;
#X connect 61 0 47 0;
#X connect 62 0 21 0;
#X connect 63 0 25 0;
#X restore 92 198 pd highshelf;
#N canvas 418 22 726 679 lowpass 0;
#X obj 488 90 trigger f f;
#X obj 488 167 / 127;
#X obj 488 489 * 127;
#X obj 488 543 change;
#X msg 488 572 set \$1;
#X msg 551 502 set \$1;
#X obj 488 198 * 33;
#X obj 488 458 / 33;
#X obj 488 283 dbtorms;
#X obj 488 395 rmstodb;
#X obj 488 229 + 97;
#X obj 488 422 - 97;
#X obj 488 43 r \$0-lp.res.gui;
#X obj 488 316 s \$0-lp.res;
#X obj 488 367 r \$0-lp.res;
#X obj 488 600 s \$0-lp.res.gui.r;
#X obj 278 90 trigger f f;
#X obj 278 167 / 127;
#X obj 278 269 + 20;
#X obj 278 432 - 20;
#X obj 278 509 * 127;
#X obj 278 543 change;
#X msg 278 572 set \$1;
#X msg 341 502 set \$1;
#X obj 278 218 * 136;
#X obj 305 191 r \$0-midi.range;
#X obj 299 247 r \$0-midi.min;
#X obj 278 478 / 136;
#X obj 305 457 r \$0-midi.range;
#X obj 299 411 r \$0-midi.min;
#X obj 278 291 mtof;
#X obj 278 390 ftom;
#X obj 278 43 r \$0-lp.freq.gui;
#X obj 278 316 s \$0-lp.freq;
#X obj 278 367 r \$0-lp.freq;
#X obj 278 600 s \$0-lp.freq.gui.r;
#X obj 68 95 f 0;
#X obj 94 95 + 1;
#X obj 120 95 % 2;
#X obj 68 68 t b;
#N canvas 0 22 453 366 color 0;
#X obj 108 57 inlet;
#X obj 108 99 sel 0 1;
#X obj 129 147 r \$0-button.colors.off;
#X obj 173 180 r \$0-button.colors.on;
#X obj 108 177 list;
#X msg 108 258 color \$1 \$1 \$2;
#X obj 152 205 list;
#X obj 108 285 outlet;
#X connect 0 0 1 0;
#X connect 1 0 4 0;
#X connect 1 1 6 0;
#X connect 2 0 4 1;
#X connect 3 0 6 1;
#X connect 4 0 5 0;
#X connect 5 0 7 0;
#X connect 6 0 5 0;
#X restore 68 571 pd color;
#X obj 68 43 r \$0-lp.active.gui;
#X obj 95 68 r \$0-lp.active;
#X obj 68 316 s \$0-lp.active;
#X obj 68 367 r \$0-lp.active;
#X obj 68 600 s \$0-lp.active.gui.r;
#X obj 108 343 save.me.mmb lpactive \$0;
#X obj 312 343 save.me.mmb lpfreq \$0;
#X obj 522 343 save.me.mmb lpres \$0;
#X connect 0 0 1 0;
#X connect 0 1 5 0;
#X connect 1 0 6 0;
#X connect 2 0 3 0;
#X connect 3 0 4 0;
#X connect 4 0 15 0;
#X connect 5 0 3 0;
#X connect 6 0 10 0;
#X connect 7 0 2 0;
#X connect 8 0 13 0;
#X connect 9 0 11 0;
#X connect 10 0 8 0;
#X connect 11 0 7 0;
#X connect 12 0 0 0;
#X connect 14 0 9 0;
#X connect 14 0 48 0;
#X connect 16 0 17 0;
#X connect 16 1 23 0;
#X connect 17 0 24 0;
#X connect 18 0 30 0;
#X connect 19 0 27 0;
#X connect 20 0 21 0;
#X connect 21 0 22 0;
#X connect 22 0 35 0;
#X connect 23 0 21 0;
#X connect 24 0 18 0;
#X connect 25 0 24 1;
#X connect 26 0 18 1;
#X connect 27 0 20 0;
#X connect 28 0 27 1;
#X connect 29 0 19 1;
#X connect 30 0 33 0;
#X connect 31 0 19 0;
#X connect 32 0 16 0;
#X connect 34 0 31 0;
#X connect 34 0 47 0;
#X connect 36 0 37 0;
#X connect 37 0 38 0;
#X connect 38 0 36 1;
#X connect 38 0 43 0;
#X connect 39 0 36 0;
#X connect 40 0 45 0;
#X connect 41 0 39 0;
#X connect 42 0 36 1;
#X connect 44 0 40 0;
#X connect 44 0 46 0;
#X connect 46 0 43 0;
#X connect 47 0 33 0;
#X connect 48 0 13 0;
#X restore 92 228 pd lowpass;
#N canvas 457 22 983 711 left.side 0;
#X obj 78 105 f 0;
#X obj 104 105 + 1;
#X obj 130 105 % 2;
#X obj 78 78 t b;
#N canvas 0 22 453 366 color 0;
#X obj 108 57 inlet;
#X obj 108 99 sel 0 1;
#X obj 129 147 r \$0-button.colors.off;
#X obj 173 180 r \$0-button.colors.on;
#X obj 108 177 list;
#X msg 108 258 color \$1 \$1 \$2;
#X obj 152 205 list;
#X obj 108 285 outlet;
#X connect 0 0 1 0;
#X connect 1 0 4 0;
#X connect 1 1 6 0;
#X connect 2 0 4 1;
#X connect 3 0 6 1;
#X connect 4 0 5 0;
#X connect 5 0 7 0;
#X connect 6 0 5 0;
#X restore 78 581 pd color;
#X obj 278 105 f 0;
#X obj 304 105 + 1;
#X obj 330 105 % 2;
#X obj 278 78 t b;
#N canvas 0 22 453 366 color 0;
#X obj 108 57 inlet;
#X obj 108 99 sel 0 1;
#X obj 129 147 r \$0-button.colors.off;
#X obj 173 180 r \$0-button.colors.on;
#X obj 108 177 list;
#X msg 108 258 color \$1 \$1 \$2;
#X obj 152 205 list;
#X obj 108 285 outlet;
#X connect 0 0 1 0;
#X connect 1 0 4 0;
#X connect 1 1 6 0;
#X connect 2 0 4 1;
#X connect 3 0 6 1;
#X connect 4 0 5 0;
#X connect 5 0 7 0;
#X connect 6 0 5 0;
#X restore 296 581 pd color;
#X obj 78 53 r \$0-analyze.active.gui;
#X obj 105 78 r \$0-analyze.active;
#X obj 78 326 s \$0-analyze.active;
#X obj 78 377 r \$0-analyze.active;
#X obj 78 610 s \$0-analyze.active.gui.r;
#X obj 278 53 r \$0-analyze.pos.gui;
#X obj 305 78 r \$0-analyze.pos;
#X obj 278 326 s \$0-analyze.pos;
#X obj 278 377 r \$0-analyze.pos;
#X obj 278 610 s \$0-analyze.pos.gui.r;
#N canvas 0 22 450 300 label 0;
#X obj 77 66 inlet;
#X obj 77 101 sel 0 1;
#X msg 74 178 label pre;
#X msg 154 178 label post;
#X obj 94 233 outlet;
#X connect 0 0 1 0;
#X connect 1 0 2 0;
#X connect 1 1 3 0;
#X connect 2 0 4 0;
#X connect 3 0 4 0;
#X restore 278 483 pd label;
#X obj 478 105 f 0;
#X obj 504 105 + 1;
#X obj 478 78 t b;
#N canvas 0 22 453 366 color 0;
#X obj 108 57 inlet;
#X obj 108 99 sel 0 1;
#X obj 129 147 r \$0-button.colors.off;
#X obj 173 180 r \$0-button.colors.on;
#X obj 108 177 list;
#X msg 108 258 color \$1 \$1 \$2;
#X obj 152 205 list;
#X obj 108 285 outlet;
#X connect 0 0 1 0;
#X connect 1 0 4 0;
#X connect 1 1 6 0;
#X connect 2 0 4 1;
#X connect 3 0 6 1;
#X connect 4 0 5 0;
#X connect 5 0 7 0;
#X connect 6 0 5 0;
#X restore 496 579 pd color;
#N canvas 0 22 480 402 label 0;
#X obj 77 66 inlet;
#X obj 97 292 outlet;
#X msg 73 198 label lowres;
#X msg 93 218 label medres;
#X msg 113 238 label hires;
#X obj 77 101 sel 0 1 2;
#X connect 0 0 5 0;
#X connect 2 0 1 0;
#X connect 3 0 1 0;
#X connect 4 0 1 0;
#X connect 5 0 2 0;
#X connect 5 1 3 0;
#X connect 5 2 4 0;
#X restore 478 483 pd label;
#X obj 478 53 r \$0-analyze.res.gui;
#X obj 505 78 r \$0-analyze.res;
#X obj 530 105 % 3;
#X obj 478 326 s \$0-analyze.res;
#X obj 478 377 r \$0-analyze.res;
#X obj 478 610 s \$0-analyze.res.gui.r;
#X obj 688 100 trigger f f;
#X obj 688 553 change;
#X msg 688 582 set \$1;
#X msg 751 512 set \$1;
#X obj 688 53 r \$0-gain.gui;
#X obj 688 208 fadtorms;
#X obj 688 433 rmstofad;
#X obj 688 326 s \$0-gain;
#X obj 688 377 r \$0-gain;
#X obj 688 610 s \$0-gain.gui.r;
#X obj 708 351 save.me.mmb gain \$0;
#N canvas 0 22 450 300 state 0;
#X obj 120 66 inlet;
#X msg 120 121 1;
#X obj 164 122 delay 100;
#X msg 164 147 0;
#X obj 120 191 outlet;
#X connect 0 0 1 0;
#X connect 0 0 2 0;
#X connect 1 0 4 0;
#X connect 2 0 3 0;
#X connect 3 0 4 0;
#X restore 296 543 pd state;
#N canvas 0 22 450 300 state 0;
#X obj 120 66 inlet;
#X msg 120 121 1;
#X obj 164 122 delay 100;
#X msg 164 147 0;
#X obj 120 191 outlet;
#X connect 0 0 1 0;
#X connect 0 0 2 0;
#X connect 1 0 4 0;
#X connect 2 0 3 0;
#X connect 3 0 4 0;
#X restore 496 543 pd state;
#X obj 296 516 t b;
#X obj 496 516 t b;
#X connect 0 0 1 0;
#X connect 1 0 2 0;
#X connect 2 0 0 1;
#X connect 2 0 12 0;
#X connect 3 0 0 0;
#X connect 4 0 14 0;
#X connect 5 0 6 0;
#X connect 6 0 7 0;
#X connect 7 0 5 1;
#X connect 7 0 17 0;
#X connect 8 0 5 0;
#X connect 9 0 19 0;
#X connect 10 0 3 0;
#X connect 11 0 0 1;
#X connect 13 0 4 0;
#X connect 15 0 8 0;
#X connect 16 0 5 1;
#X connect 18 0 20 0;
#X connect 18 0 45 0;
#X connect 20 0 19 0;
#X connect 21 0 22 0;
#X connect 22 0 28 0;
#X connect 23 0 21 0;
#X connect 24 0 31 0;
#X connect 25 0 31 0;
#X connect 26 0 23 0;
#X connect 27 0 21 1;
#X connect 28 0 21 1;
#X connect 28 0 29 0;
#X connect 30 0 25 0;
#X connect 30 0 46 0;
#X connect 32 0 37 0;
#X connect 32 1 35 0;
#X connect 33 0 34 0;
#X connect 34 0 41 0;
#X connect 35 0 33 0;
#X connect 36 0 32 0;
#X connect 37 0 39 0;
#X connect 38 0 33 0;
#X connect 40 0 38 0;
#X connect 40 0 42 0;
#X connect 42 0 39 0;
#X connect 43 0 9 0;
#X connect 44 0 24 0;
#X connect 45 0 43 0;
#X connect 46 0 44 0;
#X restore 93 273 pd left.side;
#N canvas 158 22 959 669 top.row 0;
#X obj 58 85 f 0;
#X obj 84 85 + 1;
#X obj 110 85 % 2;
#X obj 58 58 t b;
#N canvas 0 22 453 366 color 0;
#X obj 108 57 inlet;
#X obj 108 99 sel 0 1;
#X obj 129 147 r \$0-button.colors.off;
#X obj 173 180 r \$0-button.colors.on;
#X obj 108 177 list;
#X msg 108 258 color \$1 \$1 \$2;
#X obj 152 205 list;
#X obj 108 285 outlet;
#X connect 0 0 1 0;
#X connect 1 0 4 0;
#X connect 1 1 6 0;
#X connect 2 0 4 1;
#X connect 3 0 6 1;
#X connect 4 0 5 0;
#X connect 5 0 7 0;
#X connect 6 0 5 0;
#X restore 58 561 pd color;
#X obj 58 33 r \$0-bypass.gui;
#X obj 85 58 r \$0-bypass;
#X obj 58 306 s \$0-bypass;
#X obj 58 357 r \$0-bypass;
#X obj 58 590 s \$0-bypass.gui.r;
#X obj 238 58 t b;
#N canvas 0 22 453 366 color 0;
#X obj 108 57 inlet;
#X obj 108 99 sel 0 1;
#X obj 129 147 r \$0-button.colors.off;
#X obj 173 180 r \$0-button.colors.on;
#X obj 108 177 list;
#X msg 108 258 color \$1 \$1 \$2;
#X obj 152 205 list;
#X obj 108 285 outlet;
#X connect 0 0 1 0;
#X connect 1 0 4 0;
#X connect 1 1 6 0;
#X connect 2 0 4 1;
#X connect 3 0 6 1;
#X connect 4 0 5 0;
#X connect 5 0 7 0;
#X connect 6 0 5 0;
#X restore 238 561 pd color;
#X obj 238 33 r \$0-dump.gui;
#X obj 238 306 s \$0-dump;
#X obj 238 357 r \$0-dump;
#X obj 238 590 s \$0-dump.gui.r;
#N canvas 0 22 450 300 state 0;
#X obj 120 66 inlet;
#X msg 120 121 1;
#X obj 164 122 delay 100;
#X msg 164 147 0;
#X obj 120 191 outlet;
#X connect 0 0 1 0;
#X connect 0 0 2 0;
#X connect 1 0 4 0;
#X connect 2 0 3 0;
#X connect 3 0 4 0;
#X restore 238 503 pd state;
#X obj 378 58 t b;
#N canvas 0 22 453 366 color 0;
#X obj 108 57 inlet;
#X obj 108 99 sel 0 1;
#X obj 129 147 r \$0-button.colors.off;
#X obj 173 180 r \$0-button.colors.on;
#X obj 108 177 list;
#X msg 108 258 color \$1 \$1 \$2;
#X obj 152 205 list;
#X obj 108 285 outlet;
#X connect 0 0 1 0;
#X connect 1 0 4 0;
#X connect 1 1 6 0;
#X connect 2 0 4 1;
#X connect 3 0 6 1;
#X connect 4 0 5 0;
#X connect 5 0 7 0;
#X connect 6 0 5 0;
#X restore 378 561 pd color;
#N canvas 0 22 450 300 state 0;
#X obj 120 66 inlet;
#X msg 120 121 1;
#X obj 164 122 delay 100;
#X msg 164 147 0;
#X obj 120 191 outlet;
#X connect 0 0 1 0;
#X connect 0 0 2 0;
#X connect 1 0 4 0;
#X connect 2 0 3 0;
#X connect 3 0 4 0;
#X restore 378 503 pd state;
#X obj 378 33 r \$0-save.gui;
#X obj 378 306 s \$0-save;
#X obj 378 357 r \$0-save;
#X obj 378 590 s \$0-save.gui.r;
#X obj 518 58 t b;
#N canvas 0 22 453 366 color 0;
#X obj 108 57 inlet;
#X obj 108 99 sel 0 1;
#X obj 129 147 r \$0-button.colors.off;
#X obj 173 180 r \$0-button.colors.on;
#X obj 108 177 list;
#X msg 108 258 color \$1 \$1 \$2;
#X obj 152 205 list;
#X obj 108 285 outlet;
#X connect 0 0 1 0;
#X connect 1 0 4 0;
#X connect 1 1 6 0;
#X connect 2 0 4 1;
#X connect 3 0 6 1;
#X connect 4 0 5 0;
#X connect 5 0 7 0;
#X connect 6 0 5 0;
#X restore 518 561 pd color;
#N canvas 0 22 450 300 state 0;
#X obj 120 66 inlet;
#X msg 120 121 1;
#X obj 164 122 delay 100;
#X msg 164 147 0;
#X obj 120 191 outlet;
#X connect 0 0 1 0;
#X connect 0 0 2 0;
#X connect 1 0 4 0;
#X connect 2 0 3 0;
#X connect 3 0 4 0;
#X restore 518 503 pd state;
#X obj 518 33 r \$0-load.gui;
#X obj 518 306 s \$0-load;
#X obj 518 357 r \$0-load;
#X obj 518 590 s \$0-load.gui.r;
#X obj 83 332 save.me.mmb bypass \$0;
#X connect 0 0 1 0;
#X connect 1 0 2 0;
#X connect 2 0 0 1;
#X connect 2 0 7 0;
#X connect 3 0 0 0;
#X connect 4 0 9 0;
#X connect 5 0 3 0;
#X connect 6 0 0 1;
#X connect 8 0 4 0;
#X connect 8 0 31 0;
#X connect 10 0 13 0;
#X connect 11 0 15 0;
#X connect 12 0 10 0;
#X connect 14 0 16 0;
#X connect 16 0 11 0;
#X connect 17 0 21 0;
#X connect 18 0 23 0;
#X connect 19 0 18 0;
#X connect 20 0 17 0;
#X connect 22 0 19 0;
#X connect 24 0 28 0;
#X connect 25 0 30 0;
#X connect 26 0 25 0;
#X connect 27 0 24 0;
#X connect 29 0 26 0;
#X connect 31 0 7 0;
#X restore 93 302 pd top.row;
#X restore 1148 45 pd gui;
#X obj 27 157 hsl 46 15 0 127 0 0 \$0-analyze.active.gui \$0-analyze.active.gui.r
analyze 2 8 0 10 -21269 -21269 -96384 0 1;
#N canvas 0 22 972 553 init 0;
#X obj 139 67 loadbang;
#X obj 201 217 ftom;
#X obj 201 162 t b b;
#X msg 245 197 20;
#X obj 245 221 ftom;
#X obj 215 249 -;
#X obj 245 324 s \$0-midi.min;
#X obj 201 299 s \$0-midi.max;
#X obj 215 276 s \$0-midi.range;
#X msg 201 196 20000;
#X obj 434 320 rgb2pd.mmb;
#X msg 434 297 23 49 81;
#X obj 513 320 rgb2pd.mmb;
#X msg 513 297 92 135 255;
#X obj 600 320 rgb2pd.mmb;
#X obj 680 320 rgb2pd.mmb;
#X msg 680 297 228 239 255;
#X obj 434 371 s \$0-button.colors.off;
#X obj 434 345 pack f f;
#X obj 600 345 pack f f;
#X obj 600 370 s \$0-button.colors.on;
#X obj 137 105 trigger bang bang bang;
#X obj 496 243 t b b b b;
#X msg 600 297 111 165 255;
#X obj 130 437 outlet;
#X connect 0 0 21 0;
#X connect 1 0 5 0;
#X connect 1 0 7 0;
#X connect 2 0 9 0;
#X connect 2 1 3 0;
#X connect 3 0 4 0;
#X connect 4 0 5 1;
#X connect 4 0 6 0;
#X connect 5 0 8 0;
#X connect 9 0 1 0;
#X connect 10 0 18 0;
#X connect 11 0 10 0;
#X connect 12 0 18 1;
#X connect 13 0 12 0;
#X connect 14 0 19 0;
#X connect 15 0 19 1;
#X connect 16 0 15 0;
#X connect 18 0 17 0;
#X connect 19 0 20 0;
#X connect 21 0 24 0;
#X connect 21 1 2 0;
#X connect 21 2 22 0;
#X connect 22 0 11 0;
#X connect 22 1 13 0;
#X connect 22 2 23 0;
#X connect 22 3 16 0;
#X connect 23 0 14 0;
#X restore 1128 25 pd init;
#X obj 1056 110 inlet;
#N canvas 280 292 1074 428 params 0;
#X obj 103 57 inlet;
#N canvas 2 68 1431 563 params 0;
#X obj 15 114 route hpactive hpfreq hpres lsactive lsfreq lsslope lsgain
;
#X obj 748 113 route pk3active pk3freq pk3q pk3gain;
#X obj 15 66 inlet;
#X obj 15 161 != 0;
#X obj 15 186 s \$0-hp.active;
#X obj 64 350 s \$0-hp.freq;
#X obj 113 263 clip 0.7079 31.6228;
#X obj 113 285 s \$0-hp.res;
#X obj 162 161 != 0;
#X obj 162 186 s \$0-ls.active;
#X obj 212 350 s \$0-ls.freq;
#X obj 261 285 s \$0-ls.slope;
#X obj 261 263 clip 0.1 2;
#X obj 310 212 clip -30 30;
#X obj 310 234 s \$0-ls.gain;
#X obj 378 161 != 0;
#X obj 509 212 clip -30 30;
#X obj 378 186 s \$0-p1.active;
#X obj 421 350 s \$0-p1.freq;
#X obj 465 263 clip 0.1 100;
#X obj 465 285 s \$0-p1.q;
#X obj 509 234 s \$0-p1.gain;
#X obj 553 161 != 0;
#X obj 685 212 clip -30 30;
#X obj 641 263 clip 0.1 100;
#X obj 553 186 s \$0-p2.active;
#X obj 597 350 s \$0-p2.freq;
#X obj 641 285 s \$0-p2.q;
#X obj 685 234 s \$0-p2.gain;
#X obj 748 161 != 0;
#X obj 907 212 clip -30 30;
#X obj 854 263 clip 0.1 100;
#X obj 748 186 s \$0-p3.active;
#X obj 801 350 s \$0-p3.freq;
#X obj 854 285 s \$0-p3.q;
#X obj 907 234 s \$0-p3.gain;
#X obj 975 161 != 0;
#X obj 1073 263 clip 0.1 2;
#X obj 1122 212 clip -30 30;
#X obj 975 186 s \$0-hs.active;
#X obj 1024 350 s \$0-hs.freq;
#X obj 1073 285 s \$0-hs.slope;
#X obj 1122 234 s \$0-hs.gain;
#X obj 1172 161 != 0;
#X obj 1270 263 clip 0.7079 31.6228;
#X obj 1172 186 s \$0-lp.active;
#X obj 1221 350 s \$0-lp.freq;
#X obj 1270 285 s \$0-lp.res;
#X obj 1320 155 outlet;
#X obj 64 318 clip 20 20000;
#X obj 212 318 clip 20 20000;
#X obj 421 318 clip 20 20000;
#X obj 597 318 clip 20 20000;
#X obj 801 318 clip 20 20000;
#X obj 1024 318 clip 20 20000;
#X obj 1221 318 clip 20 20000;
#X obj 378 114 route pk1active pk1freq pk1q pk1gain pk2active pk2freq
pk2q pk2gain;
#X obj 975 113 route hsactive hsfreq hsslope hsgain lpactive lpfreq
lpres;
#X connect 0 0 3 0;
#X connect 0 1 49 0;
#X connect 0 2 6 0;
#X connect 0 3 8 0;
#X connect 0 4 50 0;
#X connect 0 5 12 0;
#X connect 0 6 13 0;
#X connect 0 7 56 0;
#X connect 1 0 29 0;
#X connect 1 1 53 0;
#X connect 1 2 31 0;
#X connect 1 3 30 0;
#X connect 1 4 57 0;
#X connect 2 0 0 0;
#X connect 3 0 4 0;
#X connect 6 0 7 0;
#X connect 8 0 9 0;
#X connect 12 0 11 0;
#X connect 13 0 14 0;
#X connect 15 0 17 0;
#X connect 16 0 21 0;
#X connect 19 0 20 0;
#X connect 22 0 25 0;
#X connect 23 0 28 0;
#X connect 24 0 27 0;
#X connect 29 0 32 0;
#X connect 30 0 35 0;
#X connect 31 0 34 0;
#X connect 36 0 39 0;
#X connect 37 0 41 0;
#X connect 38 0 42 0;
#X connect 43 0 45 0;
#X connect 44 0 47 0;
#X connect 49 0 5 0;
#X connect 50 0 10 0;
#X connect 51 0 18 0;
#X connect 52 0 26 0;
#X connect 53 0 33 0;
#X connect 54 0 40 0;
#X connect 55 0 46 0;
#X connect 56 0 15 0;
#X connect 56 1 51 0;
#X connect 56 2 19 0;
#X connect 56 3 16 0;
#X connect 56 4 22 0;
#X connect 56 5 52 0;
#X connect 56 6 24 0;
#X connect 56 7 23 0;
#X connect 56 8 1 0;
#X connect 57 0 36 0;
#X connect 57 1 54 0;
#X connect 57 2 37 0;
#X connect 57 3 38 0;
#X connect 57 4 43 0;
#X connect 57 5 55 0;
#X connect 57 6 44 0;
#X connect 57 7 48 0;
#X restore 103 224 pd params;
#N canvas 428 134 685 305 params 0;
#X obj 46 55 inlet;
#X obj 46 131 + 100;
#X obj 46 157 dbtorms;
#X obj 46 181 s \$0-gain;
#X obj 115 131 != 0;
#X obj 115 155 s \$0-bypass;
#X obj 46 98 route gain bypass analyzeactive analyzepos analyzeres
;
#X obj 172 188 != 0;
#X obj 172 218 s \$0-analyze.active;
#X obj 235 155 != 0;
#X obj 235 184 s \$0-analyze.pos;
#X obj 321 158 moses 0;
#X obj 360 182 moses 3;
#X obj 360 208 i;
#X obj 360 231 s \$0-analyze.res;
#X obj 378 98 route save load dump;
#X obj 378 132 s \$0-save;
#X obj 417 155 s \$0-load;
#X obj 456 132 s \$0-dump;
#X connect 0 0 6 0;
#X connect 1 0 2 0;
#X connect 2 0 3 0;
#X connect 4 0 5 0;
#X connect 6 0 1 0;
#X connect 6 1 4 0;
#X connect 6 2 7 0;
#X connect 6 3 9 0;
#X connect 6 4 11 0;
#X connect 6 5 15 0;
#X connect 7 0 8 0;
#X connect 9 0 10 0;
#X connect 11 1 12 0;
#X connect 12 0 13 0;
#X connect 13 0 14 0;
#X connect 15 0 16 0;
#X connect 15 1 17 0;
#X connect 15 2 18 0;
#X restore 103 252 pd params;
#X obj 223 57 inlet;
#X msg 223 85 hpactive 0 \, hpfreq 40 \, hpres 0.7079 \, lsactive 0
\, lsfreq 100 \, lsslope 1 \, lsgain 0 \, pk1active 0 \, pk1freq 250
\, pk1q 2 \, pk1gain 0 \, pk2active 0 \, pk2freq 700 \, pk2q 2 \, pk2gain
0 \, pk3active 0 \, pk3freq 1500 \, pk3q 2 \, pk3gain 0 \, hsactive
0 \, hsfreq 5000 \, hsslope 1 \, hsgain 0 \, lpactive 0 \, lpfreq 10000
\, lpres 0.7079 \, bypass 0 \, gain 0 \, analyzeactive 0 \, analyzepos
1 \, analyzeres 0;
#X connect 0 0 1 0;
#X connect 1 0 2 0;
#X connect 3 0 4 0;
#X connect 4 0 1 0;
#X restore 1056 152 pd params;
#N canvas 0 22 1304 666 eq7.messages 0;
#X obj 42 60 r \$0-hp.active;
#X obj 568 594 outlet;
#X msg 42 94 hpactive \$1;
#X obj 62 120 r \$0-hp.freq;
#X obj 82 180 r \$0-hp.res;
#X msg 82 214 hpres \$1;
#X msg 62 154 hpfreq \$1;
#X obj 202 60 r \$0-ls.active;
#X msg 202 94 lsactive \$1;
#X obj 222 120 r \$0-ls.freq;
#X msg 222 154 lsfreq \$1;
#X obj 242 180 r \$0-ls.slope;
#X msg 242 214 lsslope \$1;
#X obj 262 240 r \$0-ls.gain;
#X msg 262 274 lsgain \$1;
#X obj 372 60 r \$0-p1.active;
#X msg 372 94 pk1active \$1;
#X obj 392 120 r \$0-p1.freq;
#X msg 392 154 pk1freq \$1;
#X obj 432 240 r \$0-p1.gain;
#X msg 432 274 pk1gain \$1;
#X obj 542 60 r \$0-p2.active;
#X msg 542 94 pk2active \$1;
#X obj 562 120 r \$0-p2.freq;
#X msg 562 154 pk2freq \$1;
#X obj 602 240 r \$0-p2.gain;
#X msg 602 274 pk2gain \$1;
#X obj 712 60 r \$0-p3.active;
#X msg 712 94 pk3active \$1;
#X obj 732 120 r \$0-p3.freq;
#X msg 732 154 pk3freq \$1;
#X obj 772 240 r \$0-p3.gain;
#X msg 772 274 pk3gain \$1;
#X obj 882 60 r \$0-hs.active;
#X msg 882 94 hsactive \$1;
#X obj 902 120 r \$0-hs.freq;
#X msg 902 154 hsfreq \$1;
#X obj 922 180 r \$0-hs.slope;
#X msg 922 214 hsslope \$1;
#X obj 942 240 r \$0-hs.gain;
#X msg 942 274 hsgain \$1;
#X obj 1052 60 r \$0-lp.active;
#X msg 1052 94 lpactive \$1;
#X obj 1072 120 r \$0-lp.freq;
#X msg 1072 154 lpfreq \$1;
#X obj 1092 180 r \$0-lp.res;
#X msg 1092 214 lpres \$1;
#X msg 752 214 pk3q \$1;
#X msg 582 214 pk2q \$1;
#X obj 412 180 r \$0-p1.q;
#X obj 582 180 r \$0-p2.q;
#X obj 752 180 r \$0-p3.q;
#X msg 412 214 pk1q \$1;
#X obj 951 388 r \$0-bypass;
#X msg 951 411 bypass \$1;
#X obj 951 438 r \$0-gain;
#X msg 951 504 gain \$1;
#X obj 951 459 rmstodb;
#X obj 951 482 - 100;
#X obj 283 490 loadbang;
#X msg 283 514 coefflist 1;
#X connect 0 0 2 0;
#X connect 2 0 1 0;
#X connect 3 0 6 0;
#X connect 4 0 5 0;
#X connect 5 0 1 0;
#X connect 6 0 1 0;
#X connect 7 0 8 0;
#X connect 8 0 1 0;
#X connect 9 0 10 0;
#X connect 10 0 1 0;
#X connect 11 0 12 0;
#X connect 12 0 1 0;
#X connect 13 0 14 0;
#X connect 14 0 1 0;
#X connect 15 0 16 0;
#X connect 16 0 1 0;
#X connect 17 0 18 0;
#X connect 18 0 1 0;
#X connect 19 0 20 0;
#X connect 20 0 1 0;
#X connect 21 0 22 0;
#X connect 22 0 1 0;
#X connect 23 0 24 0;
#X connect 24 0 1 0;
#X connect 25 0 26 0;
#X connect 26 0 1 0;
#X connect 27 0 28 0;
#X connect 28 0 1 0;
#X connect 29 0 30 0;
#X connect 30 0 1 0;
#X connect 31 0 32 0;
#X connect 32 0 1 0;
#X connect 33 0 34 0;
#X connect 34 0 1 0;
#X connect 35 0 36 0;
#X connect 36 0 1 0;
#X connect 37 0 38 0;
#X connect 38 0 1 0;
#X connect 39 0 40 0;
#X connect 40 0 1 0;
#X connect 41 0 42 0;
#X connect 42 0 1 0;
#X connect 43 0 44 0;
#X connect 44 0 1 0;
#X connect 45 0 46 0;
#X connect 46 0 1 0;
#X connect 47 0 1 0;
#X connect 48 0 1 0;
#X connect 49 0 52 0;
#X connect 50 0 48 0;
#X connect 51 0 47 0;
#X connect 52 0 1 0;
#X connect 53 0 54 0;
#X connect 54 0 1 0;
#X connect 55 0 57 0;
#X connect 56 0 1 0;
#X connect 57 0 58 0;
#X connect 58 0 56 0;
#X connect 59 0 60 0;
#X connect 60 0 1 0;
#X restore 851 297 pd eq7.messages;
#N canvas 932 232 486 226 plot 0;
#X obj 261 79 loadbang;
#X obj 112 85 speedlim 100;
#X obj 114 127 filterplot.mmb \$0-eq_;
#X obj 112 31 r \$0-coeff.list;
#X msg 261 101 dbrange 30;
#X connect 0 0 4 0;
#X connect 1 0 2 0;
#X connect 3 0 1 0;
#X connect 4 0 2 1;
#X restore 1148 65 pd plot;
#X obj 1112 208 loadbang;
#X obj 839 262 spectrum.mmb~ \$0-__7;
#X obj 391 312 colorpanel;
#X obj 391 434 rgb2pd.mmb;
#X obj 391 338 unpack f f f;
#X obj 391 367 * 255;
#X obj 431 367 * 255;
#X obj 471 367 * 255;
#X obj 391 277 bng 15 250 50 0 empty empty empty 17 7 0 10 -262144
-1 -1;
#X obj 116 154 hsl 70 15 0 127 0 0 \$0-hp.active.gui \$0-hp.active.gui.r
highpass 10 8 0 10 -21269 -21269 -96384 0 1;
#X obj 196 154 hsl 70 15 0 127 0 0 \$0-ls.active.gui \$0-ls.active.gui.r
lowshelf 10 8 0 10 -21269 -21269 -96384 0 1;
#X obj 276 154 hsl 70 15 0 127 0 0 \$0-p1.active.gui \$0-p1.active.gui.r
peak1 18 8 0 10 -21269 -21269 -96384 0 1;
#X obj 516 154 hsl 70 15 0 127 0 0 \$0-hs.active.gui \$0-hs.active.gui.r
highshelf 8 8 0 10 -21269 -21269 -96384 0 1;
#X obj 596 154 hsl 70 15 0 127 0 0 \$0-lp.active.gui \$0-lp.active.gui.r
lowpass 12 8 0 10 -21269 -21269 -96384 0 1;
#X obj 356 154 hsl 70 15 0 127 0 0 \$0-p2.active.gui \$0-p2.active.gui.r
peak2 18 8 0 10 -21269 -21269 -96384 0 1;
#X obj 436 154 hsl 70 15 0 127 0 0 \$0-p3.active.gui \$0-p3.active.gui.r
peak3 18 8 0 10 -21269 -21269 -96384 0 1;
#X obj 531 312 colorpanel;
#X obj 521 419 rgb2pd.mmb;
#X obj 531 338 unpack f f f;
#X obj 531 367 * 255;
#X obj 571 367 * 255;
#X obj 611 367 * 255;
#X obj 531 277 bng 15 250 50 0 empty empty empty 17 7 0 10 -262144
-1 -1;
#X obj 516 450 t b f;
#X obj 531 392 pack f f f;
#X obj 606 415 prepend set;
#X msg 606 442 194 218 249;
#X obj 391 398 pack f f f;
#X obj 299 432 prepend set;
#X msg 299 459 86 106 151;
#X msg 1112 238 logfreq 1 \, dbrange -60 0;
#X obj 27 174 hsl 46 15 0 127 0 0 \$0-analyze.pos.gui \$0-analyze.pos.gui.r
post 10 8 0 10 -21269 -21269 -96384 0 1;
#X obj 27 191 hsl 46 15 0 127 0 0 \$0-analyze.res.gui \$0-analyze.res.gui.r
lowres 4 8 0 10 -21269 -21269 -96384 0 1;
#N canvas 922 22 518 416 plot 0;
#X obj 134 61 r \$0-analyze.active;
#X obj 156 89 r \$0-analyze.pos;
#X obj 141 179 +;
#X obj 156 143 t b f;
#X msg 141 273 plot \$1;
#X obj 141 314 outlet;
#X obj 114 245 t f f;
#X obj 44 283 sel 0;
#X msg 40 309 const 0;
#X obj 39 337 s \$0-__7;
#X obj 156 118 == 0;
#X obj 141 211 == 2;
#X connect 0 0 2 0;
#X connect 1 0 10 0;
#X connect 2 0 11 0;
#X connect 3 0 2 0;
#X connect 3 1 2 1;
#X connect 4 0 5 0;
#X connect 6 0 7 0;
#X connect 6 1 4 0;
#X connect 7 0 8 0;
#X connect 8 0 9 0;
#X connect 10 0 3 0;
#X connect 11 0 6 0;
#X restore 956 234 pd plot;
#N canvas 587 22 518 416 plot 0;
#X obj 134 51 r \$0-analyze.active;
#X obj 156 89 r \$0-analyze.pos;
#X obj 141 179 +;
#X obj 156 143 t b f;
#X msg 141 273 plot \$1;
#X obj 141 314 outlet;
#X obj 114 245 t f f;
#X obj 44 283 sel 0;
#X msg 40 309 const 0;
#X obj 39 337 s \$0-__7;
#X obj 156 118 == 1;
#X obj 141 212 == 2;
#X connect 0 0 2 0;
#X connect 1 0 10 0;
#X connect 2 0 11 0;
#X connect 3 0 2 0;
#X connect 3 1 2 1;
#X connect 4 0 5 0;
#X connect 6 0 7 0;
#X connect 6 1 4 0;
#X connect 7 0 8 0;
#X connect 8 0 9 0;
#X connect 10 0 3 0;
#X connect 11 0 6 0;
#X restore 963 342 pd plot;
#N canvas 0 22 453 352 resolution 0;
#X obj 103 73 r \$0-analyze.res;
#X obj 105 179 sel 0 1 2;
#X msg 144 264 resize \$1;
#X obj 144 293 s \$0-__7;
#X obj 103 104 t b f b;
#X obj 145 145 s \$0-analyze.active.gui;
#X msg 105 223 256;
#X msg 138 223 512;
#X msg 179 224 1024;
#X connect 0 0 4 0;
#X connect 1 0 6 0;
#X connect 1 1 7 0;
#X connect 1 2 8 0;
#X connect 2 0 3 0;
#X connect 4 0 5 0;
#X connect 4 1 1 0;
#X connect 4 2 5 0;
#X connect 6 0 2 0;
#X connect 7 0 2 0;
#X connect 8 0 2 0;
#X restore 1148 85 pd resolution;
#X obj 846 380 spectrum.mmb~ \$0-__7;
#X obj 27 30 vu 10 120 \$0-vu.in empty -1 -8 0 10 -66577 -1 0 0;
#X obj 41 30 vu 10 120 \$0-vu.out empty -1 -8 0 10 -66577 -1 0 0;
#X obj 55 30 vsl 15 119 0 127 0 0 \$0-gain.gui \$0-gain.gui.r empty
0 -9 0 10 -87718 -200127 -200127 7805 1;
#X obj 806 581 outlet~;
#X obj 843 426 env.mmb~;
#X obj 843 448 rmstodb;
#X obj 893 448 rmstodb;
#X obj 843 490 pack f f;
#X obj 843 511 s \$0-vu.out;
#X obj 843 470 - 100;
#X obj 893 470 - 100;
#X obj 870 146 env.mmb~;
#X obj 870 168 rmstodb;
#X obj 920 168 rmstodb;
#X obj 870 210 pack f f;
#X obj 870 190 - 100;
#X obj 920 190 - 100;
#X obj 870 231 s \$0-vu.in;
#X obj 620 27 hsl 46 15 0 127 0 0 \$0-bypass.gui \$0-bypass.gui.r bypass
4 8 0 10 -21269 -21269 -96384 0 1;
#X obj 564 27 hsl 46 15 0 127 0 0 \$0-dump.gui \$0-dump.gui.r dump
10 8 0 10 -21269 -21269 -96384 0 1;
#X obj 508 27 hsl 46 15 0 127 0 0 \$0-save.gui \$0-save.gui.r save
10 8 0 10 -21269 -21269 -96384 0 1;
#X obj 452 27 hsl 46 15 0 127 0 0 \$0-load.gui \$0-load.gui.r load
10 8 0 10 -21269 -21269 -96384 0 1;
#N canvas 0 22 883 658 state 0;
#X obj 200 593 textfile;
#X msg 277 550 clear;
#X msg 206 247 save;
#X obj 164 148 t s b b b;
#X msg 143 539 write \$1;
#X obj 412 114 openpanel;
#X obj 412 178 textfile;
#X msg 412 140 read \$1 \, rewind \, bang;
#X obj 380 206 t b a;
#X obj 404 230 prepend load;
#X obj 164 120 savepanel;
#X obj 200 546 prepend add;
#X obj 164 61 r \$0-save;
#X obj 412 67 r \$0-load;
#X obj 206 288 my.hero.mmb \$0;
#X obj 200 514 spigot;
#X obj 278 172 r \$0-dump;
#X obj 343 511 spigot;
#X obj 278 195 t b b b;
#X msg 373 324 1;
#X msg 295 324 0;
#X obj 233 492 == 0;
#X obj 376 491 == 1;
#X obj 343 544 s \$0-right.outlet;
#X obj 164 94 getdir;
#X obj 412 91 getdir;
#X msg 200 347 bypass 0 \, gain 1 \, lpres 0.7079 \, lpfreq 10000 \,
lpactive 0 \, hsgain 0 \, hsres 1 \, hsfreq 5000 \, hsactive 0 \, pk3gain
0 \, pk3res 2 \, pk3freq 1500 \, pk3active 0 \, pk2gain 0 \, pk2res
2 \, pk2freq 700 \, pk2active 0 \, pk1gain 0 \, pk1res 2 \, pk1freq
250 \, pk1active 0 \, lsgain 0 \, lsres 1 \, lsfreq 100 \, lsactive
0 \, hpres 0.7079 \, hpactive 0 \, hpfreq 40 \,;
#X connect 1 0 0 0;
#X connect 2 0 14 0;
#X connect 3 0 4 0;
#X connect 3 1 26 0;
#X connect 3 2 2 0;
#X connect 3 3 1 0;
#X connect 3 3 20 0;
#X connect 4 0 0 0;
#X connect 5 0 7 0;
#X connect 6 0 8 0;
#X connect 7 0 6 0;
#X connect 8 0 6 0;
#X connect 8 1 9 0;
#X connect 9 0 14 0;
#X connect 10 0 3 0;
#X connect 11 0 0 0;
#X connect 12 0 24 0;
#X connect 13 0 25 0;
#X connect 14 0 26 0;
#X connect 15 0 11 0;
#X connect 16 0 18 0;
#X connect 17 0 23 0;
#X connect 18 0 26 0;
#X connect 18 1 2 0;
#X connect 18 2 19 0;
#X connect 19 0 21 0;
#X connect 19 0 22 0;
#X connect 20 0 21 0;
#X connect 20 0 22 0;
#X connect 21 0 15 1;
#X connect 22 0 17 1;
#X connect 24 0 10 0;
#X connect 25 0 5 0;
#X connect 26 0 15 0;
#X connect 26 0 17 0;
#X restore 1148 106 pd state;
#X obj 1076 581 outlet;
#X obj 1076 535 r \$0-right.outlet;
#X obj 113 46 cnv 15 555 100 \$0-disp.bg.gui \$0-disp.bg.gui.r empty
20 12 0 14 -249600 -200127 0;
#N canvas 0 22 450 300 (subpatch) 0;
#X array \$0-eq_ 556 float 0;
#X coords 0 1 554 -1 555 100 1;
#X restore 113 46 graph;
#X text 119 132 20Hz;
#X text 233 132 100Hz;
#X text 413 132 1kHz;
#X text 590 132 10kHz;
#X text 500 132 3kHz;
#X text 340 132 400Hz;
#N canvas 0 22 450 300 (subpatch) 0;
#X array \$0-__7 256 float 0;
#X coords 0 1 255 0 555 100 1;
#X restore 113 46 graph;
#X text 92 87 0dB;
#X text 80 136 -30dB;
#X text 86 38 30dB;
#X obj 391 488 pack f f \$0;
#X obj 20 20 cnv 3 7 3 empty \$0-siglet.gui empty 20 12 0 14 -66577
-66577 0;
#X obj 665 209 cnv 3 7 3 empty \$0-siglet.gui empty 20 12 0 14 -66577
-66577 0;
#X obj 20 209 cnv 3 7 3 empty \$0-siglet.gui empty 20 12 0 14 -66577
-66577 0;
#X obj 666 210 cnv 1 5 1 empty \$0-siglet.gui empty 20 12 0 14 -228856
-66577 0;
#X obj 665 20 cnv 3 7 3 empty \$0-siglet.gui empty 20 12 0 14 -66577
-66577 0;
#X obj 666 21 cnv 1 5 1 empty \$0-siglet.gui empty 20 12 0 14 -228856
-66577 0;
#X obj 851 349 s \$0-coeff.list;
#X obj 986 581 outlet;
#X obj 959 432 route coefflist;
#X obj 342 209 cnv 3 7 3 empty \$0-siglet.gui empty 20 12 0 14 -66577
-66577 0;
#X obj 343 210 cnv 1 5 1 empty \$0-siglet.gui empty 20 12 0 14 -228856
-66577 0;
#X connect 20 0 21 0;
#X connect 20 0 30 0;
#X connect 20 0 77 0;
#X connect 21 0 65 0;
#X connect 21 0 70 0;
#X connect 21 0 69 0;
#X connect 21 1 110 0;
#X connect 24 0 26 1;
#X connect 25 0 26 0;
#X connect 27 0 21 1;
#X connect 27 0 112 0;
#X connect 29 0 59 0;
#X connect 31 0 33 0;
#X connect 32 0 103 0;
#X connect 33 0 34 0;
#X connect 33 1 35 0;
#X connect 33 2 36 0;
#X connect 34 0 56 0;
#X connect 35 0 56 1;
#X connect 36 0 56 2;
#X connect 37 0 31 0;
#X connect 45 0 47 0;
#X connect 46 0 52 0;
#X connect 47 0 48 0;
#X connect 47 1 49 0;
#X connect 47 2 50 0;
#X connect 48 0 53 0;
#X connect 49 0 53 1;
#X connect 50 0 53 2;
#X connect 51 0 45 0;
#X connect 52 0 103 0;
#X connect 52 1 103 1;
#X connect 53 0 46 0;
#X connect 53 0 54 0;
#X connect 54 0 55 0;
#X connect 56 0 32 0;
#X connect 56 0 57 0;
#X connect 57 0 58 0;
#X connect 59 0 30 1;
#X connect 59 0 65 1;
#X connect 62 0 30 1;
#X connect 63 0 65 1;
#X connect 70 0 71 0;
#X connect 70 1 72 0;
#X connect 71 0 75 0;
#X connect 72 0 76 0;
#X connect 73 0 74 0;
#X connect 75 0 73 0;
#X connect 76 0 73 1;
#X connect 77 0 78 0;
#X connect 77 1 79 0;
#X connect 78 0 81 0;
#X connect 79 0 82 0;
#X connect 80 0 83 0;
#X connect 81 0 80 0;
#X connect 82 0 80 1;
#X connect 90 0 89 0;
#X connect 112 1 111 0;
#X coords 0 -1 1 1 652 192 2 20 20;
