#N canvas 461 22 591 492 10;
#X obj 62 318 spigot;
#X obj 95 287 == -1;
#N canvas 0 22 450 300 arguments 0;
#X obj 204 58 dollarg;
#X obj 219 25 loadbang;
#X obj 193 163 > 0;
#X obj 127 197 spigot;
#X msg 129 171 \$1;
#X obj 296 176 > 1;
#X obj 257 208 spigot;
#X obj 257 238 s \$0-channel;
#X obj 122 232 s \$0-cc;
#X msg 255 183 \$2;
#X connect 0 0 4 0;
#X connect 0 0 9 0;
#X connect 0 1 2 0;
#X connect 0 1 5 0;
#X connect 1 0 0 0;
#X connect 2 0 3 1;
#X connect 3 0 8 0;
#X connect 4 0 3 0;
#X connect 5 0 6 1;
#X connect 6 0 7 0;
#X connect 9 0 6 0;
#X restore 440 52 pd arguments;
#X obj 122 242 r \$0-cc;
#X obj 95 219 spigot;
#X obj 128 179 == -1;
#X obj 62 354 outlet;
#X obj 155 132 r \$0-channel;
#X obj 256 30 inlet;
#N canvas 710 91 450 425 messages 0;
#X obj 201 150 route set;
#X obj 201 268 unpack f f;
#X obj 201 300 s \$0-cc;
#X obj 258 301 s \$0-channel;
#X obj 99 23 inlet;
#X obj 96 66 route bang;
#X obj 96 193 spigot;
#X msg 130 172 1;
#X obj 32 94 ctlin;
#X obj 45 135 pack f f;
#X msg 154 193 0;
#X connect 0 0 1 0;
#X connect 1 0 2 0;
#X connect 1 1 3 0;
#X connect 4 0 5 0;
#X connect 5 0 7 0;
#X connect 5 1 0 0;
#X connect 6 0 1 0;
#X connect 6 0 10 0;
#X connect 7 0 6 1;
#X connect 8 1 9 0;
#X connect 8 2 9 1;
#X connect 9 0 6 0;
#X connect 10 0 6 1;
#X restore 254 72 pd messages;
#X obj 63 77 ctlin;
#X obj 242 354 outlet;
#X obj 242 328 pack f f;
#X obj 155 155 t f f;
#X obj 122 265 t f f;
#X connect 0 0 6 0;
#X connect 1 0 0 1;
#X connect 3 0 14 0;
#X connect 4 0 1 0;
#X connect 5 0 4 1;
#X connect 7 0 13 0;
#X connect 8 0 9 0;
#X connect 10 0 0 0;
#X connect 10 1 4 0;
#X connect 10 2 5 0;
#X connect 12 0 11 0;
#X connect 13 0 5 1;
#X connect 13 1 12 1;
#X connect 14 0 1 1;
#X connect 14 1 12 0;
