#N canvas 140 22 486 423 10;
#X obj 129 96 inlet~;
#X obj 169 38 loadbang;
#X obj 259 104 r pd;
#X obj 258 125 route dsp;
#X obj 183 245 snapshot~;
#X obj 131 314 outlet~;
#X obj 323 340 s \$0-number;
#X msg 322 310 label \$1;
#X obj 21 21 cnv 13 60 13 empty \$0-number ~0.000000 2 7 0 10 -204800
-16662 0;
#X obj 287 264 makefilename ~%f;
#X obj 202 214 metro 100;
#X obj 201 314 outlet;
#X obj 359 96 inlet;
#X obj 359 124 route refresh;
#X obj 359 151 max 1;
#X obj 205 74 f \$1;
#X obj 205 101 sel 0;
#X connect 0 0 4 0;
#X connect 0 0 5 0;
#X connect 1 0 10 0;
#X connect 1 0 15 0;
#X connect 2 0 3 0;
#X connect 3 0 10 0;
#X connect 4 0 9 0;
#X connect 4 0 11 0;
#X connect 7 0 6 0;
#X connect 9 0 7 0;
#X connect 10 0 4 0;
#X connect 12 0 13 0;
#X connect 13 0 14 0;
#X connect 14 0 10 1;
#X connect 15 0 16 0;
#X connect 16 1 10 1;
#X coords 0 -1 1 1 62 15 2 20 20;
