#N canvas 0 22 604 295 10;
#X obj 113 57 inlet~;
#X obj 283 57 inlet~;
#X obj 134 192 cos~;
#X obj 113 223 *~;
#X obj 281 86 clip~ 0 1;
#X obj 280 113 *~ 0.25;
#X obj 224 192 cos~;
#X obj 203 223 *~;
#X obj 277 146 -~ 0.25;
#X obj 113 262 outlet~;
#X obj 203 262 outlet~;
#X text 412 254 .mmb;
#X connect 0 0 3 0;
#X connect 0 0 7 0;
#X connect 1 0 4 0;
#X connect 2 0 3 1;
#X connect 3 0 9 0;
#X connect 4 0 5 0;
#X connect 5 0 2 0;
#X connect 5 0 8 0;
#X connect 6 0 7 1;
#X connect 7 0 10 0;
#X connect 8 0 6 0;
