#N canvas 736 22 702 541 10;
#X obj 66 44 inlet~;
#X obj 66 404 outlet~;
#X obj 306 44 inlet;
#X obj 366 44 inlet;
#X obj 240 50 loadbang;
#X obj 234 87 f \$1;
#X obj 236 116 max 1;
#X obj 522 56 loadbang;
#X obj 522 79 samplerate~;
#X obj 521 102 expr 1/($f1/1000);
#X obj 519 126 s \$0-one.sample;
#X msg 581 55 bang;
#X obj 332 164 vline~;
#X msg 309 104 1;
#X msg 348 134 0 \, 1 0 \$1;
#X obj 357 108 f;
#X obj 361 79 t b;
#X obj 66 100 rzero~ 1;
#X obj 72 128 expr~ $v1<0;
#N canvas 0 22 581 486 counter 0;
#X obj 107 262 rpole~ 1;
#X obj 147 151 +~;
#X obj 150 196 expr~ $v1<$f2;
#X obj 152 238 *~;
#X obj 108 238 *~;
#X obj 131 299 delwrite~ \$0-counter 1;
#X obj 167 114 delread~ \$0-counter 0;
#X obj 101 28 inlet~;
#X obj 201 28 inlet~;
#X obj 301 28 inlet;
#X obj 104 338 outlet~;
#X obj 164 69 r \$0-one.sample;
#X connect 0 0 5 0;
#X connect 0 0 10 0;
#X connect 1 0 2 0;
#X connect 2 0 3 0;
#X connect 2 0 4 1;
#X connect 3 0 0 1;
#X connect 4 0 0 0;
#X connect 6 0 1 1;
#X connect 7 0 4 0;
#X connect 7 0 1 0;
#X connect 8 0 3 1;
#X connect 9 0 2 1;
#X connect 11 0 6 0;
#X restore 67 372 pd counter;
#X connect 0 0 17 0;
#X connect 2 0 6 0;
#X connect 3 0 16 0;
#X connect 4 0 5 0;
#X connect 4 0 13 0;
#X connect 5 0 6 0;
#X connect 6 0 19 2;
#X connect 7 0 8 0;
#X connect 8 0 9 0;
#X connect 9 0 10 0;
#X connect 9 0 15 1;
#X connect 11 0 8 0;
#X connect 12 0 19 1;
#X connect 13 0 12 0;
#X connect 14 0 12 0;
#X connect 15 0 14 0;
#X connect 16 0 15 0;
#X connect 17 0 18 0;
#X connect 18 0 19 0;
#X connect 19 0 1 0;
