#N canvas 104 38 619 632 10;
#N canvas 802 79 450 300 \$0-guts 0;
#X restore 204 409 pd \$0-guts;
#X obj 226 373 s pd-\$0-guts;
#X msg 226 339 clear \, obj 10 10 r \$1 \, obj 10 40 s \$2-out \, connect
0 0 1 0;
#X obj 212 447 r \$0-out;
#X obj 212 477 outlet;
#X obj 58 10 inlet;
#X obj 166 219 sel symbol;
#X msg 262 195 symbol;
#X obj 66 66 route float list;
#X obj 227 309 pack s \$0;
#X obj 233 107 loadbang;
#X obj 117 274 print r.mmb;
#X msg 117 254 bad argument;
#X obj 166 176 symbol \$1;
#X msg 315 308 clear;
#X obj 233 128 t b b b;
#X text 452 497 .mmb;
#X connect 2 0 1 0;
#X connect 3 0 4 0;
#X connect 5 0 8 0;
#X connect 6 1 9 0;
#X connect 7 0 6 1;
#X connect 8 2 13 0;
#X connect 9 0 2 0;
#X connect 10 0 15 0;
#X connect 12 0 11 0;
#X connect 13 0 6 0;
#X connect 14 0 1 0;
#X connect 15 0 13 0;
#X connect 15 1 7 0;
#X connect 15 2 14 0;
