#N canvas 655 22 715 573 10;
#X obj 68 20 inlet;
#X obj 243 244 sel symbol;
#X msg 339 220 symbol;
#X obj 143 91 route float list;
#X obj 304 334 pack s \$0;
#X obj 310 132 loadbang;
#X msg 194 279 bad argument;
#X obj 243 201 symbol \$1;
#X obj 194 299 print s.mmb;
#N canvas 0 22 450 300 \$0-guts 0;
#X obj 10 10 r 1046-dummy;
#X obj 10 40 s foo;
#X connect 0 0 1 0;
#X restore 152 435 pd \$0-guts;
#X msg 304 364 clear \, obj 10 10 r \$2-dummy \, obj 10 40 s \$1 \,
connect 0 0 1 0;
#X obj 310 153 t b b b;
#X msg 387 330 clear;
#X obj 304 391 s pd-\$0-guts;
#X obj 68 52 s \$0-dummy;
#X obj 143 20 inlet;
#X text 531 474 .mmb;
#X connect 0 0 14 0;
#X connect 1 1 4 0;
#X connect 2 0 1 1;
#X connect 3 2 7 0;
#X connect 4 0 10 0;
#X connect 5 0 11 0;
#X connect 6 0 8 0;
#X connect 7 0 1 0;
#X connect 10 0 13 0;
#X connect 11 0 7 0;
#X connect 11 1 2 0;
#X connect 11 2 12 0;
#X connect 12 0 13 0;
#X connect 15 0 3 0;
