#N canvas 35 77 1243 574 10;
#X obj 78 69 hsl 128 15 0 127 0 0 empty empty empty -2 -8 0 10 -262144
-1 -1 3700 1;
#X obj 93 138 vsl 15 128 0 127 0 0 empty empty empty 0 -9 0 10 -262144
-1 -1 5500 1;
#X floatatom 308 238 5 0 0 0 - - -;
#X symbolatom 304 190 10 0 0 0 - - -;
#X obj 560 172 tabdump \$0-array;
#N canvas 0 22 450 300 (subpatch) 0;
#X array \$0-array 5 float 3;
#A 0 0.571432 0.800004 0.37143 -0.485718 -0.800005;
#X coords 0 1 4 -1 100 70 1;
#X restore 501 46 graph;
#X obj 560 247 tabset \$0-array;
#X obj 863 99 my.hero.mmb \$0;
#X msg 814 21 save;
#X obj 775 113 prepend load;
#X text 893 395 .mmb;
#X obj 815 45 t a b;
#X obj 305 168 symbol;
#X msg 529 145 save2;
#N canvas 0 22 762 560 multiple.parameters 0;
#X obj 249 178 hradio 15 1 0 8 empty empty empty 0 -8 0 10 -262144
-1 -1 1;
#X obj 252 206 hsl 128 15 0 127 0 0 empty empty empty -2 -8 0 10 -262144
-1 -1 1600 1;
#X obj 272 233 tgl 15 0 empty empty empty 17 7 0 10 -262144 -1 -1 1
1;
#X obj 332 233 tgl 15 0 empty empty empty 17 7 0 10 -262144 -1 -1 0
1;
#X obj 195 355 pack f f f f;
#X msg 195 386 clear \, add hradio \$1 \, add hslider \$2 \, add toggle1
\$3 \, add toggle2 \$4;
#X obj 218 316 t b f;
#X obj 258 316 t b f;
#X obj 298 316 t b f;
#X obj 195 444 outlet;
#X obj 243 52 inlet;
#X obj 260 101 route hradio hsilder toggle1 toggle2;
#X connect 0 0 4 0;
#X connect 1 0 6 0;
#X connect 2 0 7 0;
#X connect 3 0 8 0;
#X connect 4 0 5 0;
#X connect 5 0 9 0;
#X connect 6 0 4 0;
#X connect 6 1 4 1;
#X connect 7 0 4 0;
#X connect 7 1 4 2;
#X connect 8 0 4 0;
#X connect 8 1 4 3;
#X connect 10 0 11 0;
#X connect 11 0 0 0;
#X connect 11 1 1 0;
#X connect 11 2 2 0;
#X connect 11 3 3 0;
#X coords 0 -1 1 1 150 100 1 240 155;
#X restore 275 327 pd multiple.parameters;
#X text 437 363 <-- see inside;
#X obj 90 481 save.me.mmb multiple.parameters \$0 7;
#X obj 277 438 route clear;
#X msg 277 459 clear;
#X obj 376 186 save.me.mmb symbolbox \$0 2;
#X obj 230 68 save.me.mmb hslider \$0 1;
#X obj 133 184 save.me.mmb vslider \$0 3;
#X obj 560 210 save.me.mmb array.list \$0 6;
#X obj 359 239 save.me.mmb numberbox \$0;
#X msg 863 132;
#X connect 0 0 20 0;
#X connect 1 0 21 0;
#X connect 2 0 23 0;
#X connect 3 0 19 0;
#X connect 4 0 22 0;
#X connect 7 0 24 0;
#X connect 8 0 11 0;
#X connect 9 0 7 0;
#X connect 11 0 7 0;
#X connect 11 1 4 0;
#X connect 12 0 3 0;
#X connect 13 0 19 1;
#X connect 14 0 17 0;
#X connect 16 0 14 0;
#X connect 17 0 18 0;
#X connect 17 1 16 0;
#X connect 18 0 16 1;
#X connect 19 0 12 0;
#X connect 20 0 0 0;
#X connect 21 0 1 0;
#X connect 22 0 6 0;
#X connect 23 0 2 0;
#X connect 24 0 9 0;
