#N canvas 189 27 1251 796 10;
#X obj 108 67 inlet~;
#X obj 101 223 *~;
#X obj 130 223 *~;
#X obj 112 263 sqrt~;
#X obj 632 67 inlet;
#X obj 147 100 sig~ 1;
#X obj 108 157 *~;
#X obj 137 575 metro 100;
#X obj 112 613 tabwrite~ \$1;
#X obj 427 81 t b b;
#N canvas 0 22 555 513 get.size 0;
#X obj 196 223 t f f f;
#X obj 240 277 ==;
#X obj 161 339 spigot;
#X obj 237 416 expr pow(2. \, $f1);
#X obj 274 310 == 0;
#X obj 243 338 spigot;
#X obj 245 364 i;
#X obj 257 253 i;
#X obj 244 385 + 1;
#X obj 193 170 expr log(size("$s1"))/log(2.);
#X obj 192 130 symbol \$1;
#X obj 197 55 inlet;
#X obj 242 452 outlet;
#X obj 283 19 r pd;
#X obj 283 41 route dsp;
#X obj 282 64 sel 1;
#X obj 197 198 change -1;
#X obj 351 71 r \$0-check.table.size;
#X obj 350 92 sel 1;
#X connect 0 0 2 0;
#X connect 0 0 5 0;
#X connect 0 1 1 0;
#X connect 0 2 7 0;
#X connect 1 0 2 1;
#X connect 1 0 4 0;
#X connect 2 0 3 0;
#X connect 3 0 12 0;
#X connect 4 0 5 1;
#X connect 5 0 6 0;
#X connect 6 0 8 0;
#X connect 7 0 1 1;
#X connect 8 0 3 0;
#X connect 9 0 16 0;
#X connect 10 0 9 0;
#X connect 11 0 10 0;
#X connect 13 0 14 0;
#X connect 14 0 15 0;
#X connect 15 0 10 0;
#X connect 16 0 0 0;
#X connect 17 0 18 0;
#X connect 18 0 10 0;
#X restore 440 127 pd get.size;
#X obj 379 197 * 2;
#X obj 435 203 s \$1;
#X msg 452 283 set \$1 1 1;
#X obj 551 209 r pd;
#X obj 551 235 route dsp;
#X obj 632 296 * 1;
#X obj 484 361 switch~ 2048;
#X msg 195 99 12;
#N canvas 0 22 450 300 \$0-reset 0;
#X restore 721 438 pd \$0-reset;
#X obj 721 359 sel 1;
#X obj 721 414 s pd-\$0-reset;
#X msg 721 388 obj 100 100 +~ \, clear;
#X msg 187 267 3.88227 \$1;
#X obj 187 288 /;
#X obj 112 309 *~ 0.00189564;
#X obj 147 129 windowing/kaiser~;
#X obj 632 146 i;
#X obj 632 167 clip 0 1;
#X obj 632 346 s \$0-plot;
#X obj 137 522 r \$0-plot;
#X obj 188 549 r \$0-refresh;
#X obj 681 141 s \$0-refresh;
#N canvas 765 197 568 496 ampscale 0;
#X obj 58 52 inlet~;
#X obj 179 82 r \$0-linamp;
#X obj 146 115 == 0;
#X obj 185 115 != 0;
#N canvas 89 44 681 600 logscale 0;
#X obj 82 68 inlet~;
#X obj 82 118 rmstodb~;
#X obj 175 100 unpack f f;
#X obj 144 243 swap;
#X obj 145 268 -;
#X obj 82 406 outlet~;
#X obj 144 145 + 100;
#X obj 144 175 max 0;
#X obj 217 143 + 100;
#X obj 82 226 -~ 0;
#X obj 82 312 /~ 1;
#X obj 82 363 clip~ 0 1;
#X obj 175 78 r \$0-dbrange;
#X obj 322 68 inlet;
#X obj 322 102 switch~;
#X connect 0 0 1 0;
#X connect 1 0 9 0;
#X connect 2 0 6 0;
#X connect 2 1 8 0;
#X connect 3 0 4 0;
#X connect 3 1 4 1;
#X connect 4 0 10 1;
#X connect 6 0 7 0;
#X connect 7 0 3 0;
#X connect 7 0 9 1;
#X connect 8 0 3 1;
#X connect 9 0 10 0;
#X connect 10 0 11 0;
#X connect 11 0 5 0;
#X connect 12 0 2 0;
#X connect 13 0 14 0;
#X restore 58 195 pd logscale;
#X obj 58 252 outlet~;
#N canvas 406 22 575 491 linscale 0;
#X obj 115 79 inlet~;
#X obj 306 79 inlet;
#X obj 306 125 switch~;
#X obj 201 162 r \$0-amprange;
#X obj 201 195 unpack f f;
#X obj 115 270 -~ 0;
#X obj 201 222 max 0;
#X obj 201 277 swap;
#X obj 203 307 -;
#X obj 115 344 /~ 1;
#X obj 115 381 clip~ 0 1;
#X obj 115 416 outlet~;
#X connect 0 0 5 0;
#X connect 1 0 2 0;
#X connect 3 0 4 0;
#X connect 4 0 6 0;
#X connect 4 1 7 1;
#X connect 5 0 9 0;
#X connect 6 0 5 1;
#X connect 6 0 7 0;
#X connect 7 0 8 0;
#X connect 7 1 8 1;
#X connect 8 0 9 1;
#X connect 9 0 10 0;
#X connect 10 0 11 0;
#X restore 148 195 pd linscale;
#X connect 0 0 4 0;
#X connect 0 0 6 0;
#X connect 1 0 2 0;
#X connect 1 0 3 0;
#X connect 2 0 4 1;
#X connect 3 0 6 1;
#X connect 4 0 5 0;
#X connect 6 0 5 0;
#X restore 112 362 pd ampscale;
#X obj 730 167 s \$0-linamp;
#X obj 777 141 s \$0-dbrange;
#X obj 559 12 loadbang;
#X msg 435 179 resize \$1 \, bounds 0 1 \$1 0;
#X obj 831 170 s \$0-amprange;
#N canvas 0 22 450 300 freqscale 0;
#X obj 101 45 inlet~;
#X obj 206 74 r \$0-logfreq;
#X obj 173 106 == 0;
#N canvas 0 22 450 300 linfreq 0;
#X obj 119 59 inlet~;
#X obj 119 158 outlet~;
#X obj 199 108 switch~;
#X obj 199 59 inlet;
#X connect 0 0 1 0;
#X connect 3 0 2 0;
#X restore 101 169 pd linfreq;
#X obj 233 106 != 0;
#X obj 101 218 outlet~;
#N canvas 621 22 819 684 logfreq 0;
#X obj 119 59 inlet~;
#X obj 273 613 outlet~;
#X obj 339 108 switch~;
#X obj 339 59 inlet;
#X obj 520 50 r \$0-table.size;
#X obj 119 122 tabsend~ \$0-tab.linfreq;
#X obj 515 204 table \$0-tab.linfreq 512;
#X obj 520 123 s \$0-tab.linfreq;
#X msg 520 102 resize \$1;
#X obj 515 226 table \$0-tab.logscale 512;
#N canvas 682 22 758 715 logscale 0;
#X obj 121 42 inlet;
#X obj 121 74 change;
#X obj 261 164 s \$0-tab.logscale;
#X msg 261 142 resize \$1;
#X obj 117 312 until;
#X obj 117 358 f 0;
#X obj 147 359 + 1;
#X msg 132 337 0;
#X obj 122 100 t f f;
#X obj 313 242 swap;
#X obj 124 155 i;
#X obj 124 180 t f f;
#X obj 313 268 -;
#X obj 313 323 until;
#X obj 313 369 f 0;
#X obj 343 370 + 1;
#X msg 328 348 0;
#X obj 313 400 t f f;
#X obj 340 429 s \$0-logscale.index;
#X obj 313 456 /;
#X obj 313 517 * 21.8268;
#X obj 313 586 *;
#X obj 313 548 / 22050;
#X obj 196 657 tabwrite \$0-tab.logscale;
#X obj 337 627 r \$0-logscale.index;
#X msg 193 362 119.766 \$1;
#X obj 117 281 t f b f;
#X obj 193 388 /;
#X obj 117 393 t f f;
#X obj 195 438 +;
#X obj 117 426 + 1;
#X obj 117 458 *;
#X obj 117 515 mtof;
#X obj 117 540 / 22050;
#X obj 117 575 *;
#X obj 313 293 t f b f;
#X obj 168 472 s \$0-logscale.index;
#X obj 117 488 + 17;
#X obj 124 132 * 0.97;
#X obj 313 485 expr pow($f1 \, .4);
#X connect 0 0 1 0;
#X connect 1 0 8 0;
#X connect 3 0 2 0;
#X connect 4 0 5 0;
#X connect 5 0 6 0;
#X connect 5 0 28 0;
#X connect 6 0 5 1;
#X connect 7 0 5 1;
#X connect 8 0 38 0;
#X connect 8 1 3 0;
#X connect 8 1 9 1;
#X connect 8 1 21 1;
#X connect 8 1 34 1;
#X connect 9 0 12 0;
#X connect 9 1 12 1;
#X connect 10 0 11 0;
#X connect 11 0 26 0;
#X connect 11 1 9 0;
#X connect 12 0 29 1;
#X connect 12 0 35 0;
#X connect 13 0 14 0;
#X connect 14 0 15 0;
#X connect 14 0 17 0;
#X connect 15 0 14 1;
#X connect 16 0 14 1;
#X connect 17 0 19 0;
#X connect 17 1 18 0;
#X connect 19 0 39 0;
#X connect 20 0 22 0;
#X connect 21 0 23 0;
#X connect 22 0 21 0;
#X connect 24 0 23 1;
#X connect 25 0 27 0;
#X connect 26 0 4 0;
#X connect 26 1 7 0;
#X connect 26 2 25 0;
#X connect 27 0 31 1;
#X connect 28 0 30 0;
#X connect 28 1 29 0;
#X connect 29 0 36 0;
#X connect 30 0 31 0;
#X connect 31 0 37 0;
#X connect 32 0 33 0;
#X connect 33 0 34 0;
#X connect 34 0 23 0;
#X connect 35 0 13 0;
#X connect 35 1 16 0;
#X connect 35 2 19 1;
#X connect 37 0 32 0;
#X connect 38 0 10 0;
#X connect 39 0 20 0;
#X restore 600 84 pd logscale;
#X obj 379 246 * 2;
#X obj 273 287 count~ 0 1024 1 1;
#X obj 337 164 r \$0-full;
#X obj 361 195 t b f;
#X obj 316 247 + 1;
#X obj 315 222 == 1;
#X obj 273 367 *~ 1;
#X obj 273 338 tabread~ \$0-tab.logscale;
#X obj 273 477 tabread~ \$0-tab.linfreq;
#X obj 273 417 expr~ int($v1) \; modf($v1);
#X obj 355 538 tabread~ \$0-tab.linfreq;
#X obj 355 516 +~ 1;
#X obj 273 580 *~;
#X obj 289 522 sig~ 1;
#X obj 290 548 -~;
#X obj 386 569 *~;
#X connect 0 0 5 0;
#X connect 3 0 2 0;
#X connect 4 0 8 0;
#X connect 4 0 10 0;
#X connect 4 0 11 0;
#X connect 8 0 7 0;
#X connect 11 0 12 1;
#X connect 12 0 18 0;
#X connect 13 0 14 0;
#X connect 13 0 16 0;
#X connect 14 0 11 0;
#X connect 14 1 11 1;
#X connect 15 0 17 1;
#X connect 16 0 15 0;
#X connect 17 0 20 0;
#X connect 18 0 17 0;
#X connect 19 0 23 0;
#X connect 20 0 19 0;
#X connect 20 0 22 0;
#X connect 20 1 25 1;
#X connect 20 1 26 1;
#X connect 21 0 26 0;
#X connect 22 0 21 0;
#X connect 23 0 1 0;
#X connect 24 0 25 0;
#X connect 25 0 23 1;
#X connect 26 0 1 0;
#X restore 201 169 pd logfreq;
#X connect 0 0 3 0;
#X connect 0 0 6 0;
#X connect 1 0 2 0;
#X connect 1 0 4 0;
#X connect 2 0 3 1;
#X connect 3 0 5 0;
#X connect 4 0 6 1;
#X connect 6 0 5 0;
#X restore 112 442 pd freqscale;
#X obj 461 154 s \$0-table.size;
#X obj 879 143 s \$0-logfreq;
#X obj 112 484 clip~ 0 1;
#X obj 560 34 t b b;
#X text 862 391 I don't know why \, but this needs to be done. I think
switch~ throws the window out of sync \, and a little dynamic patching
seems to fix it.;
#X obj 108 186 fft~;
#X obj 632 118 route plot refresh linamp dbrange amprange logfreq full
;
#X msg 689 79 plot 1 \, refresh 100 \, linamp 0 \, dbrange -90 0 \,
amprange 0 1 \, logfreq 0 \, full 0;
#X obj 938 287 s \$0-full;
#X obj 320 116 r \$0-full;
#X obj 935 184 i;
#X obj 933 210 clip 0 1;
#X obj 939 264 + 1;
#X obj 344 147 t b f;
#X obj 936 235 == 0;
#X obj 676 255 s \$0-check.table.size;
#X obj 632 216 t f f;
#X obj 551 255 t b f;
#X connect 0 0 6 0;
#X connect 1 0 3 0;
#X connect 2 0 3 0;
#X connect 3 0 25 0;
#X connect 4 0 46 0;
#X connect 5 0 26 0;
#X connect 6 0 45 0;
#X connect 7 0 8 0;
#X connect 9 0 18 0;
#X connect 9 1 10 0;
#X connect 10 0 11 0;
#X connect 10 0 37 0;
#X connect 10 0 40 0;
#X connect 11 0 13 0;
#X connect 11 0 23 0;
#X connect 13 0 17 0;
#X connect 14 0 15 0;
#X connect 15 0 57 0;
#X connect 16 0 17 0;
#X connect 16 0 20 0;
#X connect 16 0 29 0;
#X connect 18 0 26 0;
#X connect 20 0 22 0;
#X connect 22 0 21 0;
#X connect 23 0 24 0;
#X connect 24 0 25 1;
#X connect 25 0 33 0;
#X connect 26 0 6 1;
#X connect 27 0 28 0;
#X connect 28 0 56 0;
#X connect 30 0 7 0;
#X connect 31 0 7 1;
#X connect 33 0 39 0;
#X connect 36 0 43 0;
#X connect 37 0 12 0;
#X connect 39 0 42 0;
#X connect 42 0 8 0;
#X connect 43 0 47 0;
#X connect 43 1 9 0;
#X connect 45 0 1 0;
#X connect 45 0 1 1;
#X connect 45 1 2 0;
#X connect 45 1 2 1;
#X connect 46 0 27 0;
#X connect 46 1 32 0;
#X connect 46 2 34 0;
#X connect 46 3 35 0;
#X connect 46 4 38 0;
#X connect 46 5 41 0;
#X connect 46 6 50 0;
#X connect 47 0 46 0;
#X connect 49 0 53 0;
#X connect 50 0 51 0;
#X connect 51 0 54 0;
#X connect 52 0 48 0;
#X connect 53 0 11 0;
#X connect 53 1 11 1;
#X connect 54 0 52 0;
#X connect 56 0 16 0;
#X connect 56 1 55 0;
#X connect 57 0 16 0;
#X connect 57 1 16 1;
