#N canvas 780 22 640 559 10;
#X obj 24 13 inlet;
#X obj 74 13 inlet;
#N canvas 84 136 837 642 guts 0;
#X obj 59 19 inlet;
#X obj 449 19 inlet;
#X obj 213 516 outlet;
#X obj 363 516 outlet;
#X obj 449 41 t f;
#N canvas 875 320 513 405 size 0;
#X obj 154 160 pack 135 17;
#X obj 181 254 pack 128 15;
#X obj 181 209 unpack f f;
#X obj 154 184 t l l;
#X msg 181 275 size \$1 \$2;
#X obj 181 297 s \$0-slider.r;
#X obj 214 110 max 10;
#X obj 154 109 max 9;
#X obj 168 50 unpack f f;
#X obj 169 26 inlet;
#X obj 75 150 s \$0-width;
#X obj 267 156 s \$0-height;
#X obj 154 369 s \$0-vrslider;
#X obj 181 232 - 2;
#X obj 244 231 - 7;
#X msg 129 316 coords 0 -1 1 1 \$1 \$2 2 0 200;
#X msg 154 339 donecanvasdialog 1 -1 2 0 -1 \$1 \$2 \$1 \$2 0 200 \,
dirty 0;
#X connect 0 0 3 0;
#X connect 1 0 4 0;
#X connect 2 0 13 0;
#X connect 2 1 14 0;
#X connect 3 0 16 0;
#X connect 3 1 2 0;
#X connect 4 0 5 0;
#X connect 6 0 11 0;
#X connect 6 0 0 1;
#X connect 7 0 0 0;
#X connect 7 0 10 0;
#X connect 8 0 7 0;
#X connect 8 1 6 0;
#X connect 9 0 8 0;
#X connect 13 0 1 0;
#X connect 14 0 1 1;
#X connect 15 0 12 0;
#X connect 16 0 12 0;
#X restore 152 142 pd size;
#N canvas 661 130 545 576 setminmax 0;
#X obj 60 41 inlet;
#X obj 88 126 unpack f f;
#X obj 86 155 s \$0-min;
#X obj 149 157 s \$0-max;
#X obj 403 100 r \$0-max;
#X obj 382 75 r \$0-min;
#X obj 382 121 swap;
#X obj 382 146 -;
#X obj 313 281 *;
#X obj 256 215 unpack;
#X obj 463 281 *;
#X obj 313 303 +;
#X obj 463 303 +;
#X obj 229 151 list;
#X obj 251 127 r \$0-set.values;
#X obj 229 185 t l l;
#X obj 59 66 t b l b;
#X obj 329 362 pack f f;
#X obj 203 446 list;
#X obj 202 475 s \$0-set;
#X connect 0 0 16 0;
#X connect 1 0 2 0;
#X connect 1 1 3 0;
#X connect 4 0 6 1;
#X connect 5 0 6 0;
#X connect 5 0 11 1;
#X connect 5 0 12 1;
#X connect 6 0 7 0;
#X connect 6 1 7 1;
#X connect 7 0 8 1;
#X connect 7 0 10 1;
#X connect 8 0 11 0;
#X connect 9 0 8 0;
#X connect 9 1 10 0;
#X connect 10 0 12 0;
#X connect 11 0 17 0;
#X connect 12 0 17 1;
#X connect 13 0 15 0;
#X connect 14 0 13 1;
#X connect 15 1 9 0;
#X connect 16 0 18 0;
#X connect 16 1 1 0;
#X connect 16 2 13 0;
#X connect 17 0 18 1;
#X connect 18 0 19 0;
#X restore 202 167 pd setminmax;
#N canvas 320 87 541 605 interact 0;
#X obj 83 66 r \$0-slider;
#N canvas 0 22 600 538 draw.it 0;
#X obj 83 498 s \$0-cnv.r;
#X obj 188 245 - 4;
#X obj 256 299 - 4;
#X obj 83 286 * 131;
#X obj 161 223 t b f;
#X obj 81 123 unpack f f;
#X obj 83 442 pack 0 0 13;
#X obj 83 395 -;
#X obj 83 369 swap;
#X obj 123 286 * 131;
#X obj 81 15 inlet;
#X obj 81 49 speedlim 50;
#X obj 123 314 i;
#X obj 83 314 i;
#X obj 77 158 clip 0 1;
#X obj 137 160 clip 0 1;
#X obj 161 201 r \$0-height;
#X obj 257 279 r \$0-width;
#X msg 83 465 pos 2 \$2 \, vis_size \$3 \$1;
#X obj 122 341 t f f;
#X obj 149 372 swap;
#X obj 149 397 -;
#X obj 130 417 + 202;
#X connect 1 0 3 1;
#X connect 1 0 9 1;
#X connect 1 0 20 1;
#X connect 2 0 6 2;
#X connect 3 0 13 0;
#X connect 4 0 3 0;
#X connect 4 0 9 0;
#X connect 4 1 1 0;
#X connect 5 0 14 0;
#X connect 5 1 15 0;
#X connect 6 0 18 0;
#X connect 7 0 6 0;
#X connect 8 0 7 0;
#X connect 8 1 7 1;
#X connect 9 0 12 0;
#X connect 10 0 11 0;
#X connect 11 0 5 0;
#X connect 12 0 19 0;
#X connect 13 0 8 0;
#X connect 14 0 3 0;
#X connect 15 0 9 0;
#X connect 16 0 4 0;
#X connect 17 0 2 0;
#X connect 18 0 0 0;
#X connect 19 0 8 1;
#X connect 19 1 20 0;
#X connect 20 0 21 0;
#X connect 20 1 21 1;
#X connect 21 0 22 0;
#X connect 22 0 6 1;
#X restore 87 396 pd draw.it;
#X obj 87 368 r \$0-set.values;
#N canvas 412 22 540 810 selection.mode 0;
#X obj 191 22 inlet;
#X obj 182 331 MouseState;
#X msg 182 270 poll;
#X obj 123 364 sel 0;
#X msg 135 270 nopoll;
#X obj 325 626 pack f f;
#X obj 325 561 t f f;
#X obj 190 163 spigot 1;
#X msg 250 165 0;
#X obj 210 517 +;
#X obj 219 395 - 4;
#X obj 210 439 /;
#X msg 221 270 zero;
#X msg 235 137 1;
#X obj 190 195 trigger bang bang float float bang;
#X obj 210 559 clip 0 1;
#X obj 190 57 route 0;
#X obj 229 86 outlet;
#X obj 325 652 s \$0-to.outs;
#X obj 219 370 r \$0-height;
#X obj 210 473 * -1;
#X connect 0 0 16 0;
#X connect 1 0 3 0;
#X connect 1 2 11 0;
#X connect 2 0 1 0;
#X connect 3 0 4 0;
#X connect 3 0 13 0;
#X connect 4 0 1 0;
#X connect 5 0 18 0;
#X connect 6 0 5 0;
#X connect 6 1 5 1;
#X connect 7 0 14 0;
#X connect 8 0 7 1;
#X connect 9 0 15 0;
#X connect 10 0 11 1;
#X connect 11 0 20 0;
#X connect 12 0 1 0;
#X connect 13 0 7 1;
#X connect 14 0 2 0;
#X connect 14 1 12 0;
#X connect 14 2 9 1;
#X connect 14 3 6 0;
#X connect 14 4 8 0;
#X connect 15 0 5 0;
#X connect 16 0 7 0;
#X connect 16 1 17 0;
#X connect 19 0 10 0;
#X connect 20 0 9 0;
#X restore 83 166 pd selection.mode;
#X obj 173 87 r \$0-mode;
#X obj 83 138 list trim;
#X obj 83 115 list prepend 0;
#N canvas 590 22 444 759 shift.mode 0;
#X obj 53 55 inlet;
#X obj 53 86 route 1;
#X obj 92 114 outlet;
#X obj 112 320 MouseState;
#X obj 53 173 spigot 1;
#X msg 98 150 1;
#X msg 113 174 0;
#X msg 61 262 nopoll;
#X msg 112 263 poll;
#X msg 151 263 zero;
#X obj 141 392 - 4;
#X obj 126 429 /;
#X obj 126 464 t f f;
#X obj 129 501 -;
#X obj 251 413 r \$0-set.values;
#X obj 251 510 -;
#X msg 251 487 \$2 \$1;
#X msg 206 546 1 \$1;
#X obj 206 571 -;
#X obj 161 595 clip 0 1;
#X obj 251 465 spigot 1;
#X obj 129 571 +;
#X msg 160 547 \$1;
#X obj 164 628 t f f;
#X obj 189 655 +;
#X obj 165 686 pack f f;
#X obj 164 715 s \$0-to.outs;
#X obj 49 392 sel 0;
#X obj 80 209 trigger bang bang bang bang;
#X msg 179 446 0;
#X msg 296 442 1;
#X msg 311 466 0;
#X obj 126 532 * -1;
#X obj 141 366 r \$0-height;
#X connect 0 0 1 0;
#X connect 1 0 4 0;
#X connect 1 1 2 0;
#X connect 3 0 27 0;
#X connect 3 2 11 0;
#X connect 4 0 28 0;
#X connect 5 0 4 1;
#X connect 6 0 4 1;
#X connect 7 0 3 0;
#X connect 8 0 3 0;
#X connect 9 0 3 0;
#X connect 10 0 11 1;
#X connect 11 0 12 0;
#X connect 12 0 13 1;
#X connect 12 1 13 0;
#X connect 13 0 32 0;
#X connect 14 0 20 0;
#X connect 14 0 22 0;
#X connect 15 0 17 0;
#X connect 15 0 24 1;
#X connect 16 0 15 0;
#X connect 17 0 18 0;
#X connect 18 0 19 2;
#X connect 19 0 23 0;
#X connect 20 0 16 0;
#X connect 21 0 19 0;
#X connect 22 0 21 1;
#X connect 23 0 25 0;
#X connect 23 1 24 0;
#X connect 24 0 25 1;
#X connect 25 0 26 0;
#X connect 27 0 5 0;
#X connect 27 0 30 0;
#X connect 27 0 7 0;
#X connect 28 0 8 0;
#X connect 28 1 9 0;
#X connect 28 2 29 0;
#X connect 28 3 6 0;
#X connect 28 3 31 0;
#X connect 29 0 13 1;
#X connect 30 0 20 1;
#X connect 31 0 20 1;
#X connect 32 0 21 0;
#X connect 33 0 10 0;
#X restore 83 194 pd shift.mode;
#N canvas 0 22 636 772 extend.mode 0;
#X obj 133 47 inlet;
#X obj 172 106 outlet;
#X obj 133 77 route 2;
#X obj 130 349 MouseState;
#X msg 130 288 poll;
#X obj 71 382 sel 0;
#X msg 83 288 nopoll;
#X obj 138 181 spigot 1;
#X msg 198 183 0;
#X obj 145 515 +;
#X obj 161 418 - 4;
#X obj 145 457 /;
#X msg 169 288 zero;
#X msg 183 155 1;
#X obj 138 213 trigger bang bang float float bang;
#X obj 145 557 clip 0 1;
#X obj 273 670 s \$0-to.outs;
#N canvas 434 182 469 438 farthest.edge 0;
#X obj 70 56 inlet;
#X obj 229 85 r \$0-set.values;
#X obj 230 121 unpack f f;
#X obj 109 184 expr abs($f1-$f2);
#X obj 229 184 expr abs($f1-$f2);
#X obj 69 242 list;
#X obj 70 95 t b f f;
#X obj 79 300 list-idx;
#X obj 80 332 outlet;
#X obj 178 228 <;
#X connect 0 0 6 0;
#X connect 1 0 2 0;
#X connect 1 0 5 1;
#X connect 2 0 3 1;
#X connect 2 1 4 1;
#X connect 3 0 9 0;
#X connect 4 0 9 1;
#X connect 5 0 7 0;
#X connect 6 0 5 0;
#X connect 6 1 3 0;
#X connect 6 2 4 0;
#X connect 7 0 8 0;
#X connect 9 0 7 1;
#X restore 313 506 pd farthest.edge;
#X obj 275 452 t f f;
#X obj 272 626 pack f f;
#X obj 161 394 r \$0-height;
#X obj 145 483 * -1;
#X connect 0 0 2 0;
#X connect 2 0 7 0;
#X connect 2 1 1 0;
#X connect 3 0 5 0;
#X connect 3 2 11 0;
#X connect 4 0 3 0;
#X connect 5 0 6 0;
#X connect 5 0 13 0;
#X connect 6 0 3 0;
#X connect 7 0 14 0;
#X connect 8 0 7 1;
#X connect 9 0 15 0;
#X connect 10 0 11 1;
#X connect 11 0 21 0;
#X connect 12 0 3 0;
#X connect 13 0 7 1;
#X connect 14 0 4 0;
#X connect 14 1 12 0;
#X connect 14 2 9 1;
#X connect 14 3 18 0;
#X connect 14 4 8 0;
#X connect 15 0 19 0;
#X connect 17 0 19 1;
#X connect 18 0 19 0;
#X connect 18 1 17 0;
#X connect 19 0 16 0;
#X connect 20 0 10 0;
#X connect 21 0 9 0;
#X restore 83 224 pd extend.mode;
#N canvas 0 22 483 811 expand.mode 0;
#X obj 53 55 inlet;
#X obj 92 114 outlet;
#X obj 53 85 route 3;
#X obj 122 330 MouseState;
#X obj 63 183 spigot 1;
#X msg 108 160 1;
#X msg 123 184 0;
#X msg 71 272 nopoll;
#X msg 122 273 poll;
#X msg 161 273 zero;
#X obj 165 382 - 4;
#X obj 150 419 /;
#X obj 283 393 r \$0-set.values;
#X obj 171 675 clip 0 1;
#X obj 175 736 pack f f;
#X obj 174 765 s \$0-to.outs;
#X obj 59 402 sel 0;
#X obj 90 219 trigger bang bang bang bang;
#X obj 254 604 +;
#X obj 256 470 unpack f f;
#X obj 171 571 swap;
#X obj 171 541 t f f;
#X obj 254 675 clip 0 1;
#X obj 171 601 -;
#X obj 301 589 +;
#X obj 301 616 / 2;
#X obj 270 437 list;
#X obj 155 515 * -0.5;
#X obj 165 356 r \$0-height;
#X obj 130 383 * -1;
#X connect 0 0 2 0;
#X connect 2 0 4 0;
#X connect 2 1 1 0;
#X connect 3 0 16 0;
#X connect 3 1 29 0;
#X connect 4 0 17 0;
#X connect 5 0 4 1;
#X connect 6 0 4 1;
#X connect 7 0 3 0;
#X connect 8 0 3 0;
#X connect 9 0 3 0;
#X connect 10 0 11 1;
#X connect 11 0 27 0;
#X connect 12 0 26 1;
#X connect 13 0 14 0;
#X connect 14 0 15 0;
#X connect 16 0 5 0;
#X connect 16 0 7 0;
#X connect 17 0 8 0;
#X connect 17 1 9 0;
#X connect 17 2 26 0;
#X connect 17 3 6 0;
#X connect 18 0 22 0;
#X connect 19 0 20 1;
#X connect 19 0 24 0;
#X connect 19 1 18 1;
#X connect 19 1 24 1;
#X connect 20 0 23 0;
#X connect 20 1 23 1;
#X connect 21 0 20 0;
#X connect 21 1 18 0;
#X connect 22 0 14 1;
#X connect 23 0 13 0;
#X connect 24 0 25 0;
#X connect 25 0 22 1;
#X connect 25 0 13 2;
#X connect 26 0 19 0;
#X connect 27 0 21 0;
#X connect 28 0 10 0;
#X connect 29 0 11 0;
#X restore 83 254 pd expand.mode;
#N canvas 0 22 450 300 no.response 0;
#X obj 54 36 inlet;
#X obj 54 59 route 4;
#X obj 93 89 outlet;
#X connect 0 0 1 0;
#X connect 1 1 2 0;
#X restore 83 283 pd no.response;
#X connect 0 0 6 0;
#X connect 2 0 1 0;
#X connect 3 0 7 0;
#X connect 4 0 6 1;
#X connect 5 0 3 0;
#X connect 6 0 5 0;
#X connect 7 0 8 0;
#X connect 8 0 9 0;
#X connect 9 0 10 0;
#X restore 627 90 pd interact;
#N canvas 755 171 521 531 init 0;
#X obj 76 62 inlet;
#X obj 76 313 outlet;
#X obj 76 138 f \$1;
#X obj 121 139 f \$2;
#X obj 121 163 sel 0;
#X obj 76 163 sel 0;
#X obj 76 222 pack f f;
#X obj 76 113 t b b;
#X msg 76 245 size \$1 \$2 \, setminmax 0 127 \, mode 0 \, set 0 0
;
#X msg 76 186 15;
#X msg 121 186 133;
#X connect 0 0 7 0;
#X connect 2 0 5 0;
#X connect 3 0 4 0;
#X connect 4 0 10 0;
#X connect 4 1 6 1;
#X connect 5 0 9 0;
#X connect 5 1 6 0;
#X connect 6 0 8 0;
#X connect 7 0 2 0;
#X connect 7 1 3 0;
#X connect 8 0 1 0;
#X connect 9 0 6 0;
#X connect 10 0 6 1;
#X restore 212 50 pd init;
#X obj 212 25 loadbang;
#X obj 303 248 r \$0-max;
#X obj 282 223 r \$0-min;
#X obj 282 269 swap;
#X obj 282 294 -;
#X obj 129 218 r \$0-to.outs;
#X obj 213 429 *;
#X obj 156 363 unpack;
#X obj 363 429 *;
#X obj 213 451 +;
#X obj 363 451 +;
#N canvas 0 22 437 532 set 0;
#X obj 142 52 inlet;
#X obj 142 142 unpack f f;
#X obj 262 171 r \$0-min;
#X obj 283 193 r \$0-max;
#X obj 262 223 swap;
#X obj 199 219 -;
#X obj 142 219 -;
#X obj 262 253 -;
#X obj 199 299 /;
#X obj 142 299 /;
#X obj 142 362 pack f f;
#X obj 142 389 list-sort;
#X obj 142 417 s \$0-set.values;
#N canvas 0 22 450 300 clip.input 0;
#X obj 38 84 inlet;
#X obj 38 144 spigot 1;
#X obj 112 145 spigot 0;
#X obj 38 179 clip 0 1;
#X obj 38 241 outlet;
#X obj 165 87 r \$0-clip.input;
#X obj 162 119 == 0;
#X connect 0 0 1 0;
#X connect 0 0 2 0;
#X connect 1 0 3 0;
#X connect 2 0 4 0;
#X connect 3 0 4 0;
#X connect 5 0 1 1;
#X connect 5 0 6 0;
#X connect 6 0 2 1;
#X restore 142 320 pd clip.input;
#N canvas 0 22 450 300 clip.input 0;
#X obj 38 84 inlet;
#X obj 38 144 spigot 1;
#X obj 112 145 spigot 0;
#X obj 38 179 clip 0 1;
#X obj 38 241 outlet;
#X obj 165 87 r \$0-clip.input;
#X obj 162 119 == 0;
#X connect 0 0 1 0;
#X connect 0 0 2 0;
#X connect 1 0 3 0;
#X connect 2 0 4 0;
#X connect 3 0 4 0;
#X connect 5 0 1 1;
#X connect 5 0 6 0;
#X connect 6 0 2 1;
#X restore 199 340 pd clip.input;
#X obj 217 95 r \$0-set;
#X connect 0 0 1 0;
#X connect 1 0 6 0;
#X connect 1 1 5 0;
#X connect 2 0 4 0;
#X connect 2 0 5 1;
#X connect 2 0 6 1;
#X connect 3 0 4 1;
#X connect 4 0 7 0;
#X connect 4 1 7 1;
#X connect 5 0 8 0;
#X connect 6 0 9 0;
#X connect 7 0 8 1;
#X connect 7 0 9 1;
#X connect 8 0 14 0;
#X connect 9 0 13 0;
#X connect 10 0 11 0;
#X connect 11 0 12 0;
#X connect 13 0 10 0;
#X connect 14 0 10 1;
#X connect 15 0 1 0;
#X restore 247 143 pd set;
#X obj 129 299 list;
#X obj 151 275 r \$0-set.values;
#X obj 47 55 route bang float;
#N canvas 608 38 516 532 set.left 0;
#X obj 146 100 inlet;
#X obj 240 270 r \$0-set.values;
#X obj 209 133 r \$0-min;
#X obj 230 155 r \$0-max;
#X obj 209 185 swap;
#X obj 146 181 -;
#X obj 209 215 -;
#X obj 146 261 /;
#X obj 146 356 pack f f;
#X obj 146 383 list-sort;
#X obj 146 411 s \$0-set.values;
#X msg 195 324 \$1;
#N canvas 0 22 450 300 clip.input 0;
#X obj 38 84 inlet;
#X obj 38 144 spigot 1;
#X obj 112 145 spigot 0;
#X obj 38 179 clip 0 1;
#X obj 38 241 outlet;
#X obj 165 87 r \$0-clip.input;
#X obj 162 119 == 0;
#X connect 0 0 1 0;
#X connect 0 0 2 0;
#X connect 1 0 3 0;
#X connect 2 0 4 0;
#X connect 3 0 4 0;
#X connect 5 0 1 1;
#X connect 5 0 6 0;
#X connect 6 0 2 1;
#X restore 146 290 pd clip.input;
#X connect 0 0 5 0;
#X connect 1 0 11 0;
#X connect 2 0 4 0;
#X connect 2 0 5 1;
#X connect 3 0 4 1;
#X connect 4 0 6 0;
#X connect 4 1 6 1;
#X connect 5 0 7 0;
#X connect 6 0 7 1;
#X connect 7 0 12 0;
#X connect 8 0 9 0;
#X connect 9 0 10 0;
#X connect 11 0 8 1;
#X connect 12 0 8 0;
#X restore 449 68 pd set.left;
#X obj 75 412 s \$0-set.values;
#X obj 129 333 t l l;
#N canvas 608 38 516 532 set.right 0;
#X obj 146 100 inlet;
#X obj 240 270 r \$0-set.values;
#X obj 209 133 r \$0-min;
#X obj 230 155 r \$0-max;
#X obj 209 185 swap;
#X obj 146 181 -;
#X obj 209 215 -;
#X obj 146 261 /;
#X obj 146 356 pack f f;
#X obj 146 383 list-sort;
#X msg 195 324 \$2;
#X obj 146 411 s \$0-to.outs;
#N canvas 0 22 450 300 clip.input 0;
#X obj 38 84 inlet;
#X obj 38 144 spigot 1;
#X obj 112 145 spigot 0;
#X obj 38 179 clip 0 1;
#X obj 38 241 outlet;
#X obj 165 87 r \$0-clip.input;
#X obj 162 119 == 0;
#X connect 0 0 1 0;
#X connect 0 0 2 0;
#X connect 1 0 3 0;
#X connect 2 0 4 0;
#X connect 3 0 4 0;
#X connect 5 0 1 1;
#X connect 5 0 6 0;
#X connect 6 0 2 1;
#X restore 146 291 pd clip.input;
#X connect 0 0 5 0;
#X connect 1 0 10 0;
#X connect 2 0 4 0;
#X connect 2 0 5 1;
#X connect 3 0 4 1;
#X connect 4 0 6 0;
#X connect 4 1 6 1;
#X connect 5 0 7 0;
#X connect 6 0 7 1;
#X connect 7 0 12 0;
#X connect 8 0 9 0;
#X connect 9 0 11 0;
#X connect 10 0 8 1;
#X connect 12 0 8 0;
#X restore 95 169 pd set.right;
#N canvas 0 22 450 300 mode 0;
#X obj 132 60 inlet;
#X obj 133 97 moses 0;
#X obj 170 158 s \$0-mode;
#X text 275 96 0 = selection;
#X text 275 143 3 = expand range;
#X text 275 127 2 = extend edge;
#X text 275 111 1 = shift selection;
#X text 275 159 4 = no response to mouse;
#X obj 171 127 moses 5;
#X connect 0 0 1 0;
#X connect 1 1 8 0;
#X connect 8 0 2 0;
#X restore 295 168 pd mode;
#N canvas 0 22 450 300 colors 0;
#X obj 119 59 inlet;
#X obj 239 59 inlet;
#N canvas 533 158 479 375 get.color 0;
#X obj 87 40 inlet;
#X obj 87 73 t l l;
#X obj 114 105 list length;
#X obj 114 140 == 1;
#X obj 87 187 spigot;
#X obj 176 141 > 1;
#X obj 155 187 spigot;
#X obj 95 280 outlet;
#X obj 157 237 rgb2pd.mmb;
#X connect 0 0 1 0;
#X connect 1 0 4 0;
#X connect 1 0 6 0;
#X connect 1 1 2 0;
#X connect 2 0 3 0;
#X connect 2 0 5 0;
#X connect 3 0 4 1;
#X connect 4 0 7 0;
#X connect 5 0 6 1;
#X connect 6 0 8 0;
#X connect 8 0 7 0;
#X restore 119 105 pd get.color;
#N canvas 533 158 479 375 get.color 0;
#X obj 87 40 inlet;
#X obj 87 73 t l l;
#X obj 114 105 list length;
#X obj 114 140 == 1;
#X obj 87 187 spigot;
#X obj 176 141 > 1;
#X obj 155 187 spigot;
#X obj 95 280 outlet;
#X obj 157 237 rgb2pd.mmb;
#X connect 0 0 1 0;
#X connect 1 0 4 0;
#X connect 1 0 6 0;
#X connect 1 1 2 0;
#X connect 2 0 3 0;
#X connect 2 0 5 0;
#X connect 3 0 4 1;
#X connect 4 0 7 0;
#X connect 5 0 6 1;
#X connect 6 0 8 0;
#X connect 8 0 7 0;
#X restore 239 105 pd get.color;
#X msg 119 155 color \$1 \$1 \$1;
#X obj 119 183 s \$0-slider.r;
#X msg 239 155 color \$1 \$1;
#X obj 239 183 s \$0-cnv.r;
#X connect 0 0 2 0;
#X connect 1 0 3 0;
#X connect 2 0 4 0;
#X connect 3 0 6 0;
#X connect 4 0 5 0;
#X connect 6 0 7 0;
#X restore 328 142 pd colors;
#N canvas 0 22 437 532 list 0;
#X obj 142 52 inlet;
#X obj 142 142 unpack f f;
#X obj 262 171 r \$0-min;
#X obj 283 193 r \$0-max;
#X obj 262 223 swap;
#X obj 199 219 -;
#X obj 142 219 -;
#X obj 262 253 -;
#X obj 199 299 /;
#X obj 142 299 /;
#X obj 142 362 pack f f;
#X obj 142 389 list-sort;
#X obj 142 417 s \$0-to.outs;
#N canvas 0 22 450 300 clip.input 0;
#X obj 38 84 inlet;
#X obj 38 144 spigot 1;
#X obj 112 145 spigot 0;
#X obj 38 179 clip 0 1;
#X obj 38 241 outlet;
#X obj 165 87 r \$0-clip.input;
#X obj 162 119 == 0;
#X connect 0 0 1 0;
#X connect 0 0 2 0;
#X connect 1 0 3 0;
#X connect 2 0 4 0;
#X connect 3 0 4 0;
#X connect 5 0 1 1;
#X connect 5 0 6 0;
#X connect 6 0 2 1;
#X restore 142 321 pd clip.input;
#N canvas 0 22 450 300 clip.input 0;
#X obj 38 84 inlet;
#X obj 38 144 spigot 1;
#X obj 112 145 spigot 0;
#X obj 38 179 clip 0 1;
#X obj 38 241 outlet;
#X obj 165 87 r \$0-clip.input;
#X obj 162 119 == 0;
#X connect 0 0 1 0;
#X connect 0 0 2 0;
#X connect 1 0 3 0;
#X connect 2 0 4 0;
#X connect 3 0 4 0;
#X connect 5 0 1 1;
#X connect 5 0 6 0;
#X connect 6 0 2 1;
#X restore 199 342 pd clip.input;
#X connect 0 0 1 0;
#X connect 1 0 6 0;
#X connect 1 1 5 0;
#X connect 2 0 4 0;
#X connect 2 0 5 1;
#X connect 2 0 6 1;
#X connect 3 0 4 1;
#X connect 4 0 7 0;
#X connect 4 1 7 1;
#X connect 5 0 8 0;
#X connect 6 0 9 0;
#X connect 7 0 8 1;
#X connect 7 0 9 1;
#X connect 8 0 14 0;
#X connect 9 0 13 0;
#X connect 10 0 11 0;
#X connect 11 0 12 0;
#X connect 13 0 10 0;
#X connect 14 0 10 1;
#X restore 612 144 pd list;
#X obj 129 245 list-sort;
#N canvas 0 22 450 300 sends 0;
#X obj 115 45 inlet;
#X obj 116 81 unpack s s;
#X obj 95 167 s.mmb;
#X obj 145 194 s.mmb;
#X obj 91 130 r \$0-outlet1;
#X obj 145 155 r \$0-outlet2;
#X connect 0 0 1 0;
#X connect 1 0 2 1;
#X connect 1 1 3 1;
#X connect 4 0 2 0;
#X connect 5 0 3 0;
#X restore 408 170 pd sends;
#X obj 231 485 s \$0-outlet1;
#X obj 384 487 s \$0-outlet2;
#N canvas 0 22 450 300 receives 0;
#X obj 63 55 inlet;
#X obj 66 97 unpack s s;
#X obj 64 152 r.mmb;
#X obj 121 156 r.mmb;
#X obj 62 188 s \$0-inlet1;
#X obj 120 212 s \$0-inlet2;
#X connect 0 0 1 0;
#X connect 1 0 2 0;
#X connect 1 1 3 0;
#X connect 2 0 4 0;
#X connect 3 0 5 0;
#X restore 441 144 pd receives;
#X obj 493 20 r \$0-inlet2;
#X obj 106 25 r \$0-inlet1;
#X obj 152 113 route size setminmax set mode bgcolor fgcolor send receive
;
#X obj 525 114 route clipinput;
#N canvas 0 22 450 300 clipinput 0;
#X obj 78 63 inlet;
#X obj 78 93 clip 0 1;
#X obj 78 125 i;
#X obj 78 158 s \$0-clip.input;
#X connect 0 0 1 0;
#X connect 1 0 2 0;
#X connect 2 0 3 0;
#X restore 525 168 pd clipinput;
#X msg 289 29 bang;
#X connect 0 0 23 0;
#X connect 1 0 4 0;
#X connect 4 0 24 0;
#X connect 8 0 38 0;
#X connect 9 0 8 0;
#X connect 10 0 12 1;
#X connect 11 0 12 0;
#X connect 11 0 18 1;
#X connect 11 0 19 1;
#X connect 12 0 13 0;
#X connect 12 1 13 1;
#X connect 13 0 15 1;
#X connect 13 0 17 1;
#X connect 14 0 31 0;
#X connect 15 0 18 0;
#X connect 16 0 15 0;
#X connect 16 1 17 0;
#X connect 17 0 19 0;
#X connect 18 0 2 0;
#X connect 18 0 33 0;
#X connect 19 0 3 0;
#X connect 19 0 34 0;
#X connect 21 0 26 0;
#X connect 22 0 21 1;
#X connect 23 0 21 0;
#X connect 23 1 27 0;
#X connect 23 2 38 0;
#X connect 26 0 25 0;
#X connect 26 1 16 0;
#X connect 31 0 21 0;
#X connect 36 0 4 0;
#X connect 37 0 23 0;
#X connect 38 0 5 0;
#X connect 38 1 6 0;
#X connect 38 2 20 0;
#X connect 38 3 28 0;
#X connect 38 4 29 0;
#X connect 38 5 29 1;
#X connect 38 6 32 0;
#X connect 38 7 35 0;
#X connect 38 8 39 0;
#X connect 39 0 40 0;
#X connect 39 1 30 0;
#X connect 41 0 8 0;
#X restore 25 41 pd guts;
#X obj 23 71 outlet;
#X obj 73 71 outlet;
#X msg 222 50 size 1;
#X obj 223 84 s \$0-cnv.r;
#X msg 275 50 size 15;
#X obj 16 112 namecanvas \$0-vrslider;
#X obj 1 203 vsl 38 73 0 1 0 0 \$0-slider \$0-slider.r empty -2 -8
0 10 -262144 -262144 -1 0 0;
#X obj 2 278 cnv 1 36 1 \$0-cnv \$0-cnv.r empty 20 12 0 14 -99865 -66577
0;
#X connect 0 0 2 0;
#X connect 1 0 2 1;
#X connect 2 0 3 0;
#X connect 2 1 4 0;
#X connect 5 0 6 0;
#X connect 7 0 6 0;
#X coords 0 -1 1 1 40 80 2 0 200;
